{"glyphs":{"0":{"ha":875,"x_min":74,"x_max":851,"o":"m 339 -121 q 504 -76 426 -121 q 645 45 582 -32 q 755 222 708 122 q 826 433 801 321 q 851 658 851 546 q 817 839 851 763 q 722 958 783 915 q 576 1000 661 1000 q 410 952 488 1000 q 272 824 333 904 q 165 645 210 744 q 97 441 121 546 q 74 242 74 336 q 102 63 74 146 q 189 -70 131 -19 q 339 -121 247 -121 m 358 -74 q 235 5 281 -74 q 190 213 190 83 q 201 356 190 276 q 235 519 213 435 q 290 683 257 604 q 365 824 322 761 q 462 925 408 888 q 578 963 515 963 q 676 926 639 963 q 729 828 713 890 q 746 688 746 767 q 726 492 746 596 q 669 288 706 388 q 585 106 633 188 q 478 -25 536 24 q 358 -74 421 -74 "},"1":{"ha":507,"x_min":-64,"x_max":440,"o":"m 42 -121 q 117 -117 79 -121 q 194 -111 154 -114 q 278 -108 235 -108 q 333 -110 306 -108 q 388 -115 360 -112 q 342 -52 378 -67 q 253 -37 306 -37 q 226 -38 240 -37 q 197 -42 213 -39 q 267 141 235 36 q 326 362 299 246 q 374 592 353 478 q 408 801 394 706 q 428 883 415 843 q 440 957 440 922 q 438 981 440 968 q 428 1000 435 994 q 319 896 378 946 q 212 810 261 846 q 136 760 163 774 q 145 727 136 735 q 171 719 154 719 q 217 738 183 719 q 331 811 251 756 q 298 661 315 749 q 262 474 281 574 q 222 276 243 375 q 178 92 201 178 q 131 -51 156 7 q 56 -62 94 -57 q -19 -67 17 -67 q -42 -66 -31 -67 q -64 -64 -53 -65 q -14 -106 -44 -92 q 42 -121 17 -121 "},"2":{"ha":776,"x_min":-26,"x_max":694,"o":"m 553 -121 q 642 -88 608 -121 q 694 15 676 -56 q 638 -12 661 -4 q 589 -19 615 -19 q 466 -5 539 -19 q 290 32 393 10 q 420 158 357 86 q 538 312 483 231 q 628 474 592 393 q 675 608 657 539 q 693 747 693 678 q 666 875 693 818 q 590 966 639 932 q 471 1000 540 1000 q 315 959 382 1000 q 209 852 247 918 q 171 711 171 786 q 196 627 171 654 q 268 588 221 600 q 272 588 271 588 q 275 588 274 588 q 262 634 265 614 q 258 682 258 654 q 281 825 258 761 q 345 926 303 889 q 449 963 388 963 q 554 916 513 963 q 596 765 596 869 q 562 572 596 674 q 473 370 528 469 q 353 188 418 271 q 224 47 288 104 q 145 61 182 56 q 78 67 108 67 q -1 49 24 67 q -26 0 -26 32 q 0 -54 -26 -33 q 68 -75 26 -75 q 144 -59 104 -75 q 226 -15 183 -43 q 348 -66 289 -42 q 460 -106 407 -90 q 553 -121 513 -121 m 67 -37 q 33 -28 49 -37 q 17 -3 17 -18 q 27 19 17 7 q 65 31 38 31 q 112 24 85 31 q 171 6 139 17 q 115 -26 142 -14 q 67 -37 89 -37 "},"3":{"ha":708,"x_min":8,"x_max":650,"o":"m 236 -121 q 387 -90 318 -121 q 507 -9 456 -60 q 587 105 558 42 q 615 233 615 168 q 597 336 615 282 q 533 436 578 390 q 407 501 488 482 q 502 549 458 515 q 579 629 546 583 q 631 725 613 675 q 650 821 650 775 q 619 922 650 882 q 540 981 589 961 q 436 1000 492 1000 q 314 976 374 1000 q 215 905 254 951 q 176 790 176 858 q 182 741 176 767 q 199 698 188 715 q 228 681 211 681 q 260 693 243 681 q 283 719 276 706 q 267 767 272 743 q 261 813 261 792 q 285 894 261 861 q 344 945 308 928 q 419 963 381 963 q 506 932 468 963 q 544 828 544 901 q 517 701 544 769 q 438 576 489 633 q 319 488 388 518 q 411 433 378 472 q 459 340 444 393 q 474 233 474 288 q 440 72 474 142 q 356 -37 407 1 q 249 -76 304 -76 q 171 -51 204 -76 q 119 13 138 -26 q 101 96 101 53 q 114 170 101 132 q 146 225 126 208 q 134 226 140 226 q 121 226 128 226 q 58 203 83 226 q 21 147 33 181 q 8 76 8 113 q 30 -12 8 33 q 101 -90 51 -58 q 236 -121 151 -121 "},"4":{"ha":664,"x_min":-11,"x_max":631,"o":"m 413 -121 q 417 -53 413 -100 q 430 51 422 -6 q 446 159 438 107 q 460 243 454 211 q 467 285 463 264 q 475 326 471 306 q 490 326 482 326 q 506 326 499 326 q 568 349 532 326 q 631 408 604 372 q 593 401 613 403 q 547 400 574 400 q 517 400 532 400 q 489 400 503 400 q 531 614 511 515 q 566 784 550 713 q 589 888 582 856 q 615 964 615 932 q 610 990 615 981 q 600 1000 606 999 q 476 830 551 915 q 314 663 400 744 q 149 506 228 581 q 14 365 69 431 q -5 341 1 356 q -11 307 -11 326 q 31 315 8 311 q 78 321 53 318 q 131 326 103 324 q 192 328 160 328 q 260 329 224 329 q 314 328 283 329 q 375 328 344 328 q 354 229 363 269 q 344 181 346 189 q 319 38 328 89 q 308 -35 311 -14 q 306 -56 306 -56 q 335 -101 306 -86 q 413 -121 365 -117 m 111 400 q 128 419 119 408 q 149 440 138 429 q 251 542 194 489 q 368 651 308 596 q 479 757 428 706 q 434 589 457 685 q 392 404 411 493 q 326 406 361 406 q 251 407 292 407 q 177 406 213 407 q 111 400 142 404 "},"5":{"ha":671,"x_min":-4,"x_max":663,"o":"m 231 -121 q 421 -74 338 -121 q 551 54 504 -26 q 599 235 599 135 q 569 369 599 310 q 478 463 539 429 q 324 497 418 497 q 263 494 293 497 q 203 483 232 490 q 212 519 204 489 q 231 594 219 549 q 256 688 243 639 q 283 779 269 736 q 308 849 297 822 q 322 872 317 867 q 340 876 328 876 q 403 867 367 876 q 492 858 440 858 q 571 867 532 858 q 636 899 610 876 q 663 963 663 922 q 661 979 663 969 q 657 1000 660 989 q 550 981 601 989 q 442 972 499 972 q 373 976 410 972 q 294 990 336 981 q 272 910 288 961 q 238 794 257 858 q 201 663 219 729 q 169 540 183 597 q 150 443 156 482 q 220 454 186 450 q 278 458 254 458 q 386 428 346 458 q 445 348 426 397 q 464 242 464 299 q 448 130 464 186 q 402 27 432 74 q 329 -48 372 -19 q 231 -76 286 -76 q 148 -52 179 -76 q 103 10 117 -28 q 89 90 89 49 q 101 171 89 133 q 133 225 114 208 q 122 226 128 226 q 108 226 115 226 q 47 203 72 226 q 8 146 21 181 q -4 75 -4 111 q 17 -13 -4 32 q 89 -90 38 -58 q 231 -121 140 -121 "},"6":{"ha":779,"x_min":68,"x_max":733,"o":"m 351 -121 q 538 -72 457 -121 q 665 61 619 -22 q 711 250 711 144 q 676 403 711 344 q 584 491 642 463 q 457 519 526 519 q 331 496 393 519 q 222 429 268 472 q 281 619 244 524 q 365 793 317 714 q 471 920 413 872 q 596 968 529 968 q 658 945 643 968 q 672 892 672 922 q 671 871 672 878 q 669 853 669 864 q 721 882 708 864 q 733 919 733 900 q 697 981 733 961 q 603 1000 660 1000 q 424 951 506 1000 q 276 818 342 901 q 163 633 210 735 q 92 424 117 531 q 68 222 68 317 q 96 49 68 128 q 186 -75 124 -29 q 351 -121 249 -121 m 358 -76 q 274 -49 307 -76 q 223 20 240 -22 q 199 109 206 63 q 192 194 192 156 q 213 330 192 267 q 284 433 235 393 q 417 472 333 472 q 502 450 463 472 q 566 381 542 428 q 590 258 590 333 q 574 140 590 199 q 528 32 558 81 q 454 -47 497 -17 q 358 -76 411 -76 "},"7":{"ha":560,"x_min":82,"x_max":681,"o":"m 132 -121 q 186 -103 151 -121 q 243 -37 221 -85 q 230 -17 233 -31 q 226 15 226 -3 q 247 147 226 76 q 297 288 268 218 q 350 415 326 358 q 410 414 385 414 q 456 414 436 414 q 516 433 489 414 q 565 485 543 451 q 549 482 557 483 q 521 481 540 481 q 454 483 486 481 q 383 488 422 486 q 497 714 440 611 q 606 893 554 817 q 649 949 626 917 q 681 997 671 981 q 575 976 638 983 q 447 969 513 969 q 342 974 385 969 q 266 985 300 978 q 193 997 232 992 q 175 939 175 964 q 206 892 175 911 q 317 874 236 874 q 391 876 349 874 q 474 880 433 878 q 540 882 515 882 q 430 697 493 799 q 311 492 367 596 q 294 492 303 492 q 278 492 286 492 q 188 486 233 492 q 113 462 143 481 q 82 401 83 443 q 140 408 106 406 q 210 413 175 411 q 271 415 246 415 q 178 220 221 314 q 110 54 136 126 q 85 -58 85 -18 q 99 -105 85 -89 q 132 -121 114 -121 "},"8":{"ha":732,"x_min":40,"x_max":651,"o":"m 283 -121 q 449 -85 369 -121 q 578 15 528 -50 q 628 169 628 81 q 602 288 628 233 q 536 390 576 342 q 453 485 496 439 q 552 574 507 528 q 624 676 597 621 q 651 799 651 731 q 594 948 651 897 q 442 999 536 999 q 322 976 382 999 q 224 903 263 953 q 185 769 185 853 q 207 654 185 707 q 265 556 229 601 q 340 467 301 510 q 233 388 286 426 q 137 306 181 349 q 67 215 93 264 q 40 107 40 167 q 52 33 40 72 q 92 -42 64 -7 q 166 -99 119 -78 q 283 -121 213 -121 m 297 -67 q 215 -45 254 -67 q 150 17 175 -24 q 125 111 125 57 q 161 231 125 178 q 255 333 197 285 q 376 426 313 381 q 472 304 431 367 q 514 164 514 242 q 481 42 514 94 q 398 -38 447 -10 q 297 -67 349 -67 m 417 526 q 330 647 367 583 q 293 788 293 710 q 317 890 293 851 q 377 944 342 928 q 443 961 413 961 q 533 922 494 961 q 571 800 571 882 q 526 648 571 714 q 417 526 482 582 "},"9":{"ha":786,"x_min":119,"x_max":763,"o":"m 254 -121 q 428 -73 349 -121 q 569 55 507 -25 q 674 234 631 135 q 740 438 717 333 q 763 636 763 542 q 734 819 763 736 q 640 951 706 901 q 467 1000 575 1000 q 285 953 364 1000 q 163 824 207 906 q 119 642 119 743 q 156 482 119 544 q 252 390 192 419 q 383 360 313 360 q 509 383 447 360 q 614 450 571 407 q 563 260 596 356 q 485 86 531 165 q 383 -41 439 7 q 260 -89 326 -89 q 196 -64 211 -89 q 181 -8 181 -39 q 181 10 181 3 q 182 26 182 17 q 133 -1 146 15 q 121 -37 121 -18 q 159 -101 121 -81 q 254 -121 197 -121 m 422 407 q 333 431 375 407 q 266 504 292 454 q 240 633 240 554 q 256 749 240 692 q 299 852 271 806 q 369 927 328 899 q 461 956 410 956 q 548 928 514 956 q 601 855 582 900 q 627 756 619 810 q 635 651 635 703 q 584 475 635 543 q 422 407 533 407 "}," ":{"ha":361,"x_min":0,"x_max":0,"o":""},"A":{"ha":822,"x_min":-24,"x_max":796,"o":"m 24 -121 q 138 131 76 3 q 265 379 200 258 q 359 367 308 374 q 471 351 410 361 q 453 242 460 294 q 447 144 447 189 q 473 9 447 60 q 556 -42 499 -42 q 690 29 625 -42 q 796 211 754 100 l 782 225 q 682 69 728 119 q 600 19 636 19 q 560 49 572 19 q 549 131 549 78 q 560 272 549 192 q 592 442 572 353 q 636 618 613 532 q 684 776 660 704 q 730 897 708 849 q 765 956 751 944 q 726 988 744 976 q 692 1000 707 1000 q 625 961 665 1000 q 517 842 582 921 q 378 663 453 764 q 233 456 304 563 q 182 463 207 460 q 133 465 157 465 q 42 449 81 465 q -11 393 4 433 l 38 393 q 100 392 64 393 q 188 386 136 390 q 81 209 129 294 q 5 57 33 124 q -24 -49 -24 -10 q -15 -83 -24 -62 q 24 -121 -7 -103 m 481 400 q 395 422 442 410 q 301 443 349 433 q 429 655 367 558 q 548 819 492 751 q 647 913 604 886 q 588 764 619 849 q 529 585 557 679 q 481 400 501 492 "},"B":{"ha":844,"x_min":26,"x_max":783,"o":"m 181 -121 q 322 -105 243 -121 q 482 -56 401 -89 q 631 25 563 -24 q 740 139 699 74 q 782 285 782 204 q 771 354 782 318 q 727 423 760 390 q 631 479 694 456 q 465 508 568 503 q 575 535 519 517 q 678 584 631 553 q 754 663 725 615 q 783 779 783 711 q 751 895 783 851 q 669 962 719 939 q 564 992 619 985 q 463 1000 508 1000 q 278 976 354 1000 q 133 924 203 953 q 142 908 133 917 q 160 892 150 899 q 178 886 171 886 q 210 901 188 886 q 272 933 232 915 q 369 961 311 951 q 295 799 333 890 q 221 611 257 707 q 155 428 185 515 q 104 275 125 340 q 75 182 83 210 q 63 142 69 164 q 56 103 56 119 q 79 56 56 75 q 138 36 103 36 q 200 257 169 143 q 263 483 231 371 q 313 484 286 483 q 367 485 340 485 q 488 478 426 485 q 601 454 549 472 q 685 401 653 436 q 717 310 717 367 q 676 188 717 247 q 560 82 635 129 q 385 8 486 35 q 164 -19 283 -19 q 68 -12 93 -19 q 33 -6 43 -6 q 26 -10 26 -6 q 65 -95 26 -69 q 181 -121 104 -121 m 271 515 q 348 756 307 639 q 439 969 389 872 q 452 971 446 971 q 465 971 458 971 q 578 956 525 971 q 666 901 632 940 q 700 790 700 863 q 662 663 700 714 q 561 579 624 611 q 423 533 499 547 q 271 515 347 518 "},"C":{"ha":742,"x_min":31,"x_max":735,"o":"m 304 -121 q 478 -76 397 -121 q 624 45 558 -31 q 735 211 689 121 l 715 225 q 618 78 679 146 q 484 -32 557 10 q 338 -74 411 -74 q 224 -35 268 -74 q 161 65 181 3 q 142 194 142 126 q 170 393 142 289 q 247 597 199 497 q 356 778 296 697 q 481 908 417 860 q 606 957 546 957 q 658 940 642 957 q 674 894 674 922 q 659 827 674 865 q 621 749 644 789 q 572 674 597 710 q 525 615 546 639 q 545 590 533 597 q 568 583 557 583 q 626 614 597 583 q 678 691 654 644 q 715 788 701 738 q 729 879 729 839 q 694 972 729 944 q 601 999 658 999 q 441 953 522 999 q 286 830 360 908 q 155 651 213 751 q 64 439 97 550 q 31 218 31 328 q 58 56 31 133 q 145 -72 85 -22 q 304 -121 206 -121 "},"D":{"ha":907,"x_min":78,"x_max":893,"o":"m 226 -121 q 420 -83 324 -121 q 601 24 517 -44 q 752 185 686 93 q 856 388 818 278 q 893 619 893 499 q 858 813 893 726 q 748 949 824 899 q 547 1000 672 1000 q 379 974 458 1000 q 240 907 300 949 q 145 816 179 865 q 111 718 111 767 q 130 663 111 686 q 194 640 149 640 q 190 663 192 650 q 188 692 188 675 q 229 829 188 768 q 343 926 271 890 q 506 963 415 963 q 654 928 590 963 q 754 820 718 893 q 790 635 790 747 q 760 428 790 532 q 676 233 731 325 q 551 69 622 140 q 397 -44 479 -3 q 225 -85 314 -85 q 198 -83 211 -85 q 165 -79 185 -82 q 221 143 188 21 q 294 394 254 265 q 378 643 335 522 q 465 864 422 764 q 426 878 446 878 q 388 862 406 878 q 356 824 369 846 q 332 780 342 801 q 318 747 322 758 q 290 669 308 721 q 250 550 272 618 q 203 403 228 482 q 156 244 179 325 q 112 85 132 163 q 78 -58 92 8 q 144 -109 106 -97 q 226 -121 183 -121 "},"E":{"ha":692,"x_min":-21,"x_max":683,"o":"m 250 -121 q 424 -77 343 -121 q 569 42 504 -33 q 683 211 635 117 l 664 225 q 567 78 628 146 q 433 -32 506 10 q 286 -74 360 -74 q 182 -42 221 -74 q 126 35 143 -11 q 108 128 108 82 q 147 276 108 201 q 253 407 185 351 q 415 478 322 463 q 350 579 365 521 q 335 688 335 638 q 358 827 335 764 q 425 928 381 890 q 533 967 469 967 q 607 943 582 967 q 632 876 632 919 q 598 774 632 822 q 515 683 564 726 q 538 652 524 665 q 567 639 551 639 q 616 669 590 639 q 660 749 642 700 q 678 849 678 797 q 638 960 678 921 q 519 999 597 999 q 372 958 438 999 q 270 851 307 917 q 233 711 233 785 q 259 594 233 653 q 339 492 285 536 q 199 452 264 485 q 84 369 133 419 q 7 257 35 318 q -21 132 -21 196 q 12 6 -21 64 q 106 -86 44 -51 q 250 -121 167 -121 "},"F":{"ha":669,"x_min":92,"x_max":853,"o":"m 211 -121 q 234 50 213 -43 q 286 250 256 143 q 301 303 292 267 q 324 379 311 339 q 344 449 336 419 q 469 452 422 450 q 542 458 515 454 q 583 472 568 463 q 608 497 597 481 q 497 507 558 499 q 365 519 435 515 q 413 665 389 592 q 458 802 436 738 q 499 913 481 867 q 613 898 563 907 q 696 889 664 889 q 767 908 732 889 q 853 986 801 928 q 803 976 828 979 q 750 972 779 972 q 616 983 685 972 q 474 993 547 993 q 281 962 368 993 q 143 876 194 931 q 92 749 92 821 q 114 677 92 706 q 183 640 136 649 q 169 694 174 668 q 165 750 165 719 q 183 846 165 808 q 250 901 201 883 q 388 919 299 919 q 415 919 401 919 q 442 917 428 918 q 360 730 401 832 q 281 521 319 628 q 190 510 231 519 q 126 480 150 500 q 99 424 101 460 q 171 434 143 431 q 217 440 199 438 q 253 443 236 442 q 190 271 221 357 q 138 112 158 185 q 117 -11 117 39 q 132 -86 117 -57 q 211 -121 147 -115 "},"G":{"ha":769,"x_min":31,"x_max":746,"o":"m 290 -121 q 438 -74 372 -121 q 553 43 503 -26 q 545 10 547 25 q 543 -21 543 -6 q 552 -65 543 -46 q 578 -98 561 -85 q 618 -121 596 -111 q 615 -67 617 -93 q 613 -12 613 -40 q 616 43 613 13 q 628 113 619 74 q 654 205 638 153 q 697 326 671 257 l 707 371 q 636 394 676 379 q 553 423 596 410 q 472 436 511 436 q 412 420 436 436 q 378 364 388 404 q 424 365 404 364 q 463 365 444 365 q 522 362 490 365 q 606 347 554 358 q 577 206 600 279 q 517 69 554 132 q 431 -34 479 6 q 328 -74 382 -74 q 194 -2 247 -74 q 142 196 142 69 q 170 393 142 289 q 247 597 199 497 q 356 778 296 697 q 481 908 417 860 q 606 957 546 957 q 670 936 651 957 q 689 883 689 915 q 670 801 689 846 q 626 721 651 757 q 581 671 600 685 q 601 646 589 653 q 624 639 613 639 q 685 669 657 639 q 729 747 713 700 q 746 842 746 793 q 732 919 746 883 q 686 976 718 954 q 601 999 654 999 q 441 953 522 999 q 286 828 360 907 q 155 650 213 750 q 64 440 97 550 q 31 224 31 331 q 65 38 31 115 q 159 -80 100 -39 q 290 -121 218 -121 "},"H":{"ha":857,"x_min":76,"x_max":878,"o":"m 76 -121 q 128 -100 99 -121 q 172 -32 158 -79 q 190 28 176 -18 q 225 140 204 74 q 271 285 246 206 q 321 444 296 364 q 404 450 363 449 q 503 453 446 451 q 644 454 560 454 q 601 308 621 376 q 571 197 582 239 q 546 78 554 133 q 538 -12 538 24 q 558 -90 538 -65 q 633 -121 579 -115 q 631 -99 632 -111 q 631 -71 631 -87 q 641 64 631 -19 q 676 265 651 147 q 696 356 685 308 q 719 456 707 404 q 776 462 747 456 q 836 500 806 468 q 785 502 811 500 q 732 506 760 504 q 783 694 757 600 q 833 869 808 789 q 878 1000 858 949 q 842 986 858 1000 q 817 956 826 972 q 801 928 807 939 q 766 837 789 901 q 716 686 743 772 q 661 511 689 600 q 549 520 608 517 q 425 524 490 524 q 384 523 404 524 q 344 521 364 522 l 453 874 q 460 903 457 888 q 464 933 464 918 q 451 979 464 958 q 400 1000 438 1000 q 313 976 361 1000 q 222 913 265 953 q 150 826 178 874 q 122 732 122 779 q 141 676 122 699 q 206 653 160 653 q 201 675 203 663 q 199 700 199 688 q 213 779 199 735 q 251 865 226 824 q 306 934 275 907 q 371 961 338 961 q 387 957 383 961 q 390 942 390 953 q 383 898 390 921 q 371 860 376 875 q 344 781 357 819 q 318 706 331 742 q 294 637 306 671 q 273 572 283 603 q 253 511 263 540 q 170 481 201 501 q 138 426 139 461 q 184 432 161 429 q 229 436 207 435 q 167 239 192 322 q 124 92 142 156 q 96 -22 107 29 q 76 -121 85 -72 "},"I":{"ha":638,"x_min":-53,"x_max":761,"o":"m -53 -122 q 48 -108 -3 -112 q 151 -101 99 -103 q 256 -99 203 -100 q 365 -99 310 -99 q 438 -89 394 -99 q 522 -39 482 -79 q 375 -27 457 -37 q 221 -12 293 -17 q 288 75 260 14 q 338 225 315 136 q 367 358 351 281 q 400 520 383 435 q 432 685 417 606 q 458 827 447 765 q 475 918 469 889 q 545 919 507 919 q 626 919 583 919 q 691 927 654 919 q 761 968 728 935 q 669 980 729 974 q 538 992 610 986 q 397 997 467 997 q 190 970 257 997 q 114 890 124 943 q 209 906 165 900 q 303 914 253 911 q 426 918 354 917 q 395 809 413 878 q 358 654 378 740 q 317 474 339 568 q 272 290 294 381 q 224 122 249 200 q 174 -11 199 43 q 65 -18 115 -11 q -16 -48 15 -25 q -53 -122 -47 -71 "},"J":{"ha":571,"x_min":-43,"x_max":708,"o":"m 107 -119 q 187 -103 149 -119 q 262 -42 225 -86 q 335 85 299 1 q 397 253 368 158 q 451 446 426 347 q 494 632 476 544 q 522 781 513 719 q 532 861 532 843 q 525 896 532 876 q 503 926 518 915 q 549 927 525 926 q 601 928 574 928 q 658 935 624 928 q 708 968 693 942 q 635 980 683 974 q 531 992 588 986 q 418 997 474 997 q 252 972 306 997 q 192 899 199 946 q 274 915 236 910 q 358 924 311 921 q 472 926 404 926 q 444 788 463 871 q 404 606 426 704 q 358 409 382 508 q 309 223 333 310 q 263 75 285 136 q 203 -40 232 -10 q 139 -71 175 -71 q 74 -36 96 -71 q 51 61 51 -1 q 64 164 51 108 q 101 283 76 219 q 63 294 79 294 q 6 258 31 294 q -31 169 -18 222 q -43 61 -43 115 q -19 -56 -43 -17 q 40 -107 4 -94 q 107 -119 75 -119 "},"K":{"ha":819,"x_min":42,"x_max":840,"o":"m 688 -121 q 732 -107 711 -121 q 763 -75 753 -93 q 611 63 674 -1 q 502 188 549 126 q 416 313 456 249 q 335 447 376 376 q 453 529 388 482 q 588 630 519 576 q 713 738 656 683 q 805 844 769 793 q 840 939 840 896 q 838 971 840 950 q 828 1000 835 992 q 719 858 785 932 q 583 718 654 785 q 449 601 511 651 q 380 547 411 571 q 329 496 349 524 l 446 874 q 453 903 450 888 q 457 933 457 918 q 444 979 457 958 q 393 1000 431 1000 q 306 976 354 1000 q 215 913 258 953 q 143 826 171 874 q 115 732 115 779 q 134 676 115 699 q 199 653 153 653 q 192 700 192 674 q 206 779 192 735 q 244 865 219 824 q 299 934 268 907 q 364 961 331 961 q 390 952 383 961 q 397 928 397 943 q 390 891 397 911 q 379 860 383 871 q 266 528 314 669 q 183 286 218 388 q 123 114 149 185 q 78 -7 97 43 q 42 -96 60 -57 q 90 -93 65 -96 q 135 -77 114 -90 q 165 -32 156 -64 l 300 404 q 362 281 325 350 q 442 141 399 211 q 531 11 486 71 q 617 -85 576 -49 q 688 -121 657 -121 "},"L":{"ha":792,"x_min":-103,"x_max":786,"o":"m 551 -121 q 638 -94 601 -121 q 697 -3 675 -67 q 651 -19 675 -14 q 599 -25 628 -25 q 486 -12 547 -25 q 360 22 425 1 q 231 61 294 42 q 306 201 271 122 q 372 367 340 279 q 431 539 403 454 q 451 539 446 539 q 457 539 456 539 q 604 572 542 540 q 707 652 667 603 q 767 756 747 701 q 786 858 786 811 q 764 944 786 914 q 710 988 742 975 q 651 1000 679 1000 q 556 967 599 1000 q 476 875 513 933 q 410 742 440 817 q 353 585 381 668 q 296 640 318 604 q 274 728 274 675 q 278 774 274 747 q 292 814 282 800 q 246 797 265 814 q 216 754 226 779 q 206 704 206 729 q 242 617 206 657 q 343 556 279 576 q 288 381 315 468 q 231 215 260 293 q 169 79 203 138 q 78 100 122 92 q -1 108 35 108 q -80 90 -57 108 q -103 47 -103 72 q -87 -3 -103 25 q -40 -53 -71 -32 q 36 -74 -8 -74 q 118 -52 81 -74 q 190 8 156 -31 q 317 -49 253 -19 q 441 -100 381 -79 q 551 -121 501 -121 m 31 -33 q -40 -6 -12 -33 q -67 46 -67 22 q -57 65 -67 58 q -21 72 -47 72 q 53 60 13 72 q 138 31 94 49 q 88 -17 115 0 q 31 -33 61 -33 m 439 565 q 509 763 475 672 q 581 910 543 854 q 661 965 618 965 q 696 951 681 965 q 711 896 711 936 q 692 799 711 854 q 638 690 674 743 q 552 601 603 636 q 439 565 501 565 "},"M":{"ha":1060,"x_min":-24,"x_max":1032,"o":"m -24 -121 q 53 -68 14 -121 q 142 99 92 -15 q 268 395 193 213 q 454 836 343 578 q 456 804 456 822 q 457 758 457 786 q 453 626 457 703 q 446 465 450 549 q 438 303 442 382 q 435 168 435 225 q 447 43 435 88 q 496 -1 458 -1 q 506 0 503 -1 q 517 4 508 1 q 564 133 533 56 q 634 302 594 211 q 717 484 674 393 q 805 653 761 575 q 889 783 849 732 q 792 390 835 579 q 750 35 750 200 q 758 -56 750 -22 q 792 -106 767 -90 q 864 -121 817 -121 q 853 -84 858 -97 q 846 -54 849 -71 q 843 -7 843 -37 q 854 158 843 60 q 884 367 865 256 q 925 585 903 478 q 969 778 947 693 q 1005 898 988 849 q 1032 972 1022 947 q 988 982 1007 982 q 951 967 965 982 q 918 925 938 953 q 861 836 900 897 q 774 692 822 775 q 676 513 725 608 q 585 322 626 418 q 522 142 544 226 q 532 314 525 219 q 545 506 539 408 q 551 689 551 603 q 535 882 551 815 q 488 974 519 949 q 411 1000 457 1000 q 317 981 365 1000 q 230 929 269 963 q 165 854 190 896 q 140 767 140 813 q 148 717 140 744 q 172 672 156 690 q 214 653 188 653 q 212 672 213 663 q 211 696 211 682 q 230 811 211 753 q 287 909 249 869 q 383 949 325 949 q 422 938 413 949 q 431 913 431 928 q 426 881 431 897 q 417 856 421 865 q 256 498 332 667 q 120 197 181 329 q 22 -19 60 64 q -24 -121 -15 -101 "},"N":{"ha":889,"x_min":64,"x_max":921,"o":"m 64 -121 q 111 -99 89 -121 q 158 -21 133 -78 q 216 141 183 36 q 296 412 249 246 q 410 818 343 578 q 426 706 417 774 q 448 558 436 639 q 472 394 460 478 q 497 232 485 310 q 519 91 508 154 q 536 -8 529 28 q 574 -96 547 -71 q 644 -121 601 -121 q 659 19 646 -67 q 695 208 672 104 q 747 424 718 313 q 807 644 776 536 q 867 844 838 751 q 921 1000 897 936 q 865 975 890 1000 q 833 932 840 950 q 812 872 828 919 q 774 752 796 824 q 728 595 753 681 q 680 420 703 510 q 638 248 657 331 q 610 100 619 165 q 597 185 604 133 q 582 298 590 236 q 565 428 574 360 q 549 567 557 497 q 528 728 539 650 q 500 867 517 806 q 456 965 483 929 q 388 1000 429 1000 q 299 976 347 1000 q 208 913 251 953 q 138 826 165 874 q 110 732 110 779 q 128 676 110 699 q 193 653 147 653 q 186 701 186 674 q 199 777 186 735 q 233 858 211 819 q 284 923 254 897 q 347 949 314 949 q 363 940 358 949 q 368 917 368 931 q 365 884 368 901 q 358 860 361 867 q 249 492 296 647 q 166 223 201 336 q 106 28 131 110 q 64 -121 81 -54 "},"O":{"ha":865,"x_min":29,"x_max":836,"o":"m 296 -121 q 437 -88 363 -121 q 582 9 511 -56 q 710 168 653 74 q 802 387 768 263 q 836 663 836 511 q 831 749 836 703 q 813 837 826 796 q 777 904 800 878 q 718 931 754 931 q 640 903 683 931 q 558 834 597 876 q 492 747 518 792 q 467 664 467 701 q 483 623 467 642 q 533 596 499 604 q 563 685 542 635 q 610 783 583 736 q 667 862 638 831 q 721 893 696 893 q 758 861 744 893 q 778 785 772 829 q 783 701 783 740 q 762 495 783 603 q 701 287 740 388 q 606 104 661 186 q 483 -26 551 22 q 338 -74 415 -74 q 231 -35 272 -74 q 170 67 189 3 q 151 204 151 131 q 182 414 151 306 q 265 623 213 522 q 385 805 318 724 q 525 934 451 886 q 671 982 599 982 q 674 982 672 982 q 688 982 676 982 q 651 994 672 990 q 604 999 631 999 q 443 953 525 999 q 288 828 361 907 q 156 650 214 750 q 63 440 97 550 q 29 224 29 331 q 63 42 29 119 q 157 -78 97 -36 q 296 -121 217 -121 "},"P":{"ha":732,"x_min":25,"x_max":814,"o":"m 121 -121 q 191 129 153 -10 q 271 411 229 268 l 285 411 q 354 415 307 411 q 462 430 401 418 q 583 463 522 442 q 697 520 644 485 q 782 608 750 556 q 814 732 814 660 q 782 849 814 799 q 697 933 750 899 q 581 983 644 967 q 457 1000 518 1000 q 342 988 399 1000 q 235 957 285 975 q 150 924 186 939 q 158 908 150 917 q 177 892 167 899 q 193 886 188 886 q 226 901 201 886 q 292 934 251 915 q 386 963 333 953 q 288 731 332 842 q 206 508 244 619 q 128 279 167 397 q 44 25 89 161 q 32 -15 39 7 q 25 -51 25 -36 q 56 -101 25 -82 q 121 -121 86 -121 m 276 433 q 369 728 321 586 q 469 971 418 869 q 592 948 535 971 q 685 878 650 925 q 721 756 721 831 q 681 617 721 676 q 575 519 640 558 q 431 458 510 479 q 276 433 353 438 "},"Q":{"ha":963,"x_min":49,"x_max":881,"o":"m 717 -165 q 765 -158 739 -165 q 815 -126 790 -150 q 853 -53 839 -101 q 817 -64 832 -58 q 772 -69 803 -69 q 665 -51 715 -69 q 567 -6 614 -32 q 692 125 635 47 q 791 294 749 203 q 857 480 833 385 q 881 663 881 575 q 806 909 881 818 q 599 1000 732 1000 q 426 958 508 1000 q 274 845 343 917 q 155 681 206 774 q 76 484 104 588 q 49 276 49 381 q 58 183 49 226 q 90 111 67 139 q 156 83 113 83 q 147 142 150 113 q 144 200 144 171 q 166 401 144 296 q 228 606 188 507 q 324 786 268 706 q 450 915 381 867 q 600 963 519 963 q 740 892 697 963 q 783 707 783 821 q 766 538 783 633 q 716 344 749 443 q 635 160 683 246 q 525 18 588 74 q 415 80 469 53 q 304 107 361 107 q 226 83 249 107 q 203 35 203 58 q 209 3 203 24 q 231 -37 215 -17 q 278 -73 247 -58 q 356 -87 308 -87 q 426 -78 392 -87 q 494 -51 461 -68 q 599 -130 544 -94 q 717 -165 653 -165 m 356 -53 q 283 -36 308 -53 q 249 1 258 -19 q 239 33 239 21 q 249 58 239 44 q 290 71 258 71 q 378 42 336 71 q 464 -24 421 14 q 412 -45 439 -37 q 356 -53 385 -53 "},"R":{"ha":801,"x_min":22,"x_max":807,"o":"m 644 -168 q 685 -154 664 -168 q 715 -122 707 -140 q 564 19 626 -50 q 456 158 501 89 q 371 296 410 226 q 289 439 332 365 q 360 442 313 439 q 465 456 407 446 q 583 487 524 467 q 694 540 643 507 q 776 623 744 574 q 807 740 807 672 q 775 859 807 810 q 691 940 743 908 q 577 985 639 971 q 456 1000 515 1000 q 335 988 393 1000 q 228 957 276 975 q 143 924 179 939 q 151 908 143 917 q 170 892 160 899 q 186 886 181 886 q 222 902 196 886 q 292 937 249 918 q 393 965 335 956 q 313 778 350 868 q 241 599 275 688 q 175 419 207 510 q 110 232 143 329 q 42 25 76 135 q 29 -15 36 7 q 22 -51 22 -36 q 51 -101 22 -82 q 114 -121 79 -121 q 182 117 146 -14 q 257 385 218 249 q 319 253 282 326 q 399 106 356 179 q 488 -30 443 32 q 573 -130 532 -92 q 644 -168 614 -168 m 279 461 q 371 741 324 607 q 465 971 418 875 q 585 952 528 971 q 678 890 642 933 q 714 769 714 846 q 675 635 714 692 q 572 542 636 579 q 431 485 508 506 q 279 461 354 465 "},"S":{"ha":744,"x_min":-8,"x_max":683,"o":"m 282 -121 q 410 -101 346 -121 q 527 -44 474 -82 q 613 48 581 -7 q 644 175 644 103 q 615 295 644 246 q 538 381 585 344 q 437 447 490 417 q 336 506 383 476 q 259 573 289 536 q 229 661 229 610 q 252 757 229 704 q 317 858 275 810 q 414 936 358 906 q 535 967 469 967 q 596 951 579 967 q 613 907 613 935 q 600 838 613 876 q 572 760 588 800 q 543 682 556 719 q 531 615 531 644 q 541 577 531 593 q 576 556 551 561 q 624 644 599 592 q 666 753 649 696 q 683 861 683 811 q 651 960 683 921 q 538 1000 619 1000 q 374 965 447 1000 q 249 872 301 929 q 169 751 197 815 q 142 629 142 688 q 172 522 142 567 q 251 444 203 478 q 353 379 299 410 q 455 315 407 349 q 533 239 503 282 q 564 136 564 196 q 526 24 564 69 q 428 -44 488 -21 q 306 -67 368 -67 q 186 -40 233 -67 q 116 32 139 -12 q 93 128 93 76 q 113 225 93 176 q 169 314 132 274 q 90 297 132 314 q 20 240 49 281 q -8 128 -8 200 q 33 -11 -8 44 q 140 -94 74 -67 q 282 -121 207 -121 "},"T":{"ha":681,"x_min":96,"x_max":882,"o":"m 260 -121 q 258 -106 258 -114 q 258 -90 258 -97 q 267 4 258 -44 q 292 111 276 53 q 328 243 308 169 q 444 625 386 456 q 546 906 501 794 q 579 906 563 906 q 613 905 596 906 q 644 904 629 904 q 774 915 713 904 q 882 969 835 926 q 749 978 815 971 q 606 992 682 985 q 435 1000 531 1000 q 264 989 339 1000 q 144 951 189 978 q 96 878 100 925 q 208 894 157 889 q 324 901 260 899 q 485 906 389 904 q 408 729 447 826 q 330 532 368 632 q 258 340 292 432 q 201 181 225 249 q 167 74 183 129 q 150 -22 150 18 q 174 -93 150 -65 q 260 -121 197 -121 "},"U":{"ha":981,"x_min":35,"x_max":988,"o":"m 751 -137 q 794 -130 771 -137 q 843 -104 817 -122 q 758 -71 783 -104 q 732 58 732 -37 q 747 213 732 124 q 788 399 763 301 q 842 592 813 497 q 900 767 871 688 q 953 897 929 846 q 988 956 976 947 q 949 988 968 976 q 918 1000 929 1000 q 871 956 896 1000 q 820 838 846 911 q 769 673 794 764 q 719 488 743 582 q 676 311 696 394 q 638 190 663 256 q 576 67 613 125 q 493 -28 540 8 q 389 -65 446 -65 q 299 -19 326 -65 q 272 90 272 26 q 299 258 272 163 q 357 454 325 353 q 399 590 379 522 q 431 719 418 657 q 443 832 443 781 q 410 954 443 908 q 300 1000 376 1000 q 198 977 246 1000 q 113 917 150 954 q 56 836 76 881 q 35 749 35 792 q 56 681 35 710 q 131 653 78 653 q 122 683 125 665 q 119 721 119 701 q 128 796 119 754 q 156 875 138 838 q 201 937 174 913 q 267 961 229 961 q 344 839 344 961 q 327 697 344 776 q 284 529 310 617 q 232 356 258 442 q 188 197 206 271 q 171 68 171 122 q 217 -67 171 -12 q 351 -121 263 -121 q 526 -49 453 -121 q 651 136 600 22 q 642 62 646 94 q 639 10 639 29 q 669 -94 639 -50 q 751 -137 700 -137 "},"V":{"ha":878,"x_min":35,"x_max":897,"o":"m 292 -121 q 415 -74 349 -121 q 550 53 482 -26 q 681 231 618 132 q 792 434 743 329 q 869 636 840 539 q 897 810 897 733 q 869 926 897 889 q 813 964 842 964 q 773 949 794 964 q 732 900 751 933 q 788 858 767 890 q 808 756 808 825 q 783 589 808 679 q 717 405 758 499 q 623 225 675 311 q 516 70 571 139 q 410 -38 461 1 q 319 -78 358 -78 q 288 -62 296 -78 q 281 -24 281 -47 q 299 92 281 24 q 344 240 317 160 q 397 408 371 321 q 442 584 424 496 q 460 753 460 672 q 417 933 460 865 q 289 1000 375 1000 q 192 978 238 1000 q 110 919 146 956 q 55 839 75 882 q 35 753 35 796 q 57 683 35 713 q 133 653 79 653 q 124 687 128 668 q 121 728 121 706 q 128 803 121 763 q 153 879 136 843 q 198 938 171 915 q 264 961 225 961 q 323 934 306 961 q 344 863 340 907 q 347 767 347 818 q 330 593 347 683 q 286 413 313 503 q 233 242 260 324 q 190 96 207 161 q 172 -10 172 31 q 194 -79 172 -56 q 244 -112 215 -103 q 292 -121 272 -121 "},"W":{"ha":1258,"x_min":35,"x_max":1276,"o":"m 292 -121 q 434 -56 360 -121 q 579 108 508 8 q 559 37 567 69 q 551 -17 551 4 q 570 -76 551 -53 q 617 -110 589 -99 q 671 -121 644 -121 q 794 -74 728 -121 q 929 53 861 -26 q 1060 231 997 132 q 1171 434 1122 329 q 1248 636 1219 539 q 1276 810 1276 733 q 1249 926 1276 889 q 1192 964 1221 964 q 1152 949 1174 964 q 1111 900 1131 933 q 1167 858 1146 890 q 1188 756 1188 825 q 1163 589 1188 679 q 1096 405 1138 499 q 1002 225 1054 311 q 895 70 950 139 q 789 -38 840 1 q 699 -78 738 -78 q 667 -62 674 -78 q 660 -19 660 -46 q 674 89 660 32 q 710 203 689 146 q 753 310 732 260 q 796 413 778 367 q 814 481 814 458 q 795 525 814 501 q 731 549 776 549 q 702 439 725 503 q 645 304 679 375 q 570 166 611 233 q 485 43 529 99 q 399 -45 442 -12 q 322 -78 357 -78 q 289 -64 297 -78 q 281 -24 281 -50 q 293 69 281 17 q 326 185 306 122 q 368 318 346 249 q 431 538 403 425 q 460 753 460 651 q 417 933 460 865 q 289 1000 375 1000 q 192 978 238 1000 q 110 919 146 956 q 55 839 75 882 q 35 753 35 796 q 57 683 35 713 q 133 653 79 653 q 121 728 121 682 q 128 803 121 763 q 153 879 136 843 q 198 938 171 915 q 264 961 225 961 q 323 934 306 961 q 344 863 340 907 q 347 767 347 818 q 333 613 347 693 q 296 451 318 532 q 250 296 274 371 q 196 119 219 199 q 172 -10 172 39 q 185 -66 172 -44 q 217 -99 197 -87 q 256 -116 236 -111 q 292 -121 276 -121 "},"X":{"ha":919,"x_min":35,"x_max":906,"o":"m 35 -156 q 126 -67 65 -131 q 263 85 186 -3 q 422 275 340 174 q 435 143 426 213 q 465 14 444 74 q 521 -83 485 -46 q 615 -121 557 -121 q 717 -83 671 -121 q 808 30 763 -44 q 906 211 853 104 l 889 225 q 754 11 814 92 q 653 -69 694 -69 q 594 -30 618 -69 q 555 77 569 10 q 533 228 540 144 q 522 401 525 313 q 651 571 590 488 q 760 727 713 654 q 834 854 807 800 q 861 936 861 908 q 851 976 861 956 q 829 1003 840 996 q 710 765 788 899 q 521 478 632 632 q 519 640 519 563 q 513 783 518 718 q 490 897 507 849 q 441 973 474 946 q 354 1000 408 1000 q 256 977 303 1000 q 172 917 208 954 q 114 836 135 881 q 93 749 93 792 q 115 681 93 710 q 189 653 136 653 q 178 721 178 679 q 188 799 178 757 q 215 877 197 840 q 260 938 233 914 q 322 961 288 961 q 378 928 361 961 q 399 826 394 894 q 404 650 403 757 q 406 553 406 592 q 409 483 407 514 q 413 420 411 453 q 418 342 415 388 q 347 252 383 297 q 270 160 310 207 q 189 67 231 114 q 103 -29 147 19 q 68 -69 82 -51 q 47 -106 54 -86 q 35 -156 39 -125 "},"Y":{"ha":925,"x_min":32,"x_max":985,"o":"m 354 -260 q 494 -228 435 -260 q 594 -142 553 -196 q 666 -19 636 -87 q 717 124 696 49 q 756 269 738 199 q 813 503 789 407 q 857 665 838 599 q 895 779 876 731 q 935 869 914 828 q 985 956 956 910 q 943 988 965 976 q 907 1000 921 1000 q 863 968 885 1000 q 819 881 840 936 q 778 756 799 826 q 740 611 758 686 q 686 490 717 551 q 618 378 656 429 q 538 296 581 326 q 446 265 494 265 q 372 302 394 265 q 349 399 349 339 q 363 517 349 454 q 394 642 376 579 q 427 763 413 706 q 442 860 442 821 q 428 925 442 893 q 382 978 414 957 q 297 1000 350 1000 q 195 977 243 1000 q 110 917 147 954 q 53 836 74 881 q 32 749 32 792 q 53 681 32 710 q 128 653 75 653 q 119 683 122 665 q 117 721 117 701 q 126 797 117 756 q 153 875 135 838 q 200 937 172 913 q 267 961 228 961 q 328 929 311 961 q 346 853 346 897 q 331 746 346 806 q 299 622 317 686 q 266 493 281 557 q 251 375 251 429 q 286 256 251 303 q 403 210 321 210 q 576 278 503 210 q 704 453 649 347 q 672 291 686 367 q 646 168 657 215 q 622 78 638 129 q 585 -26 607 26 q 531 -124 563 -79 q 455 -197 499 -169 q 356 -225 411 -225 q 265 -191 296 -225 q 235 -100 235 -157 q 238 -65 235 -85 q 246 -25 240 -46 q 183 -66 203 -39 q 163 -129 163 -93 q 219 -226 163 -193 q 354 -260 275 -260 "},"Z":{"ha":876,"x_min":-35,"x_max":917,"o":"m 621 -121 q 708 -94 671 -121 q 767 -3 744 -67 q 721 -19 744 -14 q 668 -25 697 -25 q 508 0 597 -25 q 328 53 418 25 q 484 232 406 128 q 631 449 563 336 q 727 453 693 450 q 780 465 761 456 q 814 497 799 475 q 745 501 782 497 q 667 510 708 506 q 770 701 724 608 q 847 865 817 793 q 880 885 863 874 q 917 914 897 897 q 897 912 907 913 q 872 911 886 911 q 763 924 818 911 q 650 956 708 938 q 528 987 592 974 q 392 1000 465 1000 q 196 953 268 1000 q 124 813 124 906 q 141 745 124 771 q 199 713 158 719 q 196 726 197 719 q 194 742 194 733 q 193 761 193 750 q 214 881 193 838 q 270 943 235 925 q 350 961 306 961 q 487 936 413 961 q 628 885 561 911 q 686 863 658 874 q 736 847 714 853 q 671 701 714 788 q 574 518 628 614 q 542 520 558 519 q 511 521 526 521 q 409 513 456 521 q 335 483 363 504 q 304 424 307 463 l 351 431 q 442 441 404 438 q 532 446 481 444 q 398 241 468 340 q 261 72 328 142 q 160 98 208 88 q 72 108 113 108 q -10 87 14 108 q -35 36 -35 65 q -19 -15 -35 11 q 24 -58 -4 -40 q 93 -75 53 -75 q 179 -54 135 -75 q 271 3 224 -33 q 394 -53 332 -25 q 514 -101 456 -82 q 621 -121 572 -121 m 86 -37 q 24 -10 47 -37 q 1 39 1 17 q 12 63 1 53 q 53 72 22 72 q 126 60 85 72 q 214 28 168 47 q 147 -20 179 -3 q 86 -37 114 -37 "},"a":{"ha":606,"x_min":-36,"x_max":647,"o":"m 67 -65 q 167 -25 118 -65 q 276 96 217 15 q 274 74 275 85 q 272 56 272 64 q 297 -11 272 19 q 372 -42 321 -42 q 474 -10 422 -42 q 572 79 526 22 q 647 211 618 136 l 633 225 q 510 60 571 115 q 411 6 449 6 q 375 26 386 6 q 364 67 364 46 q 376 120 364 92 q 404 176 389 149 q 432 226 419 204 q 444 260 444 247 q 435 278 444 271 q 412 289 425 285 q 390 294 399 293 q 383 286 389 294 q 319 194 356 244 q 244 98 283 144 q 167 22 204 51 q 97 -8 129 -8 q 60 46 60 -8 q 76 138 60 86 q 122 242 93 189 q 189 340 151 294 q 267 412 226 385 q 346 439 307 439 q 399 416 383 439 q 414 361 414 393 q 412 337 414 350 q 407 313 410 324 q 456 325 438 313 q 475 372 475 338 q 439 448 475 419 q 349 476 403 476 q 240 449 294 476 q 135 374 185 421 q 47 272 86 328 q -14 158 8 215 q -36 50 -36 100 q -6 -37 -36 -8 q 67 -65 24 -65 "},"b":{"ha":547,"x_min":-14,"x_max":593,"o":"m 129 -101 q 258 -56 203 -101 q 350 53 313 -11 q 372 50 361 51 q 394 49 383 49 q 501 80 447 49 q 593 207 554 111 l 576 225 q 538 158 561 193 q 482 98 515 122 q 399 74 449 74 q 380 75 389 74 q 363 78 371 76 q 399 172 386 124 q 411 267 411 221 q 388 362 411 329 q 324 394 364 394 q 242 354 276 394 q 207 247 207 314 q 232 145 207 196 q 308 68 257 94 q 239 -16 282 17 q 156 -49 196 -49 q 97 -12 114 -49 q 79 82 79 25 q 92 202 79 140 q 122 312 106 264 q 146 375 138 360 q 241 455 194 404 q 328 567 288 506 q 399 691 368 628 q 446 810 429 754 q 463 904 463 865 q 452 963 463 933 q 418 992 442 992 q 347 944 390 992 q 256 816 304 896 q 159 638 207 736 q 72 435 111 539 q 10 238 33 332 q -14 74 -14 143 q 22 -54 -14 -7 q 129 -101 57 -101 m 322 96 q 271 161 286 119 q 256 240 256 203 q 272 312 256 283 q 308 340 288 340 q 341 313 328 340 q 354 236 354 285 q 346 163 354 199 q 322 96 338 128 m 161 429 q 222 588 185 508 q 298 734 260 668 q 367 840 336 800 q 410 879 399 879 q 414 877 413 879 q 415 868 415 875 q 401 806 415 847 q 363 713 388 764 q 306 608 338 661 q 237 507 274 554 q 161 429 200 460 "},"c":{"ha":449,"x_min":-7,"x_max":493,"o":"m 149 -78 q 283 -40 217 -78 q 406 63 350 -3 q 493 213 461 129 l 475 226 q 397 93 446 150 q 292 6 349 36 q 181 -25 236 -25 q 100 11 121 -25 q 79 90 79 47 q 101 200 79 142 q 156 311 122 258 q 230 397 190 364 q 307 431 269 431 q 331 422 325 431 q 338 396 338 413 q 322 331 338 365 q 286 286 307 297 q 326 265 303 265 q 377 296 358 265 q 396 367 396 326 q 375 436 396 403 q 297 469 354 469 q 190 438 244 469 q 92 354 136 407 q 20 235 47 301 q -7 100 -7 169 q 38 -33 -7 11 q 149 -78 82 -78 "},"d":{"ha":657,"x_min":-22,"x_max":757,"o":"m 82 -42 q 173 -8 125 -42 q 271 84 221 25 q 365 217 321 143 q 346 131 353 169 q 339 68 339 92 q 359 -2 339 32 q 431 -36 379 -36 q 530 -3 478 -36 q 628 85 582 29 q 700 213 674 142 l 683 225 q 615 115 654 161 q 538 44 576 69 q 469 19 499 19 q 442 39 446 19 q 438 97 438 58 q 460 251 438 167 q 520 425 483 335 q 597 603 557 515 q 674 765 638 690 q 734 892 711 839 q 757 968 757 946 q 749 991 757 982 q 729 1000 740 1000 q 678 965 707 1000 q 619 869 650 929 q 554 731 588 808 q 488 571 521 654 q 425 407 456 488 q 325 206 381 292 q 216 72 269 119 q 125 25 163 25 q 89 43 103 25 q 75 92 75 61 q 90 170 75 124 q 131 267 104 217 q 192 360 157 317 q 270 431 228 404 q 357 458 313 458 q 390 453 376 458 q 410 438 403 449 q 412 447 411 443 q 413 457 413 451 q 397 490 413 479 q 351 500 381 500 q 247 472 300 500 q 146 395 194 443 q 60 291 97 347 q 0 178 22 235 q -22 75 -22 121 q -6 8 -22 35 q 34 -30 10 -18 q 82 -42 58 -42 "},"e":{"ha":463,"x_min":-19,"x_max":507,"o":"m 150 -61 q 287 -27 219 -61 q 412 68 354 7 q 507 213 469 129 l 490 225 q 406 103 456 158 q 297 13 356 47 q 179 -21 239 -21 q 126 -11 147 -21 q 92 16 104 -1 q 74 54 79 33 q 69 96 69 75 q 71 119 69 107 q 75 146 72 132 q 195 174 135 151 q 306 233 256 197 q 388 316 357 269 q 419 415 419 363 q 392 483 419 467 q 333 500 365 500 q 210 462 272 500 q 95 363 147 424 q 12 232 43 301 q -19 100 -19 163 q 23 -15 -19 32 q 150 -61 65 -61 m 82 172 q 124 272 96 222 q 186 364 151 322 q 258 431 221 406 q 329 457 296 457 q 353 449 347 457 q 358 425 358 440 q 330 340 358 381 q 258 267 301 300 q 167 209 214 233 q 82 172 119 185 "},"f":{"ha":433,"x_min":-94,"x_max":547,"o":"m -18 -389 q 60 -346 22 -389 q 128 -232 97 -303 q 177 -75 158 -161 q 196 99 196 11 q 247 65 219 78 q 299 53 274 53 q 392 90 339 53 q 481 211 446 128 l 460 225 q 388 124 421 160 q 306 89 354 89 q 240 117 263 89 q 206 194 217 144 q 185 306 194 243 q 174 334 183 321 q 150 350 165 347 q 163 385 157 368 q 176 419 169 403 q 308 530 243 465 q 428 666 374 594 q 515 808 482 738 q 547 939 547 879 q 538 982 547 964 q 500 1000 529 1000 q 394 946 450 1000 q 281 799 339 892 q 169 591 224 707 q 67 351 114 475 q -17 108 19 226 q -74 -108 -53 -10 q -94 -267 -94 -206 q -81 -344 -94 -318 q -50 -380 -68 -371 q -18 -389 -32 -389 m 18 -322 q -8 -256 -8 -322 q 7 -131 -8 -208 q 50 44 22 -53 q 113 246 78 142 q 149 162 138 197 q 160 83 160 126 q 150 -14 160 40 q 125 -122 140 -68 q 91 -222 110 -176 q 53 -294 72 -267 q 18 -322 33 -322 m 199 476 q 296 692 246 594 q 392 848 346 789 q 474 907 438 907 q 493 888 493 907 q 457 794 493 860 q 355 644 421 728 q 199 476 289 560 "},"g":{"ha":540,"x_min":-28,"x_max":583,"o":"m 53 -389 q 152 -343 106 -389 q 242 -220 199 -297 q 324 -50 285 -143 q 419 8 367 -29 q 517 97 471 46 q 583 211 563 149 l 565 225 q 508 127 544 172 q 428 47 472 82 q 339 -10 385 13 q 395 152 371 74 q 433 290 419 231 q 446 371 446 349 q 431 374 438 374 q 417 375 424 375 q 366 349 382 375 q 346 304 350 324 q 337 265 340 281 q 329 231 333 250 q 220 101 276 154 q 124 47 164 47 q 88 65 101 47 q 75 115 75 82 q 98 213 75 160 q 160 317 121 267 q 249 399 199 367 q 354 431 300 431 q 389 426 375 431 q 410 410 403 421 q 419 418 413 411 q 426 438 426 425 q 409 469 426 456 q 351 482 392 482 q 232 453 296 482 q 111 375 168 425 q 19 260 54 325 q -17 122 -17 194 q 10 25 -17 63 q 88 -12 38 -12 q 203 38 146 -12 q 314 165 261 89 q 280 41 297 97 q 243 -64 263 -15 q 152 -111 200 -86 q 64 -166 104 -136 q -2 -231 24 -196 q -28 -308 -28 -267 q -3 -370 -28 -351 q 53 -389 22 -389 m 49 -344 q 25 -331 35 -344 q 15 -296 15 -318 q 46 -222 15 -256 q 124 -159 76 -189 q 228 -101 172 -129 q 124 -290 172 -235 q 49 -344 76 -344 "},"h":{"ha":661,"x_min":8,"x_max":706,"o":"m 65 -53 q 103 -25 85 -53 q 139 47 121 3 q 177 139 157 90 q 220 231 197 188 q 271 303 243 275 q 333 331 299 331 q 371 315 356 331 q 386 264 386 300 q 376 193 386 231 q 354 119 365 156 q 343 54 343 83 q 367 -8 343 17 q 439 -33 392 -33 q 543 -1 493 -33 q 635 85 593 31 q 706 208 676 140 l 688 225 q 621 115 660 165 q 542 33 582 64 q 471 3 503 3 q 441 15 453 3 q 429 56 429 28 q 444 128 429 90 q 474 206 460 165 q 489 289 489 246 q 478 348 489 319 q 445 395 468 376 q 383 414 422 414 q 313 395 346 414 q 249 342 279 376 q 193 263 219 308 q 144 165 167 218 q 101 54 121 111 q 99 75 100 64 q 99 101 99 86 q 104 187 99 139 q 122 285 110 235 q 150 375 133 335 q 246 455 199 404 q 333 567 293 506 q 404 691 374 628 q 452 810 435 754 q 469 904 469 865 q 459 962 469 932 q 424 992 449 992 q 351 944 393 992 q 263 818 310 897 q 170 642 215 739 q 89 443 125 544 q 31 250 53 342 q 8 92 8 158 q 24 -8 8 36 q 65 -53 39 -53 m 168 429 q 232 594 194 514 q 308 739 269 675 q 377 841 347 803 q 417 879 407 879 q 421 877 419 879 q 422 868 422 875 q 408 806 422 847 q 369 713 394 764 q 313 608 344 661 q 244 507 281 554 q 168 429 207 460 "},"i":{"ha":335,"x_min":-7,"x_max":374,"o":"m 100 -36 q 258 28 182 -36 q 374 211 333 92 l 361 225 q 248 60 301 107 q 147 13 194 13 q 96 29 113 13 q 79 96 79 46 q 101 198 79 144 q 151 300 122 251 q 202 386 181 349 q 224 440 224 424 q 215 463 224 456 q 193 471 206 471 q 136 441 165 471 q 81 364 107 411 q 36 263 56 317 q 5 161 17 210 q -7 81 -7 113 q 19 -2 -7 32 q 100 -36 46 -36 m 267 600 q 328 624 300 600 q 357 675 357 649 q 344 708 357 699 q 311 718 332 718 q 244 697 278 718 q 210 646 210 675 q 227 611 210 622 q 267 600 244 600 "},"j":{"ha":303,"x_min":-267,"x_max":347,"o":"m -194 -389 q -88 -340 -137 -389 q 2 -214 -39 -292 q 74 -50 43 -136 q 167 3 117 -25 q 265 78 217 31 q 347 208 313 126 l 329 218 q 249 104 290 146 q 168 38 208 63 q 88 -11 128 13 q 133 138 113 64 q 169 274 154 211 q 191 381 183 338 q 199 440 199 425 q 190 470 199 458 q 165 482 181 482 q 126 454 144 482 q 91 382 108 426 q 55 288 74 338 q 13 196 36 239 l 25 175 q 52 219 35 192 q 90 285 69 247 q 49 95 72 181 q -3 -57 25 10 q -51 -81 -29 -71 q -92 -101 -72 -90 q -217 -206 -168 -144 q -267 -318 -267 -267 q -248 -369 -267 -349 q -194 -389 -229 -389 m -207 -342 q -224 -334 -217 -342 q -231 -308 -231 -326 q -178 -208 -231 -264 q -21 -101 -126 -153 q -127 -281 -75 -221 q -207 -342 -179 -342 m 188 607 q 251 631 222 607 q 279 686 279 656 q 266 715 279 706 q 233 725 253 725 q 188 715 211 725 q 148 689 164 706 q 132 651 132 672 q 149 618 132 629 q 188 607 165 607 "},"k":{"ha":619,"x_min":6,"x_max":660,"o":"m 413 -53 q 510 -15 461 -53 q 600 84 560 24 q 660 213 640 144 l 646 226 q 585 112 618 163 q 517 31 553 61 q 440 0 481 0 q 393 23 413 0 q 360 78 374 46 q 340 139 347 110 q 332 179 333 168 q 385 188 353 179 q 451 216 418 197 q 506 266 483 235 q 529 342 529 297 q 493 429 529 393 q 406 465 457 465 q 307 426 354 465 q 219 326 260 388 q 148 199 179 265 q 94 76 117 132 q 117 255 94 149 q 186 474 140 361 q 299 564 247 511 q 390 676 351 617 q 449 795 428 736 q 469 901 469 854 q 458 965 469 939 q 426 992 446 992 q 361 946 401 992 q 274 822 321 900 q 179 649 226 744 q 92 451 132 553 q 29 254 53 349 q 6 88 6 160 q 8 26 6 56 q 20 -24 10 -4 q 54 -43 31 -43 q 86 -34 71 -43 q 110 0 101 -25 q 138 81 121 32 q 178 183 154 129 q 231 285 201 238 q 299 363 261 333 q 379 393 336 393 q 428 376 407 393 q 449 331 449 360 q 427 270 449 296 q 375 228 406 244 q 315 205 344 213 q 271 197 286 197 q 278 123 271 165 q 302 40 286 81 q 346 -26 318 0 q 413 -53 374 -53 m 210 529 q 293 702 250 622 q 370 831 336 782 q 418 879 404 879 q 422 876 421 879 q 422 867 422 874 q 396 772 422 832 q 322 646 369 711 q 210 529 274 581 "},"l":{"ha":328,"x_min":4,"x_max":482,"o":"m 115 -42 q 256 27 190 -42 q 376 214 321 96 l 356 225 q 299 120 332 171 q 230 36 267 69 q 156 3 193 3 q 110 29 125 3 q 94 110 94 56 q 99 177 94 142 q 113 250 104 213 q 228 369 174 300 q 330 515 283 439 q 410 665 376 590 q 463 799 444 739 q 482 897 482 860 q 476 941 482 917 q 461 983 471 965 q 436 1000 451 1000 q 372 953 413 1000 q 282 826 331 906 q 185 651 233 747 q 95 453 136 554 q 29 260 54 351 q 4 101 4 168 q 30 -1 4 40 q 115 -42 56 -42 m 125 297 q 183 461 149 378 q 254 621 217 544 q 328 757 292 697 q 391 852 364 817 q 429 888 418 888 q 435 883 432 888 q 439 865 439 879 q 422 787 439 838 q 375 672 406 736 q 305 540 344 608 q 219 409 265 472 q 125 297 174 346 "},"m":{"ha":897,"x_min":-49,"x_max":940,"o":"m 700 -43 q 802 -6 756 -43 q 883 90 849 32 q 940 206 918 147 l 924 225 q 874 127 903 178 q 810 41 844 76 q 738 6 776 6 q 705 20 714 6 q 696 53 696 35 q 709 122 696 82 q 735 206 722 163 q 747 285 747 249 q 730 347 747 321 q 668 374 713 374 q 579 342 621 374 q 502 262 538 311 q 438 160 467 213 q 456 212 446 179 q 473 283 465 244 q 481 356 481 321 q 465 430 481 399 q 406 461 449 461 q 328 437 368 461 q 250 374 289 413 q 176 288 211 335 q 113 197 140 242 q 138 294 128 250 q 149 356 149 338 q 140 382 149 372 q 111 392 131 392 q 74 382 92 392 q 47 363 56 372 q 33 257 47 317 q -1 140 18 197 q -34 41 -19 82 q -49 -8 -49 0 q -35 -22 -49 -15 q -4 -33 -22 -29 q 26 -37 14 -37 q 92 105 51 33 q 179 236 133 176 q 268 333 225 296 q 342 369 311 369 q 369 355 361 369 q 376 317 376 340 q 363 230 376 281 q 333 130 350 179 q 302 44 315 81 q 289 -3 289 7 q 302 -19 289 -12 q 332 -28 315 -25 q 360 -31 349 -31 q 389 31 374 -3 q 426 99 404 65 q 533 251 492 197 q 608 306 574 306 q 636 294 624 306 q 649 256 649 283 q 638 196 649 229 q 617 128 628 163 q 607 58 607 93 q 629 -13 607 17 q 700 -43 651 -43 "},"n":{"ha":647,"x_min":-53,"x_max":689,"o":"m 449 -28 q 544 3 501 -28 q 624 86 588 33 q 689 207 660 139 l 674 225 q 616 124 649 174 q 549 41 583 74 q 479 8 514 8 q 449 20 461 8 q 438 61 438 32 q 452 130 438 96 q 481 201 467 164 q 494 281 494 238 q 470 367 494 328 q 392 406 446 406 q 286 368 339 406 q 187 274 233 331 q 103 161 140 218 q 135 270 122 218 q 147 344 147 322 q 110 381 147 381 q 72 371 90 381 q 46 351 54 361 q 31 250 46 306 q -4 142 15 194 q -38 53 -24 89 q -53 10 -53 17 q -22 -13 -42 -6 q 21 -21 -1 -21 q 85 83 49 25 q 163 197 121 142 q 249 287 204 251 q 336 322 293 322 q 376 308 360 322 q 392 254 392 293 q 382 188 392 222 q 362 122 372 154 q 351 61 351 90 q 376 -3 351 22 q 449 -28 400 -28 "},"o":{"ha":507,"x_min":-14,"x_max":550,"o":"m 96 -44 q 205 -3 149 -44 q 308 101 261 39 q 340 91 324 94 q 375 88 357 88 q 472 115 421 88 q 550 207 522 142 l 533 221 q 490 161 517 183 q 435 130 463 139 q 385 121 407 121 q 332 135 357 121 q 399 262 372 196 q 425 382 425 328 q 406 458 425 428 q 329 489 386 489 q 256 465 286 489 q 209 400 225 440 q 193 314 193 360 q 215 208 193 260 q 275 124 236 156 q 196 44 236 75 q 126 13 156 13 q 90 31 104 13 q 76 92 76 50 q 87 156 76 118 q 113 231 97 193 q 145 299 128 269 q 175 340 163 329 q 160 345 168 343 q 146 347 153 347 q 88 322 117 347 q 37 257 60 297 q 0 171 14 217 q -14 82 -14 125 q 11 -8 -14 29 q 96 -44 36 -44 m 300 160 q 265 228 276 188 q 253 310 253 269 q 282 411 253 371 q 339 451 311 451 q 369 433 357 451 q 381 374 381 414 q 358 267 381 324 q 300 160 335 211 "},"p":{"ha":543,"x_min":-131,"x_max":500,"o":"m -87 -389 q -71 -382 -78 -389 q -40 -321 -58 -371 q 2 -192 -21 -271 q 50 -17 25 -114 q 100 183 75 79 q 137 252 113 214 q 192 326 161 290 q 259 384 224 361 q 331 407 294 407 q 391 376 372 407 q 410 300 410 344 q 387 193 410 247 q 324 94 364 139 q 233 23 283 50 q 126 -4 182 -4 q 102 -5 113 -4 q 92 -11 92 -6 q 114 -28 92 -19 q 172 -36 136 -36 q 304 -3 244 -36 q 408 84 364 31 q 476 198 451 138 q 500 313 500 258 q 460 427 500 383 q 360 471 421 471 q 260 439 306 471 q 178 360 214 407 q 119 267 143 313 q 143 385 135 335 q 151 454 151 435 q 136 498 151 478 q 85 518 121 518 q 64 513 68 518 q 58 494 60 507 q 19 215 39 328 q -18 27 0 103 q -55 -105 -36 -49 q -92 -215 -74 -161 q -131 -336 -111 -268 q -125 -352 -131 -339 q -109 -377 -119 -365 q -87 -389 -99 -389 "},"q":{"ha":557,"x_min":-21,"x_max":600,"o":"m 269 -389 q 322 -356 299 -389 q 359 -269 346 -324 q 372 -150 372 -215 q 366 -68 372 -107 q 349 7 360 -29 q 484 58 414 14 q 600 208 554 103 l 583 224 q 471 84 531 122 q 351 40 411 46 q 399 183 371 125 q 451 278 428 240 q 474 338 474 315 q 467 356 474 349 q 449 363 461 361 q 422 357 438 364 q 403 343 413 351 q 385 319 394 335 q 319 216 353 268 q 251 121 285 164 q 185 51 217 78 q 125 25 153 25 q 90 43 103 25 q 76 92 76 61 q 90 169 76 124 q 130 265 104 215 q 190 356 156 314 q 265 426 224 399 q 353 453 307 453 q 414 430 396 453 q 432 376 432 407 q 453 382 446 376 q 472 402 465 389 q 478 428 478 415 q 447 476 478 457 q 368 496 415 496 q 257 468 313 496 q 151 395 201 440 q 63 294 101 350 q 1 183 24 239 q -21 78 -21 126 q -5 8 -21 35 q 35 -30 11 -18 q 83 -42 60 -42 q 191 8 135 -42 q 303 136 247 57 q 260 -15 278 65 q 231 -167 242 -94 q 221 -287 221 -239 q 235 -368 221 -347 q 269 -389 250 -389 m 307 -312 q 299 -302 301 -312 q 296 -274 296 -292 q 305 -172 296 -236 q 332 -33 314 -107 q 340 -84 338 -58 q 342 -137 342 -110 q 338 -219 342 -178 q 326 -286 333 -260 q 307 -312 318 -312 "},"r":{"ha":483,"x_min":1,"x_max":531,"o":"m 240 -36 q 356 0 300 -36 q 458 92 413 36 q 531 207 504 149 l 513 221 q 474 155 500 190 q 414 88 447 119 q 345 35 381 56 q 276 14 310 14 q 247 22 260 14 q 235 56 235 31 q 252 124 235 85 q 287 206 269 163 q 304 290 304 249 q 283 363 304 335 q 233 412 261 392 q 184 448 206 432 q 163 483 163 464 q 170 508 163 488 q 178 535 178 528 q 176 555 178 542 q 158 568 174 568 q 124 542 147 568 q 100 474 100 515 q 114 440 100 454 q 52 282 83 351 q 1 176 21 213 l 14 153 q 71 264 36 190 q 138 419 106 338 q 190 380 164 401 q 215 314 215 358 q 197 233 215 278 q 158 142 178 188 q 139 54 139 96 q 166 -11 139 14 q 240 -36 193 -36 "},"s":{"ha":479,"x_min":-28,"x_max":518,"o":"m 146 -71 q 253 -43 206 -71 q 324 44 301 -15 q 439 94 386 54 q 518 210 492 133 l 506 224 q 422 110 465 146 q 331 67 379 75 q 337 99 335 82 q 339 135 339 117 q 321 258 339 199 q 285 370 303 317 q 267 469 267 424 q 271 508 267 493 q 275 531 275 524 q 269 543 275 538 q 253 549 264 549 q 216 527 233 549 q 199 454 199 506 l 199 438 q 138 332 172 382 q 61 236 103 282 q 41 225 56 231 q 10 208 26 219 q -17 175 -6 197 q -28 111 -28 153 q -12 28 -28 69 q 42 -42 4 -14 q 146 -71 81 -71 m 149 -22 q 65 20 94 -22 q 35 113 35 63 q 65 161 35 160 q 133 92 88 126 q 236 46 178 57 q 193 -11 221 0 q 149 -22 165 -22 m 243 68 q 135 121 179 82 q 71 204 92 160 q 138 284 103 236 q 206 385 174 332 q 233 263 217 328 q 249 133 249 199 q 247 97 249 113 q 243 68 246 82 "},"t":{"ha":396,"x_min":-6,"x_max":440,"o":"m 118 -64 q 244 -28 183 -64 q 356 71 306 8 q 440 211 407 133 l 422 225 q 300 51 369 115 q 158 -12 231 -12 q 99 13 117 -12 q 81 99 81 39 q 103 250 81 172 q 157 401 125 328 q 167 401 163 401 q 178 401 172 401 q 285 406 225 401 q 422 418 346 410 l 422 443 q 320 436 371 438 q 224 435 269 435 q 198 435 211 435 q 172 435 185 435 q 256 594 213 521 q 328 722 299 668 q 357 799 357 775 q 348 822 357 814 q 328 829 339 829 q 277 797 307 829 q 215 709 247 764 q 149 584 182 654 q 86 439 115 514 q 51 442 67 440 q 25 444 36 443 l 25 419 q 49 413 36 415 q 75 408 61 411 q 17 224 40 314 q -6 74 -6 135 q 26 -29 -6 6 q 118 -64 58 -64 "},"u":{"ha":608,"x_min":0,"x_max":653,"o":"m 104 -42 q 171 -18 139 -42 q 232 45 203 6 q 286 131 261 85 q 279 95 282 113 q 276 61 276 78 q 285 10 276 33 q 316 -28 294 -14 q 374 -42 338 -42 q 476 -10 424 -42 q 576 80 529 22 q 653 213 624 138 l 635 225 q 558 103 601 154 q 474 26 515 53 q 403 0 432 0 q 367 15 378 0 q 357 56 357 31 q 371 136 357 90 q 403 227 385 182 q 436 303 422 272 q 450 340 450 335 q 437 360 450 353 q 408 371 424 367 q 383 376 392 375 q 345 300 368 346 q 296 204 322 254 q 241 111 269 154 q 185 41 213 68 q 131 14 157 14 q 97 32 108 14 q 83 73 86 50 q 81 107 81 96 q 97 210 81 154 q 136 314 114 265 q 174 386 158 363 q 146 406 163 399 q 122 414 129 414 q 86 381 107 414 q 46 296 65 347 q 13 192 26 244 q 0 99 0 139 q 28 1 0 43 q 104 -42 57 -42 "},"v":{"ha":565,"x_min":14,"x_max":610,"o":"m 90 -54 q 183 -12 135 -54 q 277 92 232 29 q 356 224 322 156 q 396 122 365 156 q 472 89 426 89 q 542 113 506 89 q 610 206 579 136 l 592 219 q 538 140 565 163 q 482 117 511 117 q 439 133 453 117 q 421 175 425 150 q 417 222 417 200 q 429 318 417 285 q 453 371 442 351 q 465 408 465 390 q 453 442 465 424 q 415 461 442 461 q 372 430 389 461 q 351 304 354 399 q 301 203 329 256 q 240 103 272 150 q 178 28 208 57 q 122 0 147 0 q 97 19 104 0 q 90 78 90 38 q 97 194 90 132 q 103 301 103 256 q 97 337 103 328 q 67 346 90 346 q 31 332 36 346 q 22 281 25 318 q 15 142 17 183 q 14 99 14 101 q 31 -12 14 31 q 90 -54 47 -54 "},"w":{"ha":857,"x_min":0,"x_max":901,"o":"m 392 -54 q 481 -16 435 -54 q 569 82 526 22 q 647 206 613 142 q 691 118 661 147 q 764 89 721 89 q 834 113 797 89 q 901 206 871 136 l 883 219 q 830 140 857 163 q 774 117 803 117 q 731 133 744 117 q 713 175 717 150 q 708 222 708 200 q 719 312 708 279 q 742 365 731 344 q 753 388 749 378 q 757 408 757 399 q 745 442 757 424 q 707 461 733 461 q 674 447 690 461 q 648 395 658 433 q 638 285 638 357 q 587 186 615 236 q 528 94 558 136 q 471 26 499 51 q 422 0 443 0 q 399 18 406 0 q 392 68 392 36 q 397 169 392 115 q 412 274 403 224 q 431 358 421 325 q 433 367 432 363 q 433 374 433 371 q 422 397 433 389 q 393 404 411 404 q 372 397 381 404 q 356 363 364 389 q 338 279 349 336 q 269 156 306 217 q 197 54 233 94 q 129 14 161 14 q 97 32 107 14 q 83 73 86 50 q 81 107 81 96 q 97 209 81 153 q 136 314 114 265 q 174 386 158 363 q 151 406 174 399 q 122 414 129 414 q 86 381 107 414 q 46 296 65 347 q 13 192 26 244 q 0 99 0 139 q 29 0 0 42 q 104 -42 58 -42 q 186 -6 147 -42 q 260 88 225 31 q 326 206 296 144 q 319 141 322 174 q 317 81 317 108 q 333 -15 317 25 q 392 -54 349 -54 "},"x":{"ha":581,"x_min":14,"x_max":622,"o":"m 61 -82 q 78 -72 69 -82 q 152 22 103 -40 q 260 154 201 85 q 278 62 267 106 q 314 -9 290 18 q 378 -36 338 -36 q 475 1 426 -36 q 563 94 524 38 q 622 210 603 150 l 608 224 q 572 157 594 193 q 522 88 549 121 q 466 35 494 56 q 413 14 438 14 q 374 34 388 14 q 353 88 360 54 q 344 163 347 121 q 338 246 342 204 q 428 346 385 300 q 504 419 471 392 q 553 446 538 446 q 539 457 553 453 q 518 461 525 461 q 447 415 500 461 q 329 300 394 368 q 294 394 319 356 q 214 432 268 432 q 140 410 169 432 q 89 354 110 389 q 51 279 68 319 q 14 201 33 239 l 26 179 q 81 276 56 231 q 132 349 106 321 q 192 378 158 378 q 235 330 224 378 q 253 217 246 282 q 152 99 199 157 q 76 -2 106 40 q 47 -61 47 -44 q 51 -76 47 -71 q 61 -82 56 -82 "},"y":{"ha":540,"x_min":-28,"x_max":585,"o":"m 60 -389 q 155 -341 108 -389 q 244 -215 201 -293 q 322 -49 286 -137 q 426 10 374 -25 q 522 95 479 46 q 585 211 564 144 l 567 225 q 465 72 528 129 q 338 -11 403 14 q 395 154 371 74 q 433 295 419 235 q 446 378 446 356 q 431 381 438 381 q 417 382 424 382 q 366 356 382 382 q 346 311 350 331 q 340 278 343 294 q 332 247 336 263 q 272 161 304 201 q 206 95 239 121 q 147 69 174 69 q 108 85 119 69 q 97 125 97 100 q 107 192 97 153 q 131 272 117 231 q 161 346 146 313 q 189 397 176 379 q 176 413 189 406 q 148 425 163 421 q 128 429 133 429 q 92 397 113 429 q 51 317 71 365 q 19 217 32 268 q 6 126 6 165 q 22 63 6 88 q 65 26 39 38 q 117 14 90 14 q 224 66 174 14 q 319 190 275 118 q 281 51 301 114 q 242 -64 261 -12 q 140 -117 189 -90 q 54 -172 92 -143 q -6 -236 17 -201 q -28 -315 -28 -271 q -1 -370 -28 -351 q 60 -389 25 -389 m 53 -344 q 24 -329 32 -344 q 15 -303 15 -314 q 44 -222 15 -257 q 122 -158 74 -187 q 228 -97 171 -128 q 123 -290 172 -235 q 53 -344 74 -344 "},"z":{"ha":440,"x_min":-99,"x_max":481,"o":"m -7 -389 q 116 -359 57 -389 q 222 -279 175 -329 q 297 -167 269 -229 q 325 -43 325 -106 q 324 -19 325 -32 q 319 3 322 -7 q 418 95 375 44 q 481 208 461 146 l 465 225 q 405 117 446 165 q 311 29 364 69 q 274 95 299 64 q 214 154 250 126 q 293 208 256 175 q 354 283 331 240 q 378 376 378 326 q 344 460 378 429 q 263 490 310 490 q 156 452 200 490 q 78 349 111 414 q 15 200 46 283 l 32 186 q 94 311 64 254 q 161 403 125 368 q 243 438 197 438 q 284 417 271 438 q 297 364 297 396 q 280 285 297 328 q 228 208 263 243 q 146 160 194 174 q 221 75 200 117 q 242 -17 242 33 q 122 -92 182 -57 q 11 -162 61 -128 q -69 -235 -39 -197 q -99 -318 -99 -274 q -74 -373 -99 -357 q -7 -389 -50 -389 m -17 -349 q -47 -337 -35 -349 q -60 -303 -60 -326 q -34 -237 -60 -268 q 35 -176 -8 -206 q 131 -115 78 -146 q 240 -49 185 -83 q 203 -176 233 -121 q 131 -270 172 -232 q 49 -328 89 -308 q -17 -349 8 -349 "},"!":{"ha":361,"x_min":-29,"x_max":464,"o":"m 129 404 q 108 348 122 385 q 80 260 94 311 q 51 146 65 208 q 53 144 53 144 q 56 142 54 143 q 135 276 92 199 q 225 440 179 353 q 313 611 271 526 q 390 770 356 696 q 444 897 424 844 q 464 968 464 949 q 456 991 464 982 q 436 1000 447 1000 q 378 958 410 1000 q 312 847 346 915 q 244 697 278 778 q 182 540 211 617 q 129 404 153 463 m 15 -14 q 65 6 43 -14 q 88 47 88 26 q 78 74 88 67 q 51 81 68 81 q -2 64 25 81 q -29 24 -29 47 q -16 -5 -29 4 q 15 -14 -3 -14 "},"¡":{"ha":367,"x_min":-110,"x_max":383,"o":"m -82 -349 q -24 -306 -56 -349 q 42 -195 8 -264 q 110 -46 76 -126 q 173 112 143 35 q 225 247 203 189 q 247 303 233 267 q 275 392 260 340 q 303 506 290 443 q 301 508 301 507 q 299 510 300 508 q 219 376 263 453 q 129 212 175 299 q 41 40 83 125 q -35 -119 -1 -44 q -90 -245 -69 -193 q -110 -317 -110 -297 q -101 -340 -110 -331 q -82 -349 -93 -349 m 303 572 q 357 589 331 572 q 383 628 383 606 q 370 656 383 647 q 339 665 357 665 q 290 645 313 665 q 267 604 267 625 q 276 579 267 586 q 303 572 286 572 "},"?":{"ha":607,"x_min":150,"x_max":629,"o":"m 324 172 q 342 244 339 207 q 358 329 344 282 q 409 444 376 394 q 480 535 442 493 q 552 619 518 578 q 608 707 586 660 q 629 815 629 754 q 578 953 629 906 q 442 1000 528 1000 q 290 956 356 1000 q 187 843 224 913 q 150 694 150 774 q 167 624 150 653 q 236 588 183 596 q 229 625 232 607 q 226 667 226 643 q 258 815 226 749 q 339 922 290 882 q 436 961 388 961 q 515 922 483 961 q 546 804 546 882 q 519 672 546 731 q 453 562 492 613 q 374 462 414 511 q 308 358 335 413 q 281 238 281 304 q 289 199 281 211 q 324 172 297 186 m 267 -14 q 317 6 294 -14 q 339 50 339 26 q 329 73 339 65 q 303 81 319 81 q 249 64 276 81 q 222 22 222 47 q 235 -5 222 4 q 267 -14 249 -14 "},"¿":{"ha":576,"x_min":-69,"x_max":410,"o":"m 118 -389 q 270 -349 204 -389 q 373 -247 336 -310 q 410 -114 410 -185 q 393 -51 410 -76 q 324 -18 376 -25 q 331 -52 328 -36 q 333 -89 333 -68 q 301 -223 333 -162 q 221 -319 269 -283 q 124 -354 172 -354 q 45 -319 76 -354 q 14 -212 14 -283 q 41 -93 14 -146 q 108 6 68 -40 q 186 96 147 51 q 252 189 225 140 q 279 297 279 238 q 272 332 279 321 q 236 356 264 343 q 219 291 222 325 q 201 214 215 257 q 151 111 183 156 q 80 29 118 67 q 8 -46 42 -8 q -48 -126 -26 -83 q -69 -224 -69 -168 q -19 -347 -69 -304 q 118 -389 32 -389 m 253 447 q 307 464 281 447 q 333 506 333 481 q 320 533 333 524 q 289 542 307 542 q 240 522 263 542 q 217 478 217 501 q 226 455 217 463 q 253 447 236 447 "},",":{"ha":272,"x_min":-14,"x_max":106,"o":"m 10 -122 q 48 -42 29 -82 q 106 39 67 -1 q 95 66 106 54 q 71 78 85 78 q 31 53 50 78 q -1 -8 11 28 q -14 -71 -14 -43 q -8 -101 -14 -87 q 10 -122 -3 -115 "},".":{"ha":297,"x_min":11,"x_max":128,"o":"m 56 -14 q 90 -4 74 -14 q 117 19 107 6 q 128 47 128 33 q 118 74 128 67 q 92 81 108 81 q 55 73 74 81 q 24 52 36 65 q 11 24 11 39 q 24 -5 11 4 q 56 -14 38 -14 "},":":{"ha":300,"x_min":14,"x_max":214,"o":"m 142 333 q 192 353 169 333 q 214 394 214 374 q 204 421 214 414 q 178 428 194 428 q 124 411 151 428 q 97 371 97 394 q 110 342 97 351 q 142 333 124 333 m 58 -14 q 108 6 86 -14 q 131 47 131 26 q 121 74 131 67 q 94 81 111 81 q 41 64 68 81 q 14 24 14 47 q 27 -5 14 4 q 58 -14 40 -14 "},";":{"ha":296,"x_min":1,"x_max":214,"o":"m 25 -122 q 63 -42 44 -82 q 121 39 82 -1 q 110 66 121 54 q 86 78 100 78 q 46 53 65 78 q 14 -8 26 28 q 1 -71 1 -43 q 7 -101 1 -87 q 25 -122 13 -115 m 142 333 q 192 353 169 333 q 214 394 214 374 q 204 421 214 414 q 178 428 194 428 q 124 411 151 428 q 97 371 97 394 q 110 342 97 351 q 142 333 124 333 "},"…":{"ha":731,"x_min":11,"x_max":561,"o":"m 489 -14 q 524 -4 507 -14 q 551 19 540 6 q 561 47 561 33 q 551 74 561 67 q 525 81 542 81 q 488 73 507 81 q 457 52 469 65 q 444 24 444 39 q 458 -5 444 4 q 489 -14 471 -14 m 56 -14 q 90 -4 74 -14 q 117 19 107 6 q 128 47 128 33 q 118 74 128 67 q 92 81 108 81 q 55 73 74 81 q 24 52 36 65 q 11 24 11 39 q 24 -5 11 4 q 56 -14 38 -14 m 272 -14 q 307 -4 290 -14 q 334 19 324 6 q 344 47 344 33 q 335 74 344 67 q 308 81 325 81 q 272 73 290 81 q 240 52 253 65 q 228 24 228 39 q 241 -5 228 4 q 272 -14 254 -14 "},"·":{"ha":290,"x_min":53,"x_max":169,"o":"m 97 172 q 132 182 115 172 q 159 206 149 192 q 169 233 169 219 q 160 260 169 253 q 133 267 150 267 q 97 259 115 267 q 65 238 78 251 q 53 210 53 225 q 66 181 53 190 q 97 172 79 172 "},"-":{"ha":672,"x_min":50,"x_max":546,"o":"m 50 200 q 107 208 81 206 q 158 213 133 211 q 207 215 183 215 q 273 215 236 215 q 347 215 310 215 q 444 218 396 215 q 546 256 492 221 q 506 259 531 257 q 451 263 482 261 q 385 267 419 265 q 313 268 350 268 q 218 265 263 268 q 139 255 174 263 q 81 234 104 247 q 50 200 58 221 "},"'":{"ha":174,"x_min":182,"x_max":301,"o":"m 206 800 q 241 878 219 836 q 301 961 263 921 q 291 988 301 976 q 267 1000 281 1000 q 226 975 246 1000 q 194 915 207 950 q 182 851 182 881 q 188 821 182 835 q 206 800 193 807 "},"\"":{"ha":340,"x_min":182,"x_max":468,"o":"m 372 800 q 410 881 392 840 q 468 961 429 921 q 458 988 468 976 q 433 1000 447 1000 q 393 975 413 1000 q 361 915 374 950 q 349 851 349 881 q 354 821 349 835 q 372 800 360 807 m 206 800 q 244 881 225 840 q 301 961 263 921 q 291 988 301 976 q 267 1000 281 1000 q 226 975 246 1000 q 194 915 207 950 q 182 851 182 881 q 188 821 182 835 q 206 800 193 807 "},"‘":{"ha":200,"x_min":175,"x_max":297,"o":"m 271 800 q 290 817 282 807 q 297 839 297 826 q 278 883 297 856 q 238 943 258 911 q 210 1000 217 975 q 185 988 196 1000 q 175 961 175 976 q 192 915 175 943 q 231 857 208 888 q 271 800 254 826 "},"’":{"ha":174,"x_min":172,"x_max":294,"o":"m 199 800 q 238 857 215 826 q 278 915 261 888 q 294 961 294 943 q 284 988 294 976 q 260 1000 274 1000 q 232 944 253 975 q 192 885 211 914 q 172 839 172 857 q 181 817 172 826 q 199 800 189 807 "},"‚":{"ha":272,"x_min":-14,"x_max":106,"o":"m 10 -122 q 48 -42 29 -82 q 106 39 67 -1 q 95 66 106 54 q 71 78 85 78 q 31 53 50 78 q -1 -8 11 28 q -14 -71 -14 -43 q -8 -101 -14 -87 q 10 -122 -3 -115 "},"“":{"ha":353,"x_min":175,"x_max":450,"o":"m 424 800 q 442 817 435 807 q 450 839 450 826 q 431 885 450 857 q 390 944 411 913 q 363 1000 369 975 q 338 988 349 1000 q 328 961 328 976 q 345 915 328 943 q 385 857 363 888 q 424 800 407 826 m 271 800 q 290 817 282 807 q 297 839 297 826 q 278 885 297 857 q 238 944 258 913 q 210 1000 217 975 q 185 988 196 1000 q 175 961 175 976 q 192 915 175 943 q 231 857 208 888 q 271 800 254 826 "},"”":{"ha":326,"x_min":172,"x_max":447,"o":"m 351 800 q 391 857 368 826 q 431 915 414 888 q 447 961 447 943 q 437 988 447 976 q 413 1000 426 1000 q 385 944 406 975 q 344 885 364 913 q 325 839 325 857 q 333 817 325 826 q 351 800 342 807 m 199 800 q 238 857 215 826 q 278 915 261 888 q 294 961 294 943 q 284 988 294 976 q 260 1000 274 1000 q 232 944 253 975 q 192 885 211 913 q 172 839 172 857 q 181 817 172 826 q 199 800 189 807 "},"„":{"ha":425,"x_min":-14,"x_max":258,"o":"m 163 -122 q 201 -42 182 -82 q 258 39 219 -1 q 248 66 258 54 q 224 78 238 78 q 183 53 203 78 q 151 -8 164 28 q 139 -71 139 -43 q 144 -101 139 -87 q 163 -122 150 -115 m 10 -122 q 48 -42 29 -82 q 106 39 67 -1 q 95 66 106 54 q 71 78 85 78 q 31 53 50 78 q -1 -8 11 28 q -14 -71 -14 -43 q -8 -101 -14 -87 q 10 -122 -3 -115 "},"(":{"ha":358,"x_min":79,"x_max":506,"o":"m 197 -121 q 213 -110 206 -117 q 225 -92 219 -103 q 177 40 194 -42 q 160 225 160 121 q 179 438 160 329 q 240 651 199 547 q 348 845 282 756 q 506 1000 414 935 q 415 966 468 1000 q 303 868 361 932 q 194 713 244 804 q 111 509 143 622 q 79 263 79 396 q 94 92 79 172 q 137 -44 110 13 q 197 -121 164 -100 "},")":{"ha":372,"x_min":-85,"x_max":343,"o":"m -54 -121 q 24 -86 -25 -121 q 127 14 72 -51 q 231 169 182 79 q 312 369 281 258 q 343 604 343 479 q 317 807 343 722 q 251 941 290 892 q 174 1000 211 990 q 253 831 235 917 q 272 660 272 746 q 223 341 272 485 q 93 89 174 197 q -85 -87 13 -19 q -72 -108 -79 -99 q -54 -121 -64 -118 "},"[":{"ha":546,"x_min":40,"x_max":615,"o":"m 272 -121 q 405 -94 363 -121 q 453 -15 447 -68 q 391 -31 419 -25 q 328 -39 363 -36 q 244 -43 293 -42 q 119 -44 194 -44 q 144 65 131 -4 q 174 222 158 133 q 206 406 189 310 q 242 596 224 501 q 281 772 261 690 q 321 913 301 854 q 396 898 358 907 q 469 889 433 889 q 539 896 507 889 q 592 926 571 903 q 615 1000 613 950 q 549 978 586 983 q 476 972 513 972 q 421 974 447 972 q 376 976 394 976 q 314 954 347 976 q 249 871 281 932 q 196 692 218 810 q 137 374 161 504 q 97 159 113 243 q 71 26 81 75 q 56 -47 61 -24 q 47 -79 50 -71 q 40 -93 43 -87 q 99 -104 61 -97 q 183 -116 136 -111 q 272 -121 229 -121 "},"]":{"ha":569,"x_min":-19,"x_max":557,"o":"m -19 -122 q 103 -102 32 -106 q 247 -99 175 -99 q 326 -67 294 -99 q 376 10 357 -36 q 408 104 396 57 q 425 183 419 151 q 447 302 435 232 q 474 454 460 372 q 501 619 488 536 q 526 774 514 701 q 546 899 538 847 q 557 971 554 951 q 436 992 496 985 q 325 1000 376 1000 q 194 983 242 1000 q 146 907 146 967 q 285 931 215 926 q 422 936 354 936 l 510 936 q 477 783 496 878 q 438 576 458 689 q 393 347 417 463 q 346 131 369 232 q 299 -36 322 31 q 209 -29 256 -33 q 126 -25 163 -25 q 57 -34 89 -25 q 4 -64 25 -43 q -19 -122 -17 -85 "},"{":{"ha":361,"x_min":51,"x_max":431,"o":"m 142 -121 q 185 -111 165 -121 q 207 -75 206 -101 q 172 -86 193 -86 q 136 -73 146 -86 q 126 -42 126 -60 q 142 43 126 0 q 179 134 158 86 q 216 237 200 182 q 232 356 232 292 q 224 410 232 388 q 196 451 215 432 q 248 490 229 456 q 277 576 267 524 q 294 688 288 629 q 312 810 303 751 q 338 908 321 869 q 385 946 354 946 q 408 940 396 946 q 431 926 419 933 q 416 972 428 956 q 388 994 404 988 q 354 1000 372 1000 q 288 976 313 1000 q 251 912 264 953 q 233 822 239 871 q 224 719 228 772 q 210 599 219 657 q 176 503 200 542 q 104 460 153 465 q 145 400 136 435 q 154 324 154 365 q 139 235 154 282 q 103 142 124 189 q 67 51 82 94 q 51 -29 51 7 q 71 -92 51 -64 q 142 -121 90 -121 "},"}":{"ha":356,"x_min":-29,"x_max":364,"o":"m 50 -121 q 117 -95 92 -121 q 153 -26 142 -69 q 172 72 165 18 q 182 182 178 126 q 198 310 188 249 q 234 415 208 372 q 310 471 260 458 q 269 530 278 493 q 261 603 261 567 q 276 701 261 650 q 313 801 292 753 q 349 890 333 850 q 364 953 364 929 q 350 985 364 971 q 308 1000 336 1000 q 244 980 272 1000 q 214 931 217 960 q 245 949 232 944 q 264 954 258 954 q 278 948 275 954 q 281 933 281 942 q 266 863 281 904 q 231 774 251 822 q 197 676 211 725 q 182 582 182 626 q 190 530 182 556 q 217 482 197 504 q 158 414 179 463 q 126 303 138 365 q 108 179 115 240 q 91 64 101 119 q 64 -28 81 8 q 18 -64 47 -64 q -29 -47 -4 -64 q -15 -92 -26 -75 q 15 -115 -3 -108 q 50 -121 32 -121 "},"&":{"ha":856,"x_min":-4,"x_max":883,"o":"m 267 -121 q 437 -81 356 -121 q 584 28 518 -40 q 692 185 650 97 q 744 368 735 272 q 781 369 761 368 q 825 369 801 369 q 853 376 839 369 q 883 414 868 382 q 822 421 856 415 q 750 432 788 426 q 671 438 713 438 q 571 418 613 438 q 526 340 529 399 q 601 355 572 350 q 655 363 631 360 q 708 367 679 365 q 663 205 699 283 q 570 64 626 126 q 445 -36 514 1 q 303 -74 376 -74 q 199 -42 238 -74 q 142 35 160 -11 q 125 128 125 82 q 163 276 125 201 q 270 407 201 351 q 432 478 339 463 q 381 543 399 507 q 358 617 364 579 q 351 688 351 654 q 374 827 351 763 q 442 931 397 892 q 551 971 486 971 q 623 944 600 971 q 646 874 646 917 q 613 773 646 819 q 532 683 581 726 q 554 652 540 665 q 583 639 568 639 q 631 670 607 639 q 672 751 656 701 q 689 851 689 800 q 651 961 689 924 q 538 999 613 999 q 390 958 454 999 q 288 851 325 917 q 250 711 250 785 q 276 594 250 653 q 356 492 301 536 q 215 452 281 485 q 101 369 150 419 q 24 257 51 318 q -4 132 -4 196 q 28 6 -4 64 q 122 -86 61 -51 q 267 -121 183 -121 "},"Á":{"ha":822,"x_min":-24,"x_max":899,"o":"m 24 -121 q 138 131 76 3 q 265 379 200 258 q 359 367 308 374 q 471 351 410 361 q 453 242 460 294 q 447 144 447 189 q 473 9 447 60 q 556 -42 499 -42 q 690 29 625 -42 q 796 211 754 100 l 782 225 q 682 69 728 119 q 600 19 636 19 q 560 49 572 19 q 549 131 549 78 q 560 272 549 192 q 592 442 572 353 q 636 618 613 532 q 684 776 660 704 q 730 897 708 849 q 765 956 751 944 q 726 988 744 976 q 692 1000 707 1000 q 625 961 665 1000 q 517 842 582 921 q 378 663 453 764 q 233 456 304 563 q 182 463 207 460 q 133 465 157 465 q 42 449 81 465 q -11 393 4 433 l 38 393 q 100 392 64 393 q 188 386 136 390 q 81 209 129 294 q 5 57 33 124 q -24 -49 -24 -10 q -15 -83 -24 -62 q 24 -121 -7 -103 m 481 400 q 395 422 442 410 q 301 443 349 433 q 429 655 367 558 q 548 819 492 751 q 647 913 604 886 q 588 764 619 849 q 529 585 557 679 q 481 400 501 492 m 743 1039 q 811 1118 774 1079 q 899 1200 849 1157 q 888 1234 897 1225 q 868 1243 879 1243 q 822 1222 847 1243 q 775 1172 797 1201 q 738 1115 753 1142 q 724 1075 724 1088 q 728 1057 724 1069 q 743 1039 733 1044 "},"Ă":{"ha":822,"x_min":-24,"x_max":935,"o":"m 24 -121 q 138 131 76 3 q 265 379 200 258 q 359 367 308 374 q 471 351 410 361 q 453 242 460 294 q 447 144 447 189 q 473 9 447 60 q 556 -42 499 -42 q 690 29 625 -42 q 796 211 754 100 l 782 225 q 682 69 728 119 q 600 19 636 19 q 560 49 572 19 q 549 131 549 78 q 560 272 549 192 q 592 442 572 353 q 636 618 613 532 q 684 776 660 704 q 730 897 708 849 q 765 956 751 944 q 726 988 744 976 q 692 1000 707 1000 q 625 961 665 1000 q 517 842 582 921 q 378 663 453 764 q 233 456 304 563 q 182 463 207 460 q 133 465 157 465 q 42 449 81 465 q -11 393 4 433 l 38 393 q 100 392 64 393 q 188 386 136 390 q 81 209 129 294 q 5 57 33 124 q -24 -49 -24 -10 q -15 -83 -24 -62 q 24 -121 -7 -103 m 481 400 q 395 422 442 410 q 301 443 349 433 q 429 655 367 558 q 548 819 492 751 q 647 913 604 886 q 588 764 619 849 q 529 585 557 679 q 481 400 501 492 m 785 1053 q 890 1085 844 1053 q 935 1164 935 1117 q 932 1185 935 1174 q 921 1206 929 1197 q 872 1149 904 1176 q 788 1122 840 1122 q 705 1162 731 1122 q 675 1249 679 1201 q 651 1222 660 1239 q 642 1181 642 1206 q 656 1126 642 1156 q 701 1074 669 1096 q 785 1053 732 1053 "},"Ắ":{"ha":822,"x_min":-24,"x_max":935,"o":"m 24 -121 q 138 131 76 3 q 265 379 200 258 q 359 367 308 374 q 471 351 410 361 q 453 242 460 294 q 447 144 447 189 q 473 9 447 60 q 556 -42 499 -42 q 690 29 625 -42 q 796 211 754 100 l 782 225 q 682 69 728 119 q 600 19 636 19 q 560 49 572 19 q 549 131 549 78 q 560 272 549 192 q 592 442 572 353 q 636 618 613 532 q 684 776 660 704 q 730 897 708 849 q 765 956 751 944 q 726 988 744 976 q 692 1000 707 1000 q 625 961 665 1000 q 517 842 582 921 q 378 663 453 764 q 233 456 304 563 q 182 463 207 460 q 133 465 157 465 q 42 449 81 465 q -11 393 4 433 l 38 393 q 100 392 64 393 q 188 386 136 390 q 81 209 129 294 q 5 57 33 124 q -24 -49 -24 -10 q -15 -83 -24 -62 q 24 -121 -7 -103 m 481 400 q 395 422 442 410 q 301 443 349 433 q 429 655 367 558 q 548 819 492 751 q 647 913 604 886 q 588 764 619 849 q 529 585 557 679 q 481 400 501 492 m 785 1053 q 890 1085 844 1053 q 935 1164 935 1117 q 932 1185 935 1174 q 921 1206 929 1197 q 872 1149 904 1176 q 788 1122 840 1122 q 705 1162 731 1122 q 675 1249 679 1201 q 651 1222 660 1239 q 642 1181 642 1206 q 656 1126 642 1156 q 701 1074 669 1096 q 785 1053 732 1053 m 800 1200 q 836 1244 817 1222 q 878 1288 856 1265 q 928 1333 901 1310 q 917 1367 926 1358 q 897 1376 908 1376 q 858 1361 879 1376 q 817 1323 836 1346 q 785 1277 797 1300 q 772 1240 772 1254 q 779 1218 772 1229 q 800 1200 786 1207 "},"Ặ":{"ha":822,"x_min":-24,"x_max":935,"o":"m 24 -121 q 138 131 76 3 q 265 379 200 258 q 359 367 308 374 q 471 351 410 361 q 453 242 460 294 q 447 144 447 189 q 473 9 447 60 q 556 -42 499 -42 q 690 29 625 -42 q 796 211 754 100 l 782 225 q 682 69 728 119 q 600 19 636 19 q 560 49 572 19 q 549 131 549 78 q 560 272 549 192 q 592 442 572 353 q 636 618 613 532 q 684 776 660 704 q 730 897 708 849 q 765 956 751 944 q 726 988 744 976 q 692 1000 707 1000 q 625 961 665 1000 q 517 842 582 921 q 378 663 453 764 q 233 456 304 563 q 182 463 207 460 q 133 465 157 465 q 42 449 81 465 q -11 393 4 433 l 38 393 q 100 392 64 393 q 188 386 136 390 q 81 209 129 294 q 5 57 33 124 q -24 -49 -24 -10 q -15 -83 -24 -62 q 24 -121 -7 -103 m 481 400 q 395 422 442 410 q 301 443 349 433 q 429 655 367 558 q 548 819 492 751 q 647 913 604 886 q 588 764 619 849 q 529 585 557 679 q 481 400 501 492 m 785 1053 q 890 1085 844 1053 q 935 1164 935 1117 q 932 1185 935 1174 q 921 1206 929 1197 q 872 1149 904 1176 q 788 1122 840 1122 q 705 1162 731 1122 q 675 1249 679 1201 q 651 1222 660 1239 q 642 1181 642 1206 q 656 1126 642 1156 q 701 1074 669 1096 q 785 1053 732 1053 m 242 -261 q 299 -240 272 -261 q 325 -193 325 -219 q 313 -159 325 -171 q 276 -147 300 -147 q 216 -166 246 -147 q 186 -215 186 -185 q 201 -249 186 -237 q 242 -261 217 -261 "},"Ằ":{"ha":822,"x_min":-24,"x_max":935,"o":"m 24 -121 q 138 131 76 3 q 265 379 200 258 q 359 367 308 374 q 471 351 410 361 q 453 242 460 294 q 447 144 447 189 q 473 9 447 60 q 556 -42 499 -42 q 690 29 625 -42 q 796 211 754 100 l 782 225 q 682 69 728 119 q 600 19 636 19 q 560 49 572 19 q 549 131 549 78 q 560 272 549 192 q 592 442 572 353 q 636 618 613 532 q 684 776 660 704 q 730 897 708 849 q 765 956 751 944 q 726 988 744 976 q 692 1000 707 1000 q 625 961 665 1000 q 517 842 582 921 q 378 663 453 764 q 233 456 304 563 q 182 463 207 460 q 133 465 157 465 q 42 449 81 465 q -11 393 4 433 l 38 393 q 100 392 64 393 q 188 386 136 390 q 81 209 129 294 q 5 57 33 124 q -24 -49 -24 -10 q -15 -83 -24 -62 q 24 -121 -7 -103 m 481 400 q 395 422 442 410 q 301 443 349 433 q 429 655 367 558 q 548 819 492 751 q 647 913 604 886 q 588 764 619 849 q 529 585 557 679 q 481 400 501 492 m 785 1053 q 890 1085 844 1053 q 935 1164 935 1117 q 932 1185 935 1174 q 921 1206 929 1197 q 872 1149 904 1176 q 788 1122 840 1122 q 705 1162 731 1122 q 675 1249 679 1201 q 651 1222 660 1239 q 642 1181 642 1206 q 656 1126 642 1156 q 701 1074 669 1096 q 785 1053 732 1053 m 815 1196 q 837 1214 831 1203 q 843 1236 843 1225 q 831 1273 843 1250 q 799 1319 818 1296 q 758 1357 779 1342 q 718 1372 736 1372 q 699 1363 707 1372 q 688 1329 690 1354 q 738 1283 715 1306 q 779 1240 760 1261 q 815 1196 799 1218 "},"Ẳ":{"ha":822,"x_min":-24,"x_max":935,"o":"m 24 -121 q 138 131 76 3 q 265 379 200 258 q 359 367 308 374 q 471 351 410 361 q 453 242 460 294 q 447 144 447 189 q 473 9 447 60 q 556 -42 499 -42 q 690 29 625 -42 q 796 211 754 100 l 782 225 q 682 69 728 119 q 600 19 636 19 q 560 49 572 19 q 549 131 549 78 q 560 272 549 192 q 592 442 572 353 q 636 618 613 532 q 684 776 660 704 q 730 897 708 849 q 765 956 751 944 q 726 988 744 976 q 692 1000 707 1000 q 625 961 665 1000 q 517 842 582 921 q 378 663 453 764 q 233 456 304 563 q 182 463 207 460 q 133 465 157 465 q 42 449 81 465 q -11 393 4 433 l 38 393 q 100 392 64 393 q 188 386 136 390 q 81 209 129 294 q 5 57 33 124 q -24 -49 -24 -10 q -15 -83 -24 -62 q 24 -121 -7 -103 m 481 400 q 395 422 442 410 q 301 443 349 433 q 429 655 367 558 q 548 819 492 751 q 647 913 604 886 q 588 764 619 849 q 529 585 557 679 q 481 400 501 492 m 785 1053 q 890 1085 844 1053 q 935 1164 935 1117 q 932 1185 935 1174 q 921 1206 929 1197 q 872 1149 904 1176 q 788 1122 840 1122 q 705 1162 731 1122 q 675 1249 679 1201 q 651 1222 660 1239 q 642 1181 642 1206 q 656 1126 642 1156 q 701 1074 669 1096 q 785 1053 732 1053 m 810 1183 q 878 1211 851 1183 q 904 1282 904 1239 q 874 1358 904 1326 q 796 1389 843 1389 q 747 1370 765 1389 q 729 1325 729 1351 q 826 1311 794 1325 q 858 1265 858 1297 q 829 1216 858 1231 q 763 1199 800 1201 q 781 1188 769 1193 q 810 1183 793 1183 "},"Ẵ":{"ha":822,"x_min":-24,"x_max":1043,"o":"m 24 -121 q 138 131 76 3 q 265 379 200 258 q 359 367 308 374 q 471 351 410 361 q 453 242 460 294 q 447 144 447 189 q 473 9 447 60 q 556 -42 499 -42 q 690 29 625 -42 q 796 211 754 100 l 782 225 q 682 69 728 119 q 600 19 636 19 q 560 49 572 19 q 549 131 549 78 q 560 272 549 192 q 592 442 572 353 q 636 618 613 532 q 684 776 660 704 q 730 897 708 849 q 765 956 751 944 q 726 988 744 976 q 692 1000 707 1000 q 625 961 665 1000 q 517 842 582 921 q 378 663 453 764 q 233 456 304 563 q 182 463 207 460 q 133 465 157 465 q 42 449 81 465 q -11 393 4 433 l 38 393 q 100 392 64 393 q 188 386 136 390 q 81 209 129 294 q 5 57 33 124 q -24 -49 -24 -10 q -15 -83 -24 -62 q 24 -121 -7 -103 m 481 400 q 395 422 442 410 q 301 443 349 433 q 429 655 367 558 q 548 819 492 751 q 647 913 604 886 q 588 764 619 849 q 529 585 557 679 q 481 400 501 492 m 785 1053 q 890 1085 844 1053 q 935 1164 935 1117 q 932 1185 935 1174 q 921 1206 929 1197 q 872 1149 904 1176 q 788 1122 840 1122 q 705 1162 731 1122 q 675 1249 679 1201 q 651 1222 660 1239 q 642 1181 642 1206 q 656 1126 642 1156 q 701 1074 669 1096 q 785 1053 732 1053 m 929 1236 q 988 1249 960 1236 q 1043 1293 1017 1261 q 996 1282 1018 1282 q 900 1299 946 1282 q 813 1332 854 1315 q 732 1349 771 1349 q 669 1333 700 1349 q 611 1279 639 1318 q 649 1295 629 1290 q 686 1300 668 1300 q 770 1284 729 1300 q 851 1252 811 1268 q 929 1236 892 1236 "},"Â":{"ha":822,"x_min":-24,"x_max":894,"o":"m 24 -121 q 138 131 76 3 q 265 379 200 258 q 359 367 308 374 q 471 351 410 361 q 453 242 460 294 q 447 144 447 189 q 473 9 447 60 q 556 -42 499 -42 q 690 29 625 -42 q 796 211 754 100 l 782 225 q 682 69 728 119 q 600 19 636 19 q 560 49 572 19 q 549 131 549 78 q 560 272 549 192 q 592 442 572 353 q 636 618 613 532 q 684 776 660 704 q 730 897 708 849 q 765 956 751 944 q 726 988 744 976 q 692 1000 707 1000 q 625 961 665 1000 q 517 842 582 921 q 378 663 453 764 q 233 456 304 563 q 182 463 207 460 q 133 465 157 465 q 42 449 81 465 q -11 393 4 433 l 38 393 q 100 392 64 393 q 188 386 136 390 q 81 209 129 294 q 5 57 33 124 q -24 -49 -24 -10 q -15 -83 -24 -62 q 24 -121 -7 -103 m 481 400 q 395 422 442 410 q 301 443 349 433 q 429 655 367 558 q 548 819 492 751 q 647 913 604 886 q 588 764 619 849 q 529 585 557 679 q 481 400 501 492 m 871 1033 q 889 1051 883 1040 q 894 1076 894 1063 q 881 1125 894 1099 q 849 1176 868 1151 q 808 1215 829 1200 q 769 1231 786 1231 q 729 1219 756 1231 q 676 1190 703 1208 q 630 1150 649 1171 q 611 1108 611 1129 q 614 1095 611 1103 q 625 1082 617 1088 q 691 1128 657 1110 q 768 1161 725 1146 q 826 1102 801 1131 q 871 1033 851 1074 "},"Ấ":{"ha":822,"x_min":-24,"x_max":1046,"o":"m 24 -121 q 138 131 76 3 q 265 379 200 258 q 359 367 308 374 q 471 351 410 361 q 453 242 460 294 q 447 144 447 189 q 473 9 447 60 q 556 -42 499 -42 q 690 29 625 -42 q 796 211 754 100 l 782 225 q 682 69 728 119 q 600 19 636 19 q 560 49 572 19 q 549 131 549 78 q 560 272 549 192 q 592 442 572 353 q 636 618 613 532 q 684 776 660 704 q 730 897 708 849 q 765 956 751 944 q 726 988 744 976 q 692 1000 707 1000 q 625 961 665 1000 q 517 842 582 921 q 378 663 453 764 q 233 456 304 563 q 182 463 207 460 q 133 465 157 465 q 42 449 81 465 q -11 393 4 433 l 38 393 q 100 392 64 393 q 188 386 136 390 q 81 209 129 294 q 5 57 33 124 q -24 -49 -24 -10 q -15 -83 -24 -62 q 24 -121 -7 -103 m 481 400 q 395 422 442 410 q 301 443 349 433 q 429 655 367 558 q 548 819 492 751 q 647 913 604 886 q 588 764 619 849 q 529 585 557 679 q 481 400 501 492 m 918 1165 q 954 1209 935 1188 q 997 1253 974 1231 q 1046 1299 1019 1275 q 1035 1333 1044 1324 q 1015 1342 1026 1342 q 976 1326 997 1342 q 935 1288 954 1311 q 903 1242 915 1265 q 890 1206 890 1219 q 897 1183 890 1194 q 918 1165 904 1172 m 871 1033 q 889 1051 883 1040 q 894 1076 894 1063 q 881 1125 894 1099 q 849 1176 868 1151 q 808 1215 829 1200 q 769 1231 786 1231 q 729 1219 756 1231 q 676 1190 703 1208 q 630 1150 649 1171 q 611 1108 611 1129 q 614 1095 611 1103 q 625 1082 617 1088 q 691 1128 657 1110 q 768 1161 725 1146 q 826 1102 801 1131 q 871 1033 851 1074 "},"Ậ":{"ha":822,"x_min":-24,"x_max":894,"o":"m 24 -121 q 138 131 76 3 q 265 379 200 258 q 359 367 308 374 q 471 351 410 361 q 453 242 460 294 q 447 144 447 189 q 473 9 447 60 q 556 -42 499 -42 q 690 29 625 -42 q 796 211 754 100 l 782 225 q 682 69 728 119 q 600 19 636 19 q 560 49 572 19 q 549 131 549 78 q 560 272 549 192 q 592 442 572 353 q 636 618 613 532 q 684 776 660 704 q 730 897 708 849 q 765 956 751 944 q 726 988 744 976 q 692 1000 707 1000 q 625 961 665 1000 q 517 842 582 921 q 378 663 453 764 q 233 456 304 563 q 182 463 207 460 q 133 465 157 465 q 42 449 81 465 q -11 393 4 433 l 38 393 q 100 392 64 393 q 188 386 136 390 q 81 209 129 294 q 5 57 33 124 q -24 -49 -24 -10 q -15 -83 -24 -62 q 24 -121 -7 -103 m 481 400 q 395 422 442 410 q 301 443 349 433 q 429 655 367 558 q 548 819 492 751 q 647 913 604 886 q 588 764 619 849 q 529 585 557 679 q 481 400 501 492 m 871 1033 q 889 1051 883 1040 q 894 1076 894 1063 q 881 1125 894 1099 q 849 1176 868 1151 q 808 1215 829 1200 q 769 1231 786 1231 q 729 1219 756 1231 q 676 1190 703 1208 q 630 1150 649 1171 q 611 1108 611 1129 q 614 1095 611 1103 q 625 1082 617 1088 q 691 1128 657 1110 q 768 1161 725 1146 q 826 1102 801 1131 q 871 1033 851 1074 m 242 -261 q 299 -240 272 -261 q 325 -193 325 -219 q 313 -159 325 -171 q 276 -147 300 -147 q 216 -166 246 -147 q 186 -215 186 -185 q 201 -249 186 -237 q 242 -261 217 -261 "},"Ầ":{"ha":822,"x_min":-24,"x_max":971,"o":"m 24 -121 q 138 131 76 3 q 265 379 200 258 q 359 367 308 374 q 471 351 410 361 q 453 242 460 294 q 447 144 447 189 q 473 9 447 60 q 556 -42 499 -42 q 690 29 625 -42 q 796 211 754 100 l 782 225 q 682 69 728 119 q 600 19 636 19 q 560 49 572 19 q 549 131 549 78 q 560 272 549 192 q 592 442 572 353 q 636 618 613 532 q 684 776 660 704 q 730 897 708 849 q 765 956 751 944 q 726 988 744 976 q 692 1000 707 1000 q 625 961 665 1000 q 517 842 582 921 q 378 663 453 764 q 233 456 304 563 q 182 463 207 460 q 133 465 157 465 q 42 449 81 465 q -11 393 4 433 l 38 393 q 100 392 64 393 q 188 386 136 390 q 81 209 129 294 q 5 57 33 124 q -24 -49 -24 -10 q -15 -83 -24 -62 q 24 -121 -7 -103 m 481 400 q 395 422 442 410 q 301 443 349 433 q 429 655 367 558 q 548 819 492 751 q 647 913 604 886 q 588 764 619 849 q 529 585 557 679 q 481 400 501 492 m 942 1163 q 971 1204 971 1174 q 961 1243 971 1219 q 936 1291 951 1267 q 902 1332 921 1315 q 867 1349 883 1349 q 844 1341 854 1349 q 832 1310 835 1333 q 876 1258 856 1283 q 913 1210 896 1233 q 942 1163 929 1186 m 871 1033 q 889 1051 883 1040 q 894 1076 894 1063 q 881 1125 894 1099 q 849 1176 868 1151 q 808 1215 829 1200 q 769 1231 786 1231 q 729 1219 756 1231 q 676 1190 703 1208 q 630 1150 649 1171 q 611 1108 611 1129 q 614 1095 611 1103 q 625 1082 617 1088 q 691 1128 657 1110 q 768 1161 725 1146 q 826 1102 801 1131 q 871 1033 851 1074 "},"Ẩ":{"ha":822,"x_min":-24,"x_max":1038,"o":"m 24 -121 q 138 131 76 3 q 265 379 200 258 q 359 367 308 374 q 471 351 410 361 q 453 242 460 294 q 447 144 447 189 q 473 9 447 60 q 556 -42 499 -42 q 690 29 625 -42 q 796 211 754 100 l 782 225 q 682 69 728 119 q 600 19 636 19 q 560 49 572 19 q 549 131 549 78 q 560 272 549 192 q 592 442 572 353 q 636 618 613 532 q 684 776 660 704 q 730 897 708 849 q 765 956 751 944 q 726 988 744 976 q 692 1000 707 1000 q 625 961 665 1000 q 517 842 582 921 q 378 663 453 764 q 233 456 304 563 q 182 463 207 460 q 133 465 157 465 q 42 449 81 465 q -11 393 4 433 l 38 393 q 100 392 64 393 q 188 386 136 390 q 81 209 129 294 q 5 57 33 124 q -24 -49 -24 -10 q -15 -83 -24 -62 q 24 -121 -7 -103 m 481 400 q 395 422 442 410 q 301 443 349 433 q 429 655 367 558 q 548 819 492 751 q 647 913 604 886 q 588 764 619 849 q 529 585 557 679 q 481 400 501 492 m 956 1151 q 1015 1175 992 1151 q 1038 1238 1038 1199 q 1007 1320 1038 1286 q 929 1354 976 1354 q 881 1335 899 1354 q 863 1290 863 1317 q 960 1275 928 1290 q 992 1228 992 1260 q 967 1184 992 1199 q 913 1167 942 1169 q 931 1156 919 1161 q 956 1151 942 1151 m 871 1033 q 889 1051 883 1040 q 894 1076 894 1063 q 881 1125 894 1099 q 849 1176 868 1151 q 808 1215 829 1200 q 769 1231 786 1231 q 729 1219 756 1231 q 676 1190 703 1208 q 630 1150 649 1171 q 611 1108 611 1129 q 614 1095 611 1103 q 625 1082 617 1088 q 691 1128 657 1110 q 768 1161 725 1146 q 826 1102 801 1131 q 871 1033 851 1074 "},"Ẫ":{"ha":822,"x_min":-24,"x_max":1043,"o":"m 24 -121 q 138 131 76 3 q 265 379 200 258 q 359 367 308 374 q 471 351 410 361 q 453 242 460 294 q 447 144 447 189 q 473 9 447 60 q 556 -42 499 -42 q 690 29 625 -42 q 796 211 754 100 l 782 225 q 682 69 728 119 q 600 19 636 19 q 560 49 572 19 q 549 131 549 78 q 560 272 549 192 q 592 442 572 353 q 636 618 613 532 q 684 776 660 704 q 730 897 708 849 q 765 956 751 944 q 726 988 744 976 q 692 1000 707 1000 q 625 961 665 1000 q 517 842 582 921 q 378 663 453 764 q 233 456 304 563 q 182 463 207 460 q 133 465 157 465 q 42 449 81 465 q -11 393 4 433 l 38 393 q 100 392 64 393 q 188 386 136 390 q 81 209 129 294 q 5 57 33 124 q -24 -49 -24 -10 q -15 -83 -24 -62 q 24 -121 -7 -103 m 481 400 q 395 422 442 410 q 301 443 349 433 q 429 655 367 558 q 548 819 492 751 q 647 913 604 886 q 588 764 619 849 q 529 585 557 679 q 481 400 501 492 m 785 1053 q 890 1085 844 1053 q 935 1164 935 1117 q 932 1185 935 1174 q 921 1206 929 1197 q 872 1149 904 1176 q 788 1122 840 1122 q 705 1162 731 1122 q 675 1249 679 1201 q 651 1222 660 1239 q 642 1181 642 1206 q 656 1126 642 1156 q 701 1074 669 1096 q 785 1053 732 1053 m 929 1236 q 988 1249 960 1236 q 1043 1293 1017 1261 q 996 1282 1018 1282 q 900 1299 946 1282 q 813 1332 854 1315 q 732 1349 771 1349 q 669 1333 700 1349 q 611 1279 639 1318 q 649 1295 629 1290 q 686 1300 668 1300 q 770 1284 729 1300 q 851 1252 811 1268 q 929 1236 892 1236 "},"Ȁ":{"ha":822,"x_min":-24,"x_max":829,"o":"m 24 -121 q 138 131 76 3 q 265 379 200 258 q 359 367 308 374 q 471 351 410 361 q 453 242 460 294 q 447 144 447 189 q 473 9 447 60 q 556 -42 499 -42 q 690 29 625 -42 q 796 211 754 100 l 782 225 q 682 69 728 119 q 600 19 636 19 q 560 49 572 19 q 549 131 549 78 q 560 272 549 192 q 592 442 572 353 q 636 618 613 532 q 684 776 660 704 q 730 897 708 849 q 765 956 751 944 q 726 988 744 976 q 692 1000 707 1000 q 625 961 665 1000 q 517 842 582 921 q 378 663 453 764 q 233 456 304 563 q 182 463 207 460 q 133 465 157 465 q 42 449 81 465 q -11 393 4 433 l 38 393 q 100 392 64 393 q 188 386 136 390 q 81 209 129 294 q 5 57 33 124 q -24 -49 -24 -10 q -15 -83 -24 -62 q 24 -121 -7 -103 m 481 400 q 395 422 442 410 q 301 443 349 433 q 429 655 367 558 q 548 819 492 751 q 647 913 604 886 q 588 764 619 849 q 529 585 557 679 q 481 400 501 492 m 710 1038 q 725 1069 725 1049 q 715 1111 725 1085 q 688 1166 704 1138 q 653 1214 672 1194 q 617 1233 635 1233 q 594 1226 604 1233 q 576 1210 585 1219 q 649 1121 615 1164 q 710 1038 682 1078 m 801 1044 q 821 1056 813 1047 q 829 1086 829 1065 q 822 1126 829 1101 q 801 1176 814 1151 q 772 1219 789 1201 q 738 1236 756 1236 q 719 1229 728 1236 q 701 1201 710 1222 q 758 1122 732 1163 q 801 1044 783 1081 "},"Ä":{"ha":822,"x_min":-24,"x_max":928,"o":"m 24 -121 q 138 131 76 3 q 265 379 200 258 q 359 367 308 374 q 471 351 410 361 q 453 242 460 294 q 447 144 447 189 q 473 9 447 60 q 556 -42 499 -42 q 690 29 625 -42 q 796 211 754 100 l 782 225 q 682 69 728 119 q 600 19 636 19 q 560 49 572 19 q 549 131 549 78 q 560 272 549 192 q 592 442 572 353 q 636 618 613 532 q 684 776 660 704 q 730 897 708 849 q 765 956 751 944 q 726 988 744 976 q 692 1000 707 1000 q 625 961 665 1000 q 517 842 582 921 q 378 663 453 764 q 233 456 304 563 q 182 463 207 460 q 133 465 157 465 q 42 449 81 465 q -11 393 4 433 l 38 393 q 100 392 64 393 q 188 386 136 390 q 81 209 129 294 q 5 57 33 124 q -24 -49 -24 -10 q -15 -83 -24 -62 q 24 -121 -7 -103 m 481 400 q 395 422 442 410 q 301 443 349 433 q 429 655 367 558 q 548 819 492 751 q 647 913 604 886 q 588 764 619 849 q 529 585 557 679 q 481 400 501 492 m 846 1046 q 902 1068 876 1046 q 928 1114 928 1090 q 917 1144 928 1136 q 886 1153 906 1153 q 825 1133 856 1153 q 794 1088 794 1114 q 810 1056 794 1065 q 846 1046 825 1046 m 646 1075 q 702 1097 676 1075 q 728 1143 728 1119 q 717 1174 728 1165 q 686 1182 706 1182 q 625 1163 656 1182 q 594 1117 594 1143 q 610 1085 594 1094 q 646 1075 625 1075 "},"Ạ":{"ha":822,"x_min":-24,"x_max":796,"o":"m 24 -121 q 138 131 76 3 q 265 379 200 258 q 359 367 308 374 q 471 351 410 361 q 453 242 460 294 q 447 144 447 189 q 473 9 447 60 q 556 -42 499 -42 q 690 29 625 -42 q 796 211 754 100 l 782 225 q 682 69 728 119 q 600 19 636 19 q 560 49 572 19 q 549 131 549 78 q 560 272 549 192 q 592 442 572 353 q 636 618 613 532 q 684 776 660 704 q 730 897 708 849 q 765 956 751 944 q 726 988 744 976 q 692 1000 707 1000 q 625 961 665 1000 q 517 842 582 921 q 378 663 453 764 q 233 456 304 563 q 182 463 207 460 q 133 465 157 465 q 42 449 81 465 q -11 393 4 433 l 38 393 q 100 392 64 393 q 188 386 136 390 q 81 209 129 294 q 5 57 33 124 q -24 -49 -24 -10 q -15 -83 -24 -62 q 24 -121 -7 -103 m 481 400 q 395 422 442 410 q 301 443 349 433 q 429 655 367 558 q 548 819 492 751 q 647 913 604 886 q 588 764 619 849 q 529 585 557 679 q 481 400 501 492 m 242 -261 q 299 -240 272 -261 q 325 -193 325 -219 q 313 -159 325 -171 q 276 -147 300 -147 q 216 -166 246 -147 q 186 -215 186 -185 q 201 -249 186 -237 q 242 -261 217 -261 "},"À":{"ha":822,"x_min":-24,"x_max":796,"o":"m 24 -121 q 138 131 76 3 q 265 379 200 258 q 359 367 308 374 q 471 351 410 361 q 453 242 460 294 q 447 144 447 189 q 473 9 447 60 q 556 -42 499 -42 q 690 29 625 -42 q 796 211 754 100 l 782 225 q 682 69 728 119 q 600 19 636 19 q 560 49 572 19 q 549 131 549 78 q 560 272 549 192 q 592 442 572 353 q 636 618 613 532 q 684 776 660 704 q 730 897 708 849 q 765 956 751 944 q 726 988 744 976 q 692 1000 707 1000 q 625 961 665 1000 q 517 842 582 921 q 378 663 453 764 q 233 456 304 563 q 182 463 207 460 q 133 465 157 465 q 42 449 81 465 q -11 393 4 433 l 38 393 q 100 392 64 393 q 188 386 136 390 q 81 209 129 294 q 5 57 33 124 q -24 -49 -24 -10 q -15 -83 -24 -62 q 24 -121 -7 -103 m 481 400 q 395 422 442 410 q 301 443 349 433 q 429 655 367 558 q 548 819 492 751 q 647 913 604 886 q 588 764 619 849 q 529 585 557 679 q 481 400 501 492 m 740 1039 q 756 1057 751 1044 q 760 1075 760 1069 q 745 1115 760 1088 q 708 1172 731 1142 q 661 1222 686 1201 q 615 1243 636 1243 q 596 1234 604 1243 q 585 1200 588 1225 q 672 1118 635 1157 q 740 1039 710 1079 "},"Ả":{"ha":822,"x_min":-24,"x_max":876,"o":"m 24 -121 q 138 131 76 3 q 265 379 200 258 q 359 367 308 374 q 471 351 410 361 q 453 242 460 294 q 447 144 447 189 q 473 9 447 60 q 556 -42 499 -42 q 690 29 625 -42 q 796 211 754 100 l 782 225 q 682 69 728 119 q 600 19 636 19 q 560 49 572 19 q 549 131 549 78 q 560 272 549 192 q 592 442 572 353 q 636 618 613 532 q 684 776 660 704 q 730 897 708 849 q 765 956 751 944 q 726 988 744 976 q 692 1000 707 1000 q 625 961 665 1000 q 517 842 582 921 q 378 663 453 764 q 233 456 304 563 q 182 463 207 460 q 133 465 157 465 q 42 449 81 465 q -11 393 4 433 l 38 393 q 100 392 64 393 q 188 386 136 390 q 81 209 129 294 q 5 57 33 124 q -24 -49 -24 -10 q -15 -83 -24 -62 q 24 -121 -7 -103 m 481 400 q 395 422 442 410 q 301 443 349 433 q 429 655 367 558 q 548 819 492 751 q 647 913 604 886 q 588 764 619 849 q 529 585 557 679 q 481 400 501 492 m 782 1042 q 850 1069 824 1042 q 876 1140 876 1097 q 846 1216 876 1185 q 768 1247 815 1247 q 719 1228 738 1247 q 701 1183 701 1210 q 799 1169 767 1183 q 831 1124 831 1156 q 801 1074 831 1089 q 735 1057 772 1060 q 753 1047 742 1051 q 782 1042 765 1042 "},"Ȃ":{"ha":822,"x_min":-24,"x_max":917,"o":"m 24 -121 q 138 131 76 3 q 265 379 200 258 q 359 367 308 374 q 471 351 410 361 q 453 242 460 294 q 447 144 447 189 q 473 9 447 60 q 556 -42 499 -42 q 690 29 625 -42 q 796 211 754 100 l 782 225 q 682 69 728 119 q 600 19 636 19 q 560 49 572 19 q 549 131 549 78 q 560 272 549 192 q 592 442 572 353 q 636 618 613 532 q 684 776 660 704 q 730 897 708 849 q 765 956 751 944 q 726 988 744 976 q 692 1000 707 1000 q 625 961 665 1000 q 517 842 582 921 q 378 663 453 764 q 233 456 304 563 q 182 463 207 460 q 133 465 157 465 q 42 449 81 465 q -11 393 4 433 l 38 393 q 100 392 64 393 q 188 386 136 390 q 81 209 129 294 q 5 57 33 124 q -24 -49 -24 -10 q -15 -83 -24 -62 q 24 -121 -7 -103 m 481 400 q 395 422 442 410 q 301 443 349 433 q 429 655 367 558 q 548 819 492 751 q 647 913 604 886 q 588 764 619 849 q 529 585 557 679 q 481 400 501 492 m 883 1011 q 908 1041 899 1022 q 917 1086 917 1060 q 901 1138 917 1110 q 854 1187 886 1167 q 772 1207 822 1207 q 667 1175 710 1207 q 624 1096 624 1143 q 627 1074 624 1086 q 638 1054 631 1063 q 682 1110 653 1083 q 760 1138 711 1138 q 852 1098 825 1138 q 883 1011 879 1058 "},"Ā":{"ha":822,"x_min":-24,"x_max":946,"o":"m 24 -121 q 138 131 76 3 q 265 379 200 258 q 359 367 308 374 q 471 351 410 361 q 453 242 460 294 q 447 144 447 189 q 473 9 447 60 q 556 -42 499 -42 q 690 29 625 -42 q 796 211 754 100 l 782 225 q 682 69 728 119 q 600 19 636 19 q 560 49 572 19 q 549 131 549 78 q 560 272 549 192 q 592 442 572 353 q 636 618 613 532 q 684 776 660 704 q 730 897 708 849 q 765 956 751 944 q 726 988 744 976 q 692 1000 707 1000 q 625 961 665 1000 q 517 842 582 921 q 378 663 453 764 q 233 456 304 563 q 182 463 207 460 q 133 465 157 465 q 42 449 81 465 q -11 393 4 433 l 38 393 q 100 392 64 393 q 188 386 136 390 q 81 209 129 294 q 5 57 33 124 q -24 -49 -24 -10 q -15 -83 -24 -62 q 24 -121 -7 -103 m 481 400 q 395 422 442 410 q 301 443 349 433 q 429 655 367 558 q 548 819 492 751 q 647 913 604 886 q 588 764 619 849 q 529 585 557 679 q 481 400 501 492 m 893 1050 q 946 1078 926 1050 q 838 1108 897 1093 q 721 1133 779 1122 q 611 1143 663 1143 q 547 1107 561 1143 q 624 1095 579 1104 q 720 1076 669 1086 q 817 1058 771 1065 q 893 1050 863 1050 "},"Ą":{"ha":822,"x_min":-24,"x_max":796,"o":"m 24 -121 q 138 131 76 3 q 265 379 200 258 q 359 367 308 374 q 471 351 410 361 q 453 242 460 294 q 447 144 447 189 q 473 9 447 60 q 556 -42 499 -42 q 690 29 625 -42 q 796 211 754 100 l 782 225 q 682 69 728 119 q 600 19 636 19 q 560 49 572 19 q 549 131 549 78 q 560 272 549 192 q 592 442 572 353 q 636 618 613 532 q 684 776 660 704 q 730 897 708 849 q 765 956 751 944 q 726 988 744 976 q 692 1000 707 1000 q 625 961 665 1000 q 517 842 582 921 q 378 663 453 764 q 233 456 304 563 q 182 463 207 460 q 133 465 157 465 q 42 449 81 465 q -11 393 4 433 l 38 393 q 100 392 64 393 q 188 386 136 390 q 81 209 129 294 q 5 57 33 124 q -24 -49 -24 -10 q -15 -83 -24 -62 q 24 -121 -7 -103 m 481 400 q 395 422 442 410 q 301 443 349 433 q 429 655 367 558 q 548 819 492 751 q 647 913 604 886 q 588 764 619 849 q 529 585 557 679 q 481 400 501 492 m 635 -217 q 700 -194 675 -217 q 726 -133 725 -172 q 693 -151 710 -146 q 657 -157 676 -157 q 606 -138 622 -157 q 589 -96 589 -119 q 603 -49 589 -68 q 639 -14 617 -29 q 569 -48 599 -19 q 539 -122 539 -76 q 565 -190 539 -164 q 635 -217 592 -217 "},"Å":{"ha":822,"x_min":-24,"x_max":917,"o":"m 24 -121 q 138 131 76 3 q 265 379 200 258 q 359 367 308 374 q 471 351 410 361 q 453 242 460 294 q 447 144 447 189 q 473 9 447 60 q 556 -42 499 -42 q 690 29 625 -42 q 796 211 754 100 l 782 225 q 682 69 728 119 q 600 19 636 19 q 560 49 572 19 q 549 131 549 78 q 560 272 549 192 q 592 442 572 353 q 636 618 613 532 q 684 776 660 704 q 730 897 708 849 q 765 956 751 944 q 726 988 744 976 q 692 1000 707 1000 q 625 961 665 1000 q 517 842 582 921 q 378 663 453 764 q 233 456 304 563 q 182 463 207 460 q 133 465 157 465 q 42 449 81 465 q -11 393 4 433 l 38 393 q 100 392 64 393 q 188 386 136 390 q 81 209 129 294 q 5 57 33 124 q -24 -49 -24 -10 q -15 -83 -24 -62 q 24 -121 -7 -103 m 481 400 q 395 422 442 410 q 301 443 349 433 q 429 655 367 558 q 548 819 492 751 q 647 913 604 886 q 588 764 619 849 q 529 585 557 679 q 481 400 501 492 m 742 1047 q 828 1072 789 1047 q 892 1133 868 1097 q 917 1203 917 1169 q 892 1256 917 1235 q 811 1278 868 1278 q 726 1253 764 1278 q 665 1192 688 1228 q 642 1122 642 1156 q 665 1069 642 1092 q 742 1047 688 1047 m 754 1075 q 710 1094 724 1075 q 696 1132 696 1114 q 711 1183 696 1157 q 751 1228 726 1210 q 804 1246 776 1246 q 851 1230 836 1246 q 865 1194 865 1214 q 849 1142 865 1171 q 807 1094 832 1114 q 754 1075 782 1075 "},"Ǻ":{"ha":822,"x_min":-24,"x_max":1024,"o":"m 24 -121 q 138 131 76 3 q 265 379 200 258 q 359 367 308 374 q 471 351 410 361 q 453 242 460 294 q 447 144 447 189 q 473 9 447 60 q 556 -42 499 -42 q 690 29 625 -42 q 796 211 754 100 l 782 225 q 682 69 728 119 q 600 19 636 19 q 560 49 572 19 q 549 131 549 78 q 560 272 549 192 q 592 442 572 353 q 636 618 613 532 q 684 776 660 704 q 730 897 708 849 q 765 956 751 944 q 726 988 744 976 q 692 1000 707 1000 q 625 961 665 1000 q 517 842 582 921 q 378 663 453 764 q 233 456 304 563 q 182 463 207 460 q 133 465 157 465 q 42 449 81 465 q -11 393 4 433 l 38 393 q 100 392 64 393 q 188 386 136 390 q 81 209 129 294 q 5 57 33 124 q -24 -49 -24 -10 q -15 -83 -24 -62 q 24 -121 -7 -103 m 481 400 q 395 422 442 410 q 301 443 349 433 q 429 655 367 558 q 548 819 492 751 q 647 913 604 886 q 588 764 619 849 q 529 585 557 679 q 481 400 501 492 m 742 1047 q 828 1072 789 1047 q 892 1133 868 1097 q 917 1203 917 1169 q 892 1256 917 1235 q 811 1278 868 1278 q 726 1253 764 1278 q 665 1192 688 1228 q 642 1122 642 1156 q 665 1069 642 1092 q 742 1047 688 1047 m 754 1075 q 710 1094 724 1075 q 696 1132 696 1114 q 711 1183 696 1157 q 751 1228 726 1210 q 804 1246 776 1246 q 851 1230 836 1246 q 865 1194 865 1214 q 849 1142 865 1171 q 807 1094 832 1114 q 754 1075 782 1075 m 868 1317 q 936 1396 899 1357 q 1024 1478 974 1435 q 1013 1512 1022 1503 q 993 1521 1004 1521 q 947 1500 972 1521 q 900 1449 922 1479 q 863 1392 878 1419 q 849 1353 849 1365 q 853 1335 849 1347 q 868 1317 858 1322 "},"Ã":{"ha":822,"x_min":-24,"x_max":976,"o":"m 24 -121 q 138 131 76 3 q 265 379 200 258 q 359 367 308 374 q 471 351 410 361 q 453 242 460 294 q 447 144 447 189 q 473 9 447 60 q 556 -42 499 -42 q 690 29 625 -42 q 796 211 754 100 l 782 225 q 682 69 728 119 q 600 19 636 19 q 560 49 572 19 q 549 131 549 78 q 560 272 549 192 q 592 442 572 353 q 636 618 613 532 q 684 776 660 704 q 730 897 708 849 q 765 956 751 944 q 726 988 744 976 q 692 1000 707 1000 q 625 961 665 1000 q 517 842 582 921 q 378 663 453 764 q 233 456 304 563 q 182 463 207 460 q 133 465 157 465 q 42 449 81 465 q -11 393 4 433 l 38 393 q 100 392 64 393 q 188 386 136 390 q 81 209 129 294 q 5 57 33 124 q -24 -49 -24 -10 q -15 -83 -24 -62 q 24 -121 -7 -103 m 481 400 q 395 422 442 410 q 301 443 349 433 q 429 655 367 558 q 548 819 492 751 q 647 913 604 886 q 588 764 619 849 q 529 585 557 679 q 481 400 501 492 m 863 1057 q 922 1069 893 1057 q 976 1114 950 1082 q 929 1103 951 1103 q 833 1119 879 1103 q 746 1153 788 1136 q 665 1169 704 1169 q 603 1154 633 1169 q 544 1100 572 1139 q 582 1116 563 1111 q 619 1121 601 1121 q 703 1105 663 1121 q 785 1073 744 1089 q 863 1057 825 1057 "},"Æ":{"ha":1038,"x_min":-24,"x_max":1121,"o":"m 24 -121 q 138 131 76 3 q 265 379 200 258 q 359 367 308 374 q 471 351 410 361 q 453 242 460 294 q 447 144 447 189 q 457 51 447 93 q 488 -12 467 8 q 583 -17 528 -17 q 694 -18 638 -18 q 802 -14 751 -18 q 888 1 853 -10 q 931 32 924 11 q 862 42 907 38 q 762 52 817 47 q 652 62 707 57 q 553 74 597 67 q 550 99 551 85 q 549 131 549 114 q 565 297 549 200 q 604 496 581 394 q 637 494 619 494 q 678 494 654 494 q 785 499 735 494 q 872 513 836 503 q 914 544 907 524 q 794 563 867 551 q 625 576 721 575 q 686 781 654 688 q 742 921 718 874 q 810 919 774 919 q 885 918 847 918 q 992 922 942 918 q 1078 937 1043 926 q 1121 968 1114 947 q 1042 978 1092 972 q 933 988 993 983 q 810 997 872 993 q 692 1000 747 1000 q 622 956 669 1000 q 510 835 574 911 q 376 660 447 758 q 233 456 304 563 q 182 463 207 460 q 133 465 157 465 q 42 449 81 465 q -11 393 4 433 l 38 393 q 100 392 64 393 q 188 386 136 390 q 81 209 129 294 q 5 57 33 124 q -24 -49 -24 -10 q -15 -83 -24 -62 q 24 -121 -7 -103 m 481 400 q 395 422 442 410 q 301 443 349 433 q 429 655 367 558 q 548 819 492 751 q 647 913 604 886 q 588 764 619 849 q 529 585 557 679 q 481 400 501 492 "},"Ǽ":{"ha":1038,"x_min":-24,"x_max":1121,"o":"m 24 -121 q 138 131 76 3 q 265 379 200 258 q 359 367 308 374 q 471 351 410 361 q 453 242 460 294 q 447 144 447 189 q 457 51 447 93 q 488 -12 467 8 q 583 -17 528 -17 q 694 -18 638 -18 q 802 -14 751 -18 q 888 1 853 -10 q 931 32 924 11 q 862 42 907 38 q 762 52 817 47 q 652 62 707 57 q 553 74 597 67 q 550 99 551 85 q 549 131 549 114 q 565 297 549 200 q 604 496 581 394 q 637 494 619 494 q 678 494 654 494 q 785 499 735 494 q 872 513 836 503 q 914 544 907 524 q 794 563 867 551 q 625 576 721 575 q 686 781 654 688 q 742 921 718 874 q 810 919 774 919 q 885 918 847 918 q 992 922 942 918 q 1078 937 1043 926 q 1121 968 1114 947 q 1042 978 1092 972 q 933 988 993 983 q 810 997 872 993 q 692 1000 747 1000 q 622 956 669 1000 q 510 835 574 911 q 376 660 447 758 q 233 456 304 563 q 182 463 207 460 q 133 465 157 465 q 42 449 81 465 q -11 393 4 433 l 38 393 q 100 392 64 393 q 188 386 136 390 q 81 209 129 294 q 5 57 33 124 q -24 -49 -24 -10 q -15 -83 -24 -62 q 24 -121 -7 -103 m 481 400 q 395 422 442 410 q 301 443 349 433 q 429 655 367 558 q 548 819 492 751 q 647 913 604 886 q 588 764 619 849 q 529 585 557 679 q 481 400 501 492 m 801 1039 q 869 1118 832 1079 q 957 1200 907 1157 q 947 1234 956 1225 q 926 1243 938 1243 q 881 1222 906 1243 q 833 1172 856 1201 q 797 1115 811 1142 q 782 1075 782 1088 q 787 1057 782 1069 q 801 1039 792 1044 "},"Ć":{"ha":742,"x_min":31,"x_max":831,"o":"m 304 -121 q 478 -76 397 -121 q 624 45 558 -31 q 735 211 689 121 l 715 225 q 618 78 679 146 q 484 -32 557 10 q 338 -74 411 -74 q 224 -35 268 -74 q 161 65 181 3 q 142 194 142 126 q 170 393 142 289 q 247 597 199 497 q 356 778 296 697 q 481 908 417 860 q 606 957 546 957 q 658 940 642 957 q 674 894 674 922 q 659 827 674 865 q 621 749 644 789 q 572 674 597 710 q 525 615 546 639 q 545 590 533 597 q 568 583 557 583 q 626 614 597 583 q 678 691 654 644 q 715 788 701 738 q 729 879 729 839 q 694 972 729 944 q 601 999 658 999 q 441 953 522 999 q 286 830 360 908 q 155 651 213 751 q 64 439 97 550 q 31 218 31 328 q 58 56 31 133 q 145 -72 85 -22 q 304 -121 206 -121 m 675 1038 q 743 1117 706 1078 q 831 1199 781 1156 q 820 1233 829 1224 q 800 1242 811 1242 q 754 1221 779 1242 q 707 1170 729 1200 q 670 1113 685 1140 q 656 1074 656 1086 q 660 1056 656 1068 q 675 1038 665 1043 "},"Č":{"ha":742,"x_min":31,"x_max":829,"o":"m 304 -121 q 478 -76 397 -121 q 624 45 558 -31 q 735 211 689 121 l 715 225 q 618 78 679 146 q 484 -32 557 10 q 338 -74 411 -74 q 224 -35 268 -74 q 161 65 181 3 q 142 194 142 126 q 170 393 142 289 q 247 597 199 497 q 356 778 296 697 q 481 908 417 860 q 606 957 546 957 q 658 940 642 957 q 674 894 674 922 q 659 827 674 865 q 621 749 644 789 q 572 674 597 710 q 525 615 546 639 q 545 590 533 597 q 568 583 557 583 q 626 614 597 583 q 678 691 654 644 q 715 788 701 738 q 729 879 729 839 q 694 972 729 944 q 601 999 658 999 q 441 953 522 999 q 286 830 360 908 q 155 651 213 751 q 64 439 97 550 q 31 218 31 328 q 58 56 31 133 q 145 -72 85 -22 q 304 -121 206 -121 m 671 1046 q 711 1057 685 1046 q 765 1087 738 1068 q 810 1126 792 1106 q 829 1168 829 1147 q 826 1182 829 1175 q 815 1194 824 1189 q 750 1149 785 1167 q 672 1115 715 1131 q 614 1176 639 1147 q 569 1243 589 1204 q 551 1226 557 1238 q 546 1200 546 1214 q 559 1151 546 1178 q 592 1101 572 1125 q 633 1061 611 1076 q 671 1046 654 1046 "},"Ç":{"ha":742,"x_min":31,"x_max":735,"o":"m 304 -121 q 478 -76 397 -121 q 624 45 558 -31 q 735 211 689 121 l 715 225 q 618 78 679 146 q 484 -32 557 10 q 338 -74 411 -74 q 224 -35 268 -74 q 161 65 181 3 q 142 194 142 126 q 170 393 142 289 q 247 597 199 497 q 356 778 296 697 q 481 908 417 860 q 606 957 546 957 q 658 940 642 957 q 674 894 674 922 q 659 827 674 865 q 621 749 644 789 q 572 674 597 710 q 525 615 546 639 q 545 590 533 597 q 568 583 557 583 q 626 614 597 583 q 678 691 654 644 q 715 788 701 738 q 729 879 729 839 q 694 972 729 944 q 601 999 658 999 q 441 953 522 999 q 286 830 360 908 q 155 651 213 751 q 64 439 97 550 q 31 218 31 328 q 58 56 31 133 q 145 -72 85 -22 q 304 -121 206 -121 m 500 -293 q 580 -271 543 -293 q 640 -212 617 -249 q 663 -137 663 -176 q 647 -94 663 -108 q 600 -79 632 -79 q 544 -90 567 -79 q 507 -112 522 -101 l 581 0 l 563 0 q 533 -33 550 -11 q 499 -77 515 -54 q 470 -117 482 -100 q 458 -136 458 -133 q 463 -152 458 -143 q 478 -161 468 -161 q 507 -147 486 -161 q 553 -118 528 -132 q 596 -104 578 -104 q 615 -116 610 -104 q 619 -139 619 -128 q 601 -191 619 -162 q 557 -240 583 -219 q 504 -260 531 -260 q 469 -245 486 -260 q 446 -197 453 -231 q 423 -220 431 -208 q 415 -243 415 -232 q 438 -278 415 -262 q 500 -293 460 -293 "},"Ĉ":{"ha":742,"x_min":31,"x_max":826,"o":"m 304 -121 q 478 -76 397 -121 q 624 45 558 -31 q 735 211 689 121 l 715 225 q 618 78 679 146 q 484 -32 557 10 q 338 -74 411 -74 q 224 -35 268 -74 q 161 65 181 3 q 142 194 142 126 q 170 393 142 289 q 247 597 199 497 q 356 778 296 697 q 481 908 417 860 q 606 957 546 957 q 658 940 642 957 q 674 894 674 922 q 659 827 674 865 q 621 749 644 789 q 572 674 597 710 q 525 615 546 639 q 545 590 533 597 q 568 583 557 583 q 626 614 597 583 q 678 691 654 644 q 715 788 701 738 q 729 879 729 839 q 694 972 729 944 q 601 999 658 999 q 441 953 522 999 q 286 830 360 908 q 155 651 213 751 q 64 439 97 550 q 31 218 31 328 q 58 56 31 133 q 145 -72 85 -22 q 304 -121 206 -121 m 803 1032 q 821 1050 815 1039 q 826 1075 826 1061 q 813 1124 826 1097 q 781 1174 800 1150 q 740 1214 761 1199 q 701 1229 718 1229 q 661 1218 688 1229 q 608 1188 635 1207 q 562 1149 581 1169 q 543 1107 543 1128 q 546 1094 543 1101 q 557 1081 549 1086 q 623 1126 589 1108 q 700 1160 657 1144 q 758 1101 733 1129 q 803 1032 783 1072 "},"Ċ":{"ha":742,"x_min":31,"x_max":765,"o":"m 304 -121 q 478 -76 397 -121 q 624 45 558 -31 q 735 211 689 121 l 715 225 q 618 78 679 146 q 484 -32 557 10 q 338 -74 411 -74 q 224 -35 268 -74 q 161 65 181 3 q 142 194 142 126 q 170 393 142 289 q 247 597 199 497 q 356 778 296 697 q 481 908 417 860 q 606 957 546 957 q 658 940 642 957 q 674 894 674 922 q 659 827 674 865 q 621 749 644 789 q 572 674 597 710 q 525 615 546 639 q 545 590 533 597 q 568 583 557 583 q 626 614 597 583 q 678 691 654 644 q 715 788 701 738 q 729 879 729 839 q 694 972 729 944 q 601 999 658 999 q 441 953 522 999 q 286 830 360 908 q 155 651 213 751 q 64 439 97 550 q 31 218 31 328 q 58 56 31 133 q 145 -72 85 -22 q 304 -121 206 -121 m 682 1069 q 739 1090 713 1069 q 765 1138 765 1111 q 753 1172 765 1160 q 717 1183 740 1183 q 656 1165 686 1183 q 626 1115 626 1146 q 642 1081 626 1093 q 682 1069 657 1069 "},"Ǆ":{"ha":1763,"x_min":78,"x_max":1803,"o":"m 226 -121 q 420 -83 324 -121 q 601 24 517 -44 q 752 185 686 93 q 856 388 818 278 q 893 619 893 499 q 858 813 893 726 q 748 949 824 899 q 547 1000 672 1000 q 379 974 458 1000 q 240 907 300 949 q 145 816 179 865 q 111 718 111 767 q 130 663 111 686 q 194 640 149 640 q 190 663 192 650 q 188 692 188 675 q 229 829 188 768 q 343 926 271 890 q 506 963 415 963 q 654 928 590 963 q 754 820 718 893 q 790 635 790 747 q 760 428 790 532 q 676 233 731 325 q 551 69 622 140 q 397 -44 479 -3 q 225 -85 314 -85 q 198 -83 211 -85 q 165 -79 185 -82 q 221 143 188 21 q 294 394 254 265 q 378 643 335 522 q 465 864 422 764 q 426 878 446 878 q 388 862 406 878 q 356 824 369 846 q 332 780 342 801 q 318 747 322 758 q 290 669 308 721 q 250 550 272 618 q 203 403 228 482 q 156 244 179 325 q 112 85 132 163 q 78 -58 92 8 q 144 -109 106 -97 q 226 -121 183 -121 m 1507 -121 q 1594 -94 1557 -121 q 1653 -3 1631 -67 q 1607 -19 1631 -14 q 1554 -25 1583 -25 q 1394 0 1483 -25 q 1214 53 1304 25 q 1370 232 1292 128 q 1517 449 1449 336 q 1613 453 1579 450 q 1666 465 1647 456 q 1700 497 1685 475 q 1631 501 1668 497 q 1553 510 1594 506 q 1656 701 1610 608 q 1733 865 1703 793 q 1766 885 1749 874 q 1803 914 1783 897 q 1783 912 1793 913 q 1758 911 1772 911 q 1649 924 1704 911 q 1536 956 1594 938 q 1415 987 1478 974 q 1278 1000 1351 1000 q 1082 953 1154 1000 q 1010 813 1010 906 q 1027 745 1010 771 q 1085 713 1044 719 q 1082 726 1083 719 q 1080 742 1081 733 q 1079 761 1079 750 q 1100 881 1079 838 q 1156 943 1121 925 q 1236 961 1192 961 q 1373 936 1299 961 q 1514 885 1447 911 q 1572 863 1544 874 q 1622 847 1600 853 q 1557 701 1600 788 q 1460 518 1514 614 q 1428 520 1444 519 q 1397 521 1413 521 q 1295 513 1342 521 q 1221 483 1249 504 q 1190 424 1193 463 l 1238 431 q 1328 441 1290 438 q 1418 446 1367 444 q 1284 241 1354 340 q 1147 72 1214 142 q 1047 98 1094 88 q 958 108 999 108 q 876 87 900 108 q 851 36 851 65 q 867 -15 851 11 q 910 -58 882 -40 q 979 -75 939 -75 q 1065 -54 1021 -75 q 1157 3 1110 -33 q 1280 -53 1218 -25 q 1400 -101 1342 -82 q 1507 -121 1458 -121 m 972 -37 q 910 -10 933 -37 q 888 39 888 17 q 898 63 888 53 q 939 72 908 72 q 1013 60 971 72 q 1100 28 1054 47 q 1033 -20 1065 -3 q 972 -37 1000 -37 m 1494 1047 q 1535 1058 1508 1047 q 1588 1088 1561 1069 q 1634 1128 1615 1107 q 1653 1169 1653 1149 q 1650 1183 1653 1176 q 1639 1196 1647 1190 q 1574 1150 1608 1168 q 1496 1117 1539 1132 q 1438 1177 1463 1149 q 1393 1244 1413 1206 q 1375 1227 1381 1239 q 1369 1201 1369 1215 q 1383 1153 1369 1179 q 1415 1102 1396 1126 q 1456 1063 1435 1078 q 1494 1047 1478 1047 "},"Ð":{"ha":908,"x_min":44,"x_max":894,"o":"m 228 -121 q 422 -83 325 -121 q 603 24 518 -44 q 753 185 688 93 q 857 388 819 278 q 894 619 894 499 q 860 813 894 726 q 749 949 825 899 q 549 1000 674 1000 q 381 974 460 1000 q 241 907 301 949 q 147 816 181 865 q 113 718 113 767 q 131 663 113 686 q 196 640 150 640 q 191 663 193 650 q 189 692 189 675 q 231 829 189 768 q 344 926 272 890 q 507 963 417 963 q 713 883 633 963 q 792 635 792 804 q 762 428 792 532 q 678 233 732 325 q 552 69 624 140 q 398 -44 481 -3 q 226 -85 315 -85 q 199 -83 213 -85 q 167 -79 186 -82 q 222 145 189 22 q 296 396 256 268 l 397 396 q 466 403 426 396 q 540 436 506 411 q 447 444 510 439 q 313 449 385 449 q 388 668 349 561 q 467 864 428 775 q 428 878 447 878 q 389 862 407 878 q 357 824 371 846 q 333 780 343 801 q 319 747 324 758 q 278 630 306 711 q 218 446 250 549 q 103 427 150 442 q 44 381 56 413 q 128 391 93 388 q 201 394 163 394 q 133 160 167 281 q 79 -58 99 39 q 146 -109 107 -97 q 228 -121 185 -121 "},"Ď":{"ha":907,"x_min":78,"x_max":893,"o":"m 226 -121 q 420 -83 324 -121 q 601 24 517 -44 q 752 185 686 93 q 856 388 818 278 q 893 619 893 499 q 858 813 893 726 q 748 949 824 899 q 547 1000 672 1000 q 379 974 458 1000 q 240 907 300 949 q 145 816 179 865 q 111 718 111 767 q 130 663 111 686 q 194 640 149 640 q 190 663 192 650 q 188 692 188 675 q 229 829 188 768 q 343 926 271 890 q 506 963 415 963 q 654 928 590 963 q 754 820 718 893 q 790 635 790 747 q 760 428 790 532 q 676 233 731 325 q 551 69 622 140 q 397 -44 479 -3 q 225 -85 314 -85 q 198 -83 211 -85 q 165 -79 185 -82 q 221 143 188 21 q 294 394 254 265 q 378 643 335 522 q 465 864 422 764 q 426 878 446 878 q 388 862 406 878 q 356 824 369 846 q 332 780 342 801 q 318 747 322 758 q 290 669 308 721 q 250 550 272 618 q 203 403 228 482 q 156 244 179 325 q 112 85 132 163 q 78 -58 92 8 q 144 -109 106 -97 q 226 -121 183 -121 m 674 1047 q 714 1058 688 1047 q 767 1088 740 1069 q 813 1128 794 1107 q 832 1169 832 1149 q 829 1183 832 1176 q 818 1196 826 1190 q 753 1150 788 1168 q 675 1117 718 1132 q 617 1177 642 1149 q 572 1244 592 1206 q 554 1227 560 1239 q 549 1201 549 1215 q 562 1153 549 1179 q 594 1102 575 1126 q 635 1063 614 1078 q 674 1047 657 1047 "},"Đ":{"ha":908,"x_min":44,"x_max":894,"o":"m 228 -121 q 422 -83 325 -121 q 603 24 518 -44 q 753 185 688 93 q 857 388 819 278 q 894 619 894 499 q 860 813 894 726 q 749 949 825 899 q 549 1000 674 1000 q 381 974 460 1000 q 241 907 301 949 q 147 816 181 865 q 113 718 113 767 q 131 663 113 686 q 196 640 150 640 q 191 663 193 650 q 189 692 189 675 q 231 829 189 768 q 344 926 272 890 q 507 963 417 963 q 713 883 633 963 q 792 635 792 804 q 762 428 792 532 q 678 233 732 325 q 552 69 624 140 q 398 -44 481 -3 q 226 -85 315 -85 q 199 -83 213 -85 q 167 -79 186 -82 q 222 145 189 22 q 296 396 256 268 l 397 396 q 466 403 426 396 q 540 436 506 411 q 447 444 510 439 q 313 449 385 449 q 388 668 349 561 q 467 864 428 775 q 428 878 447 878 q 389 862 407 878 q 357 824 371 846 q 333 780 343 801 q 319 747 324 758 q 278 630 306 711 q 218 446 250 549 q 103 427 150 442 q 44 381 56 413 q 128 391 93 388 q 201 394 163 394 q 133 160 167 281 q 79 -58 99 39 q 146 -109 107 -97 q 228 -121 185 -121 "},"ǅ":{"ha":1319,"x_min":78,"x_max":1369,"o":"m 226 -121 q 420 -83 324 -121 q 601 24 517 -44 q 752 185 686 93 q 856 388 818 278 q 893 619 893 499 q 858 813 893 726 q 748 949 824 899 q 547 1000 672 1000 q 379 974 458 1000 q 240 907 300 949 q 145 816 179 865 q 111 718 111 767 q 130 663 111 686 q 194 640 149 640 q 190 663 192 650 q 188 692 188 675 q 229 829 188 768 q 343 926 271 890 q 506 963 415 963 q 654 928 590 963 q 754 820 718 893 q 790 635 790 747 q 760 428 790 532 q 676 233 731 325 q 551 69 622 140 q 397 -44 479 -3 q 225 -85 314 -85 q 198 -83 211 -85 q 165 -79 185 -82 q 221 143 188 21 q 294 394 254 265 q 378 643 335 522 q 465 864 422 764 q 426 878 446 878 q 388 862 406 878 q 356 824 369 846 q 332 780 342 801 q 318 747 322 758 q 290 669 308 721 q 250 550 272 618 q 203 403 228 482 q 156 244 179 325 q 112 85 132 163 q 78 -58 92 8 q 144 -109 106 -97 q 226 -121 183 -121 m 872 -389 q 995 -359 936 -389 q 1101 -279 1054 -329 q 1176 -167 1149 -229 q 1204 -43 1204 -106 q 1203 -19 1204 -32 q 1199 3 1201 -7 q 1297 95 1254 44 q 1360 208 1340 146 l 1344 225 q 1284 117 1325 165 q 1190 29 1243 69 q 1153 95 1178 64 q 1093 154 1129 126 q 1172 208 1135 175 q 1233 283 1210 240 q 1257 376 1257 326 q 1223 460 1257 429 q 1142 490 1189 490 q 1035 452 1079 490 q 958 349 990 414 q 894 200 925 283 l 911 186 q 974 311 943 254 q 1040 403 1004 368 q 1122 438 1076 438 q 1163 417 1150 438 q 1176 364 1176 396 q 1159 285 1176 328 q 1108 208 1142 243 q 1025 160 1074 174 q 1100 75 1079 117 q 1121 -17 1121 33 q 1001 -92 1061 -57 q 890 -162 940 -128 q 810 -235 840 -197 q 781 -318 781 -274 q 805 -373 781 -357 q 872 -389 829 -389 m 863 -349 q 832 -337 844 -349 q 819 -303 819 -326 q 845 -237 819 -268 q 914 -176 871 -206 q 1010 -115 957 -146 q 1119 -49 1064 -83 q 1082 -176 1113 -121 q 1010 -270 1051 -232 q 928 -328 968 -308 q 863 -349 888 -349 m 1211 590 q 1251 601 1225 590 q 1305 631 1278 613 q 1351 671 1332 650 q 1369 713 1369 692 q 1367 726 1369 719 q 1356 739 1364 733 q 1290 693 1325 711 q 1213 660 1256 675 q 1154 720 1179 692 q 1110 788 1129 749 q 1092 770 1097 782 q 1086 744 1086 758 q 1099 696 1086 722 q 1132 645 1113 669 q 1173 606 1151 621 q 1211 590 1194 590 "},"É":{"ha":692,"x_min":-21,"x_max":742,"o":"m 250 -121 q 424 -77 343 -121 q 569 42 504 -33 q 683 211 635 117 l 664 225 q 567 78 628 146 q 433 -32 506 10 q 286 -74 360 -74 q 182 -42 221 -74 q 126 35 143 -11 q 108 128 108 82 q 147 276 108 201 q 253 407 185 351 q 415 478 322 463 q 350 579 365 521 q 335 688 335 638 q 358 827 335 764 q 425 928 381 890 q 533 967 469 967 q 607 943 582 967 q 632 876 632 919 q 598 774 632 822 q 515 683 564 726 q 538 652 524 665 q 567 639 551 639 q 616 669 590 639 q 660 749 642 700 q 678 849 678 797 q 638 960 678 921 q 519 999 597 999 q 372 958 438 999 q 270 851 307 917 q 233 711 233 785 q 259 594 233 653 q 339 492 285 536 q 199 452 264 485 q 84 369 133 419 q 7 257 35 318 q -21 132 -21 196 q 12 6 -21 64 q 106 -86 44 -51 q 250 -121 167 -121 m 586 1039 q 654 1118 617 1079 q 742 1200 692 1157 q 731 1234 740 1225 q 711 1243 722 1243 q 665 1222 690 1243 q 618 1172 640 1201 q 581 1115 596 1142 q 567 1075 567 1088 q 572 1057 567 1069 q 586 1039 576 1044 "},"Ĕ":{"ha":692,"x_min":-21,"x_max":778,"o":"m 250 -121 q 424 -77 343 -121 q 569 42 504 -33 q 683 211 635 117 l 664 225 q 567 78 628 146 q 433 -32 506 10 q 286 -74 360 -74 q 182 -42 221 -74 q 126 35 143 -11 q 108 128 108 82 q 147 276 108 201 q 253 407 185 351 q 415 478 322 463 q 350 579 365 521 q 335 688 335 638 q 358 827 335 764 q 425 928 381 890 q 533 967 469 967 q 607 943 582 967 q 632 876 632 919 q 598 774 632 822 q 515 683 564 726 q 538 652 524 665 q 567 639 551 639 q 616 669 590 639 q 660 749 642 700 q 678 849 678 797 q 638 960 678 921 q 519 999 597 999 q 372 958 438 999 q 270 851 307 917 q 233 711 233 785 q 259 594 233 653 q 339 492 285 536 q 199 452 264 485 q 84 369 133 419 q 7 257 35 318 q -21 132 -21 196 q 12 6 -21 64 q 106 -86 44 -51 q 250 -121 167 -121 m 628 1053 q 733 1085 688 1053 q 778 1164 778 1117 q 775 1185 778 1174 q 764 1206 772 1197 q 715 1149 747 1176 q 631 1122 683 1122 q 548 1162 574 1122 q 518 1249 522 1201 q 494 1222 503 1239 q 485 1181 485 1206 q 499 1126 485 1156 q 544 1074 513 1096 q 628 1053 575 1053 "},"Ě":{"ha":692,"x_min":-21,"x_max":740,"o":"m 250 -121 q 424 -77 343 -121 q 569 42 504 -33 q 683 211 635 117 l 664 225 q 567 78 628 146 q 433 -32 506 10 q 286 -74 360 -74 q 182 -42 221 -74 q 126 35 143 -11 q 108 128 108 82 q 147 276 108 201 q 253 407 185 351 q 415 478 322 463 q 350 579 365 521 q 335 688 335 638 q 358 827 335 764 q 425 928 381 890 q 533 967 469 967 q 607 943 582 967 q 632 876 632 919 q 598 774 632 822 q 515 683 564 726 q 538 652 524 665 q 567 639 551 639 q 616 669 590 639 q 660 749 642 700 q 678 849 678 797 q 638 960 678 921 q 519 999 597 999 q 372 958 438 999 q 270 851 307 917 q 233 711 233 785 q 259 594 233 653 q 339 492 285 536 q 199 452 264 485 q 84 369 133 419 q 7 257 35 318 q -21 132 -21 196 q 12 6 -21 64 q 106 -86 44 -51 q 250 -121 167 -121 m 582 1047 q 622 1058 596 1047 q 676 1088 649 1069 q 722 1128 703 1107 q 740 1169 740 1149 q 738 1183 740 1176 q 726 1196 735 1190 q 661 1150 696 1168 q 583 1117 626 1132 q 525 1177 550 1149 q 481 1244 500 1206 q 463 1227 468 1239 q 457 1201 457 1215 q 470 1153 457 1179 q 503 1102 483 1126 q 544 1063 522 1078 q 582 1047 565 1047 "},"Ê":{"ha":692,"x_min":-21,"x_max":738,"o":"m 250 -121 q 424 -77 343 -121 q 569 42 504 -33 q 683 211 635 117 l 664 225 q 567 78 628 146 q 433 -32 506 10 q 286 -74 360 -74 q 182 -42 221 -74 q 126 35 143 -11 q 108 128 108 82 q 147 276 108 201 q 253 407 185 351 q 415 478 322 463 q 350 579 365 521 q 335 688 335 638 q 358 827 335 764 q 425 928 381 890 q 533 967 469 967 q 607 943 582 967 q 632 876 632 919 q 598 774 632 822 q 515 683 564 726 q 538 652 524 665 q 567 639 551 639 q 616 669 590 639 q 660 749 642 700 q 678 849 678 797 q 638 960 678 921 q 519 999 597 999 q 372 958 438 999 q 270 851 307 917 q 233 711 233 785 q 259 594 233 653 q 339 492 285 536 q 199 452 264 485 q 84 369 133 419 q 7 257 35 318 q -21 132 -21 196 q 12 6 -21 64 q 106 -86 44 -51 q 250 -121 167 -121 m 714 1033 q 732 1051 726 1040 q 738 1076 738 1063 q 724 1125 738 1099 q 692 1176 711 1151 q 651 1215 672 1200 q 613 1231 629 1231 q 572 1219 599 1231 q 519 1190 546 1208 q 473 1150 492 1171 q 454 1108 454 1129 q 457 1095 454 1103 q 468 1082 460 1088 q 534 1128 500 1110 q 611 1161 568 1146 q 669 1102 644 1131 q 714 1033 694 1074 "},"Ế":{"ha":692,"x_min":-21,"x_max":889,"o":"m 250 -121 q 424 -77 343 -121 q 569 42 504 -33 q 683 211 635 117 l 664 225 q 567 78 628 146 q 433 -32 506 10 q 286 -74 360 -74 q 182 -42 221 -74 q 126 35 143 -11 q 108 128 108 82 q 147 276 108 201 q 253 407 185 351 q 415 478 322 463 q 350 579 365 521 q 335 688 335 638 q 358 827 335 764 q 425 928 381 890 q 533 967 469 967 q 607 943 582 967 q 632 876 632 919 q 598 774 632 822 q 515 683 564 726 q 538 652 524 665 q 567 639 551 639 q 616 669 590 639 q 660 749 642 700 q 678 849 678 797 q 638 960 678 921 q 519 999 597 999 q 372 958 438 999 q 270 851 307 917 q 233 711 233 785 q 259 594 233 653 q 339 492 285 536 q 199 452 264 485 q 84 369 133 419 q 7 257 35 318 q -21 132 -21 196 q 12 6 -21 64 q 106 -86 44 -51 q 250 -121 167 -121 m 761 1165 q 797 1209 778 1188 q 840 1253 817 1231 q 889 1299 863 1275 q 878 1333 888 1324 q 858 1342 869 1342 q 819 1326 840 1342 q 778 1288 797 1311 q 746 1242 758 1265 q 733 1206 733 1219 q 740 1183 733 1194 q 761 1165 747 1172 m 714 1033 q 732 1051 726 1040 q 738 1076 738 1063 q 724 1125 738 1099 q 692 1176 711 1151 q 651 1215 672 1200 q 613 1231 629 1231 q 572 1219 599 1231 q 519 1190 546 1208 q 473 1150 492 1171 q 454 1108 454 1129 q 457 1095 454 1103 q 468 1082 460 1088 q 534 1128 500 1110 q 611 1161 568 1146 q 669 1102 644 1131 q 714 1033 694 1074 "},"Ệ":{"ha":692,"x_min":-21,"x_max":738,"o":"m 250 -121 q 424 -77 343 -121 q 569 42 504 -33 q 683 211 635 117 l 664 225 q 567 78 628 146 q 433 -32 506 10 q 286 -74 360 -74 q 182 -42 221 -74 q 126 35 143 -11 q 108 128 108 82 q 147 276 108 201 q 253 407 185 351 q 415 478 322 463 q 350 579 365 521 q 335 688 335 638 q 358 827 335 764 q 425 928 381 890 q 533 967 469 967 q 607 943 582 967 q 632 876 632 919 q 598 774 632 822 q 515 683 564 726 q 538 652 524 665 q 567 639 551 639 q 616 669 590 639 q 660 749 642 700 q 678 849 678 797 q 638 960 678 921 q 519 999 597 999 q 372 958 438 999 q 270 851 307 917 q 233 711 233 785 q 259 594 233 653 q 339 492 285 536 q 199 452 264 485 q 84 369 133 419 q 7 257 35 318 q -21 132 -21 196 q 12 6 -21 64 q 106 -86 44 -51 q 250 -121 167 -121 m 714 1033 q 732 1051 726 1040 q 738 1076 738 1063 q 724 1125 738 1099 q 692 1176 711 1151 q 651 1215 672 1200 q 613 1231 629 1231 q 572 1219 599 1231 q 519 1190 546 1208 q 473 1150 492 1171 q 454 1108 454 1129 q 457 1095 454 1103 q 468 1082 460 1088 q 534 1128 500 1110 q 611 1161 568 1146 q 669 1102 644 1131 q 714 1033 694 1074 m 199 -362 q 256 -342 229 -362 q 282 -294 282 -321 q 269 -260 282 -272 q 233 -249 257 -249 q 173 -267 203 -249 q 143 -317 143 -286 q 158 -351 143 -339 q 199 -362 174 -362 "},"Ề":{"ha":692,"x_min":-21,"x_max":814,"o":"m 250 -121 q 424 -77 343 -121 q 569 42 504 -33 q 683 211 635 117 l 664 225 q 567 78 628 146 q 433 -32 506 10 q 286 -74 360 -74 q 182 -42 221 -74 q 126 35 143 -11 q 108 128 108 82 q 147 276 108 201 q 253 407 185 351 q 415 478 322 463 q 350 579 365 521 q 335 688 335 638 q 358 827 335 764 q 425 928 381 890 q 533 967 469 967 q 607 943 582 967 q 632 876 632 919 q 598 774 632 822 q 515 683 564 726 q 538 652 524 665 q 567 639 551 639 q 616 669 590 639 q 660 749 642 700 q 678 849 678 797 q 638 960 678 921 q 519 999 597 999 q 372 958 438 999 q 270 851 307 917 q 233 711 233 785 q 259 594 233 653 q 339 492 285 536 q 199 452 264 485 q 84 369 133 419 q 7 257 35 318 q -21 132 -21 196 q 12 6 -21 64 q 106 -86 44 -51 q 250 -121 167 -121 m 785 1163 q 814 1204 814 1174 q 804 1243 814 1219 q 779 1291 794 1267 q 745 1332 764 1315 q 710 1349 726 1349 q 688 1341 697 1349 q 675 1310 678 1333 q 719 1258 699 1283 q 756 1210 739 1233 q 785 1163 772 1186 m 714 1033 q 732 1051 726 1040 q 738 1076 738 1063 q 724 1125 738 1099 q 692 1176 711 1151 q 651 1215 672 1200 q 613 1231 629 1231 q 572 1219 599 1231 q 519 1190 546 1208 q 473 1150 492 1171 q 454 1108 454 1129 q 457 1095 454 1103 q 468 1082 460 1088 q 534 1128 500 1110 q 611 1161 568 1146 q 669 1102 644 1131 q 714 1033 694 1074 "},"Ể":{"ha":692,"x_min":-21,"x_max":881,"o":"m 250 -121 q 424 -77 343 -121 q 569 42 504 -33 q 683 211 635 117 l 664 225 q 567 78 628 146 q 433 -32 506 10 q 286 -74 360 -74 q 182 -42 221 -74 q 126 35 143 -11 q 108 128 108 82 q 147 276 108 201 q 253 407 185 351 q 415 478 322 463 q 350 579 365 521 q 335 688 335 638 q 358 827 335 764 q 425 928 381 890 q 533 967 469 967 q 607 943 582 967 q 632 876 632 919 q 598 774 632 822 q 515 683 564 726 q 538 652 524 665 q 567 639 551 639 q 616 669 590 639 q 660 749 642 700 q 678 849 678 797 q 638 960 678 921 q 519 999 597 999 q 372 958 438 999 q 270 851 307 917 q 233 711 233 785 q 259 594 233 653 q 339 492 285 536 q 199 452 264 485 q 84 369 133 419 q 7 257 35 318 q -21 132 -21 196 q 12 6 -21 64 q 106 -86 44 -51 q 250 -121 167 -121 m 799 1151 q 858 1175 835 1151 q 881 1238 881 1199 q 850 1320 881 1286 q 772 1354 819 1354 q 724 1335 742 1354 q 706 1290 706 1317 q 803 1275 771 1290 q 835 1228 835 1260 q 810 1184 835 1199 q 756 1167 785 1169 q 774 1156 763 1161 q 799 1151 785 1151 m 714 1033 q 732 1051 726 1040 q 738 1076 738 1063 q 724 1125 738 1099 q 692 1176 711 1151 q 651 1215 672 1200 q 613 1231 629 1231 q 572 1219 599 1231 q 519 1190 546 1208 q 473 1150 492 1171 q 454 1108 454 1129 q 457 1095 454 1103 q 468 1082 460 1088 q 534 1128 500 1110 q 611 1161 568 1146 q 669 1102 644 1131 q 714 1033 694 1074 "},"Ễ":{"ha":692,"x_min":-21,"x_max":886,"o":"m 250 -121 q 424 -77 343 -121 q 569 42 504 -33 q 683 211 635 117 l 664 225 q 567 78 628 146 q 433 -32 506 10 q 286 -74 360 -74 q 182 -42 221 -74 q 126 35 143 -11 q 108 128 108 82 q 147 276 108 201 q 253 407 185 351 q 415 478 322 463 q 350 579 365 521 q 335 688 335 638 q 358 827 335 764 q 425 928 381 890 q 533 967 469 967 q 607 943 582 967 q 632 876 632 919 q 598 774 632 822 q 515 683 564 726 q 538 652 524 665 q 567 639 551 639 q 616 669 590 639 q 660 749 642 700 q 678 849 678 797 q 638 960 678 921 q 519 999 597 999 q 372 958 438 999 q 270 851 307 917 q 233 711 233 785 q 259 594 233 653 q 339 492 285 536 q 199 452 264 485 q 84 369 133 419 q 7 257 35 318 q -21 132 -21 196 q 12 6 -21 64 q 106 -86 44 -51 q 250 -121 167 -121 m 628 1053 q 733 1085 688 1053 q 778 1164 778 1117 q 775 1185 778 1174 q 764 1206 772 1197 q 715 1149 747 1176 q 631 1122 683 1122 q 548 1162 574 1122 q 518 1249 522 1201 q 494 1222 503 1239 q 485 1181 485 1206 q 499 1126 485 1156 q 544 1074 513 1096 q 628 1053 575 1053 m 772 1236 q 831 1249 803 1236 q 886 1293 860 1261 q 839 1282 861 1282 q 743 1299 789 1282 q 656 1332 697 1315 q 575 1349 614 1349 q 513 1333 543 1349 q 454 1279 482 1318 q 492 1295 472 1290 q 529 1300 511 1300 q 613 1284 572 1300 q 694 1252 654 1268 q 772 1236 735 1236 "},"Ȅ":{"ha":692,"x_min":-21,"x_max":683,"o":"m 250 -121 q 424 -77 343 -121 q 569 42 504 -33 q 683 211 635 117 l 664 225 q 567 78 628 146 q 433 -32 506 10 q 286 -74 360 -74 q 182 -42 221 -74 q 126 35 143 -11 q 108 128 108 82 q 147 276 108 201 q 253 407 185 351 q 415 478 322 463 q 350 579 365 521 q 335 688 335 638 q 358 827 335 764 q 425 928 381 890 q 533 967 469 967 q 607 943 582 967 q 632 876 632 919 q 598 774 632 822 q 515 683 564 726 q 538 652 524 665 q 567 639 551 639 q 616 669 590 639 q 660 749 642 700 q 678 849 678 797 q 638 960 678 921 q 519 999 597 999 q 372 958 438 999 q 270 851 307 917 q 233 711 233 785 q 259 594 233 653 q 339 492 285 536 q 199 452 264 485 q 84 369 133 419 q 7 257 35 318 q -21 132 -21 196 q 12 6 -21 64 q 106 -86 44 -51 q 250 -121 167 -121 m 553 1038 q 568 1069 568 1049 q 558 1111 568 1085 q 531 1166 547 1138 q 497 1214 515 1194 q 460 1233 478 1233 q 438 1226 447 1233 q 419 1210 428 1219 q 492 1121 458 1164 q 553 1038 525 1078 m 644 1044 q 664 1056 656 1047 q 672 1086 672 1065 q 665 1126 672 1101 q 644 1176 657 1151 q 615 1219 632 1201 q 581 1236 599 1236 q 562 1229 571 1236 q 544 1201 553 1222 q 601 1122 575 1163 q 644 1044 626 1081 "},"Ë":{"ha":692,"x_min":-21,"x_max":771,"o":"m 250 -121 q 424 -77 343 -121 q 569 42 504 -33 q 683 211 635 117 l 664 225 q 567 78 628 146 q 433 -32 506 10 q 286 -74 360 -74 q 182 -42 221 -74 q 126 35 143 -11 q 108 128 108 82 q 147 276 108 201 q 253 407 185 351 q 415 478 322 463 q 350 579 365 521 q 335 688 335 638 q 358 827 335 764 q 425 928 381 890 q 533 967 469 967 q 607 943 582 967 q 632 876 632 919 q 598 774 632 822 q 515 683 564 726 q 538 652 524 665 q 567 639 551 639 q 616 669 590 639 q 660 749 642 700 q 678 849 678 797 q 638 960 678 921 q 519 999 597 999 q 372 958 438 999 q 270 851 307 917 q 233 711 233 785 q 259 594 233 653 q 339 492 285 536 q 199 452 264 485 q 84 369 133 419 q 7 257 35 318 q -21 132 -21 196 q 12 6 -21 64 q 106 -86 44 -51 q 250 -121 167 -121 m 689 1046 q 745 1068 719 1046 q 771 1114 771 1090 q 760 1144 771 1136 q 729 1153 749 1153 q 668 1133 699 1153 q 638 1088 638 1114 q 653 1056 638 1065 q 689 1046 668 1046 m 489 1075 q 545 1097 519 1075 q 571 1143 571 1119 q 560 1174 571 1165 q 529 1182 549 1182 q 468 1163 499 1182 q 438 1117 438 1143 q 453 1085 438 1094 q 489 1075 468 1075 "},"Ė":{"ha":692,"x_min":-21,"x_max":683,"o":"m 250 -121 q 424 -77 343 -121 q 569 42 504 -33 q 683 211 635 117 l 664 225 q 567 78 628 146 q 433 -32 506 10 q 286 -74 360 -74 q 182 -42 221 -74 q 126 35 143 -11 q 108 128 108 82 q 147 276 108 201 q 253 407 185 351 q 415 478 322 463 q 350 579 365 521 q 335 688 335 638 q 358 827 335 764 q 425 928 381 890 q 533 967 469 967 q 607 943 582 967 q 632 876 632 919 q 598 774 632 822 q 515 683 564 726 q 538 652 524 665 q 567 639 551 639 q 616 669 590 639 q 660 749 642 700 q 678 849 678 797 q 638 960 678 921 q 519 999 597 999 q 372 958 438 999 q 270 851 307 917 q 233 711 233 785 q 259 594 233 653 q 339 492 285 536 q 199 452 264 485 q 84 369 133 419 q 7 257 35 318 q -21 132 -21 196 q 12 6 -21 64 q 106 -86 44 -51 q 250 -121 167 -121 m 593 1071 q 650 1092 624 1071 q 676 1139 676 1113 q 664 1173 676 1161 q 628 1185 651 1185 q 567 1166 597 1185 q 538 1117 538 1147 q 553 1083 538 1094 q 593 1071 568 1071 "},"Ẹ":{"ha":692,"x_min":-21,"x_max":683,"o":"m 250 -121 q 424 -77 343 -121 q 569 42 504 -33 q 683 211 635 117 l 664 225 q 567 78 628 146 q 433 -32 506 10 q 286 -74 360 -74 q 182 -42 221 -74 q 126 35 143 -11 q 108 128 108 82 q 147 276 108 201 q 253 407 185 351 q 415 478 322 463 q 350 579 365 521 q 335 688 335 638 q 358 827 335 764 q 425 928 381 890 q 533 967 469 967 q 607 943 582 967 q 632 876 632 919 q 598 774 632 822 q 515 683 564 726 q 538 652 524 665 q 567 639 551 639 q 616 669 590 639 q 660 749 642 700 q 678 849 678 797 q 638 960 678 921 q 519 999 597 999 q 372 958 438 999 q 270 851 307 917 q 233 711 233 785 q 259 594 233 653 q 339 492 285 536 q 199 452 264 485 q 84 369 133 419 q 7 257 35 318 q -21 132 -21 196 q 12 6 -21 64 q 106 -86 44 -51 q 250 -121 167 -121 m 199 -362 q 256 -342 229 -362 q 282 -294 282 -321 q 269 -260 282 -272 q 233 -249 257 -249 q 173 -267 203 -249 q 143 -317 143 -286 q 158 -351 143 -339 q 199 -362 174 -362 "},"È":{"ha":692,"x_min":-21,"x_max":683,"o":"m 250 -121 q 424 -77 343 -121 q 569 42 504 -33 q 683 211 635 117 l 664 225 q 567 78 628 146 q 433 -32 506 10 q 286 -74 360 -74 q 182 -42 221 -74 q 126 35 143 -11 q 108 128 108 82 q 147 276 108 201 q 253 407 185 351 q 415 478 322 463 q 350 579 365 521 q 335 688 335 638 q 358 827 335 764 q 425 928 381 890 q 533 967 469 967 q 607 943 582 967 q 632 876 632 919 q 598 774 632 822 q 515 683 564 726 q 538 652 524 665 q 567 639 551 639 q 616 669 590 639 q 660 749 642 700 q 678 849 678 797 q 638 960 678 921 q 519 999 597 999 q 372 958 438 999 q 270 851 307 917 q 233 711 233 785 q 259 594 233 653 q 339 492 285 536 q 199 452 264 485 q 84 369 133 419 q 7 257 35 318 q -21 132 -21 196 q 12 6 -21 64 q 106 -86 44 -51 q 250 -121 167 -121 m 583 1039 q 599 1057 594 1044 q 603 1075 603 1069 q 588 1115 603 1088 q 551 1172 574 1142 q 504 1222 529 1201 q 458 1243 479 1243 q 439 1234 447 1243 q 428 1200 431 1225 q 515 1118 478 1157 q 583 1039 553 1079 "},"Ẻ":{"ha":692,"x_min":-21,"x_max":719,"o":"m 250 -121 q 424 -77 343 -121 q 569 42 504 -33 q 683 211 635 117 l 664 225 q 567 78 628 146 q 433 -32 506 10 q 286 -74 360 -74 q 182 -42 221 -74 q 126 35 143 -11 q 108 128 108 82 q 147 276 108 201 q 253 407 185 351 q 415 478 322 463 q 350 579 365 521 q 335 688 335 638 q 358 827 335 764 q 425 928 381 890 q 533 967 469 967 q 607 943 582 967 q 632 876 632 919 q 598 774 632 822 q 515 683 564 726 q 538 652 524 665 q 567 639 551 639 q 616 669 590 639 q 660 749 642 700 q 678 849 678 797 q 638 960 678 921 q 519 999 597 999 q 372 958 438 999 q 270 851 307 917 q 233 711 233 785 q 259 594 233 653 q 339 492 285 536 q 199 452 264 485 q 84 369 133 419 q 7 257 35 318 q -21 132 -21 196 q 12 6 -21 64 q 106 -86 44 -51 q 250 -121 167 -121 m 625 1042 q 693 1069 667 1042 q 719 1140 719 1097 q 689 1216 719 1185 q 611 1247 658 1247 q 563 1228 581 1247 q 544 1183 544 1210 q 642 1169 610 1183 q 674 1124 674 1156 q 644 1074 674 1089 q 578 1057 615 1060 q 597 1047 585 1051 q 625 1042 608 1042 "},"Ȇ":{"ha":692,"x_min":-21,"x_max":760,"o":"m 250 -121 q 424 -77 343 -121 q 569 42 504 -33 q 683 211 635 117 l 664 225 q 567 78 628 146 q 433 -32 506 10 q 286 -74 360 -74 q 182 -42 221 -74 q 126 35 143 -11 q 108 128 108 82 q 147 276 108 201 q 253 407 185 351 q 415 478 322 463 q 350 579 365 521 q 335 688 335 638 q 358 827 335 764 q 425 928 381 890 q 533 967 469 967 q 607 943 582 967 q 632 876 632 919 q 598 774 632 822 q 515 683 564 726 q 538 652 524 665 q 567 639 551 639 q 616 669 590 639 q 660 749 642 700 q 678 849 678 797 q 638 960 678 921 q 519 999 597 999 q 372 958 438 999 q 270 851 307 917 q 233 711 233 785 q 259 594 233 653 q 339 492 285 536 q 199 452 264 485 q 84 369 133 419 q 7 257 35 318 q -21 132 -21 196 q 12 6 -21 64 q 106 -86 44 -51 q 250 -121 167 -121 m 726 1011 q 751 1041 742 1022 q 760 1086 760 1060 q 744 1138 760 1110 q 697 1187 729 1167 q 615 1207 665 1207 q 510 1175 553 1207 q 467 1096 467 1143 q 470 1074 467 1086 q 481 1054 474 1063 q 525 1110 496 1083 q 603 1138 554 1138 q 695 1098 668 1138 q 726 1011 722 1058 "},"Ē":{"ha":692,"x_min":-21,"x_max":789,"o":"m 250 -121 q 424 -77 343 -121 q 569 42 504 -33 q 683 211 635 117 l 664 225 q 567 78 628 146 q 433 -32 506 10 q 286 -74 360 -74 q 182 -42 221 -74 q 126 35 143 -11 q 108 128 108 82 q 147 276 108 201 q 253 407 185 351 q 415 478 322 463 q 350 579 365 521 q 335 688 335 638 q 358 827 335 764 q 425 928 381 890 q 533 967 469 967 q 607 943 582 967 q 632 876 632 919 q 598 774 632 822 q 515 683 564 726 q 538 652 524 665 q 567 639 551 639 q 616 669 590 639 q 660 749 642 700 q 678 849 678 797 q 638 960 678 921 q 519 999 597 999 q 372 958 438 999 q 270 851 307 917 q 233 711 233 785 q 259 594 233 653 q 339 492 285 536 q 199 452 264 485 q 84 369 133 419 q 7 257 35 318 q -21 132 -21 196 q 12 6 -21 64 q 106 -86 44 -51 q 250 -121 167 -121 m 736 1050 q 789 1078 769 1050 q 681 1108 740 1093 q 564 1133 622 1122 q 454 1143 506 1143 q 390 1107 404 1143 q 467 1095 422 1104 q 563 1076 513 1086 q 660 1058 614 1065 q 736 1050 706 1050 "},"Ę":{"ha":692,"x_min":-21,"x_max":683,"o":"m 250 -121 q 424 -77 343 -121 q 569 42 504 -33 q 683 211 635 117 l 664 225 q 567 78 628 146 q 433 -32 506 10 q 286 -74 360 -74 q 182 -42 221 -74 q 126 35 143 -11 q 108 128 108 82 q 147 276 108 201 q 253 407 185 351 q 415 478 322 463 q 350 579 365 521 q 335 688 335 638 q 358 827 335 764 q 425 928 381 890 q 533 967 469 967 q 607 943 582 967 q 632 876 632 919 q 598 774 632 822 q 515 683 564 726 q 538 652 524 665 q 567 639 551 639 q 616 669 590 639 q 660 749 642 700 q 678 849 678 797 q 638 960 678 921 q 519 999 597 999 q 372 958 438 999 q 270 851 307 917 q 233 711 233 785 q 259 594 233 653 q 339 492 285 536 q 199 452 264 485 q 84 369 133 419 q 7 257 35 318 q -21 132 -21 196 q 12 6 -21 64 q 106 -86 44 -51 q 250 -121 167 -121 m 479 -242 q 544 -219 519 -242 q 571 -158 569 -197 q 538 -176 554 -171 q 501 -182 521 -182 q 450 -163 467 -182 q 433 -121 433 -144 q 447 -74 433 -93 q 483 -39 461 -54 q 413 -73 443 -44 q 383 -147 383 -101 q 410 -215 383 -189 q 479 -242 436 -242 "},"Ẽ":{"ha":692,"x_min":-21,"x_max":819,"o":"m 250 -121 q 424 -77 343 -121 q 569 42 504 -33 q 683 211 635 117 l 664 225 q 567 78 628 146 q 433 -32 506 10 q 286 -74 360 -74 q 182 -42 221 -74 q 126 35 143 -11 q 108 128 108 82 q 147 276 108 201 q 253 407 185 351 q 415 478 322 463 q 350 579 365 521 q 335 688 335 638 q 358 827 335 764 q 425 928 381 890 q 533 967 469 967 q 607 943 582 967 q 632 876 632 919 q 598 774 632 822 q 515 683 564 726 q 538 652 524 665 q 567 639 551 639 q 616 669 590 639 q 660 749 642 700 q 678 849 678 797 q 638 960 678 921 q 519 999 597 999 q 372 958 438 999 q 270 851 307 917 q 233 711 233 785 q 259 594 233 653 q 339 492 285 536 q 199 452 264 485 q 84 369 133 419 q 7 257 35 318 q -21 132 -21 196 q 12 6 -21 64 q 106 -86 44 -51 q 250 -121 167 -121 m 706 1057 q 765 1069 736 1057 q 819 1114 793 1082 q 772 1103 794 1103 q 676 1119 722 1103 q 589 1153 631 1136 q 508 1169 547 1169 q 446 1154 476 1169 q 388 1100 415 1139 q 425 1116 406 1111 q 463 1121 444 1121 q 547 1105 506 1121 q 628 1073 588 1089 q 706 1057 668 1057 "},"Ğ":{"ha":769,"x_min":31,"x_max":876,"o":"m 290 -121 q 438 -74 372 -121 q 553 43 503 -26 q 545 10 547 25 q 543 -21 543 -6 q 552 -65 543 -46 q 578 -98 561 -85 q 618 -121 596 -111 q 615 -67 617 -93 q 613 -12 613 -40 q 616 43 613 13 q 628 113 619 74 q 654 205 638 153 q 697 326 671 257 l 707 371 q 636 394 676 379 q 553 423 596 410 q 472 436 511 436 q 412 420 436 436 q 378 364 388 404 q 424 365 404 364 q 463 365 444 365 q 522 362 490 365 q 606 347 554 358 q 577 206 600 279 q 517 69 554 132 q 431 -34 479 6 q 328 -74 382 -74 q 194 -2 247 -74 q 142 196 142 69 q 170 393 142 289 q 247 597 199 497 q 356 778 296 697 q 481 908 417 860 q 606 957 546 957 q 670 936 651 957 q 689 883 689 915 q 670 801 689 846 q 626 721 651 757 q 581 671 600 685 q 601 646 589 653 q 624 639 613 639 q 685 669 657 639 q 729 747 713 700 q 746 842 746 793 q 732 919 746 883 q 686 976 718 954 q 601 999 654 999 q 441 953 522 999 q 286 828 360 907 q 155 650 213 750 q 64 440 97 550 q 31 224 31 331 q 65 38 31 115 q 159 -80 100 -39 q 290 -121 218 -121 m 726 1053 q 831 1085 786 1053 q 876 1164 876 1117 q 874 1185 876 1174 q 863 1206 871 1197 q 814 1149 846 1176 q 729 1122 782 1122 q 647 1162 672 1122 q 617 1249 621 1201 q 592 1222 601 1239 q 583 1181 583 1206 q 597 1126 583 1156 q 642 1074 611 1096 q 726 1053 674 1053 "},"Ǧ":{"ha":769,"x_min":31,"x_max":839,"o":"m 290 -121 q 438 -74 372 -121 q 553 43 503 -26 q 545 10 547 25 q 543 -21 543 -6 q 552 -65 543 -46 q 578 -98 561 -85 q 618 -121 596 -111 q 615 -67 617 -93 q 613 -12 613 -40 q 616 43 613 13 q 628 113 619 74 q 654 205 638 153 q 697 326 671 257 l 707 371 q 636 394 676 379 q 553 423 596 410 q 472 436 511 436 q 412 420 436 436 q 378 364 388 404 q 424 365 404 364 q 463 365 444 365 q 522 362 490 365 q 606 347 554 358 q 577 206 600 279 q 517 69 554 132 q 431 -34 479 6 q 328 -74 382 -74 q 194 -2 247 -74 q 142 196 142 69 q 170 393 142 289 q 247 597 199 497 q 356 778 296 697 q 481 908 417 860 q 606 957 546 957 q 670 936 651 957 q 689 883 689 915 q 670 801 689 846 q 626 721 651 757 q 581 671 600 685 q 601 646 589 653 q 624 639 613 639 q 685 669 657 639 q 729 747 713 700 q 746 842 746 793 q 732 919 746 883 q 686 976 718 954 q 601 999 654 999 q 441 953 522 999 q 286 828 360 907 q 155 650 213 750 q 64 440 97 550 q 31 224 31 331 q 65 38 31 115 q 159 -80 100 -39 q 290 -121 218 -121 m 681 1047 q 721 1058 694 1047 q 774 1088 747 1069 q 820 1128 801 1107 q 839 1169 839 1149 q 836 1183 839 1176 q 825 1196 833 1190 q 760 1150 794 1168 q 682 1117 725 1132 q 624 1177 649 1149 q 579 1244 599 1206 q 561 1227 567 1239 q 556 1201 556 1215 q 569 1153 556 1179 q 601 1102 582 1126 q 642 1063 621 1078 q 681 1047 664 1047 "},"Ĝ":{"ha":769,"x_min":31,"x_max":836,"o":"m 290 -121 q 438 -74 372 -121 q 553 43 503 -26 q 545 10 547 25 q 543 -21 543 -6 q 552 -65 543 -46 q 578 -98 561 -85 q 618 -121 596 -111 q 615 -67 617 -93 q 613 -12 613 -40 q 616 43 613 13 q 628 113 619 74 q 654 205 638 153 q 697 326 671 257 l 707 371 q 636 394 676 379 q 553 423 596 410 q 472 436 511 436 q 412 420 436 436 q 378 364 388 404 q 424 365 404 364 q 463 365 444 365 q 522 362 490 365 q 606 347 554 358 q 577 206 600 279 q 517 69 554 132 q 431 -34 479 6 q 328 -74 382 -74 q 194 -2 247 -74 q 142 196 142 69 q 170 393 142 289 q 247 597 199 497 q 356 778 296 697 q 481 908 417 860 q 606 957 546 957 q 670 936 651 957 q 689 883 689 915 q 670 801 689 846 q 626 721 651 757 q 581 671 600 685 q 601 646 589 653 q 624 639 613 639 q 685 669 657 639 q 729 747 713 700 q 746 842 746 793 q 732 919 746 883 q 686 976 718 954 q 601 999 654 999 q 441 953 522 999 q 286 828 360 907 q 155 650 213 750 q 64 440 97 550 q 31 224 31 331 q 65 38 31 115 q 159 -80 100 -39 q 290 -121 218 -121 m 813 1033 q 831 1051 825 1040 q 836 1076 836 1063 q 823 1125 836 1099 q 790 1176 810 1151 q 749 1215 771 1200 q 711 1231 728 1231 q 671 1219 697 1231 q 617 1190 644 1208 q 572 1150 590 1171 q 553 1108 553 1129 q 556 1095 553 1103 q 567 1082 558 1088 q 633 1128 599 1110 q 710 1161 667 1146 q 768 1102 743 1131 q 813 1033 793 1074 "},"Ģ":{"ha":769,"x_min":31,"x_max":746,"o":"m 290 -121 q 438 -74 372 -121 q 553 43 503 -26 q 545 10 547 25 q 543 -21 543 -6 q 552 -65 543 -46 q 578 -98 561 -85 q 618 -121 596 -111 q 615 -67 617 -93 q 613 -12 613 -40 q 616 43 613 13 q 628 113 619 74 q 654 205 638 153 q 697 326 671 257 l 707 371 q 636 394 676 379 q 553 423 596 410 q 472 436 511 436 q 412 420 436 436 q 378 364 388 404 q 424 365 404 364 q 463 365 444 365 q 522 362 490 365 q 606 347 554 358 q 577 206 600 279 q 517 69 554 132 q 431 -34 479 6 q 328 -74 382 -74 q 194 -2 247 -74 q 142 196 142 69 q 170 393 142 289 q 247 597 199 497 q 356 778 296 697 q 481 908 417 860 q 606 957 546 957 q 670 936 651 957 q 689 883 689 915 q 670 801 689 846 q 626 721 651 757 q 581 671 600 685 q 601 646 589 653 q 624 639 613 639 q 685 669 657 639 q 729 747 713 700 q 746 842 746 793 q 732 919 746 883 q 686 976 718 954 q 601 999 654 999 q 441 953 522 999 q 286 828 360 907 q 155 650 213 750 q 64 440 97 550 q 31 224 31 331 q 65 38 31 115 q 159 -80 100 -39 q 290 -121 218 -121 m 235 -379 q 273 -299 254 -339 q 331 -218 292 -258 q 320 -191 331 -203 q 296 -179 310 -179 q 256 -204 275 -179 q 224 -265 236 -229 q 211 -328 211 -300 q 217 -358 211 -344 q 235 -379 222 -372 "},"Ġ":{"ha":769,"x_min":31,"x_max":775,"o":"m 290 -121 q 438 -74 372 -121 q 553 43 503 -26 q 545 10 547 25 q 543 -21 543 -6 q 552 -65 543 -46 q 578 -98 561 -85 q 618 -121 596 -111 q 615 -67 617 -93 q 613 -12 613 -40 q 616 43 613 13 q 628 113 619 74 q 654 205 638 153 q 697 326 671 257 l 707 371 q 636 394 676 379 q 553 423 596 410 q 472 436 511 436 q 412 420 436 436 q 378 364 388 404 q 424 365 404 364 q 463 365 444 365 q 522 362 490 365 q 606 347 554 358 q 577 206 600 279 q 517 69 554 132 q 431 -34 479 6 q 328 -74 382 -74 q 194 -2 247 -74 q 142 196 142 69 q 170 393 142 289 q 247 597 199 497 q 356 778 296 697 q 481 908 417 860 q 606 957 546 957 q 670 936 651 957 q 689 883 689 915 q 670 801 689 846 q 626 721 651 757 q 581 671 600 685 q 601 646 589 653 q 624 639 613 639 q 685 669 657 639 q 729 747 713 700 q 746 842 746 793 q 732 919 746 883 q 686 976 718 954 q 601 999 654 999 q 441 953 522 999 q 286 828 360 907 q 155 650 213 750 q 64 440 97 550 q 31 224 31 331 q 65 38 31 115 q 159 -80 100 -39 q 290 -121 218 -121 m 692 1071 q 749 1092 722 1071 q 775 1139 775 1113 q 763 1173 775 1161 q 726 1185 750 1185 q 666 1166 696 1185 q 636 1117 636 1147 q 651 1083 636 1094 q 692 1071 667 1071 "},"Ħ":{"ha":858,"x_min":76,"x_max":893,"o":"m 76 -121 q 128 -100 99 -121 q 172 -32 158 -79 q 183 4 175 -22 q 206 77 192 31 q 242 194 221 124 q 294 363 264 265 q 363 587 324 460 q 453 874 403 714 q 460 903 457 888 q 464 933 464 918 q 448 979 464 958 q 385 1000 432 1000 q 308 985 347 1000 q 234 942 268 969 q 179 878 200 915 q 158 799 158 842 q 176 754 158 772 q 239 736 194 736 q 236 757 238 744 q 235 781 235 769 q 255 864 235 822 q 307 933 275 906 q 371 961 339 961 q 390 942 390 961 q 383 898 390 921 q 371 860 376 875 q 265 548 310 683 q 188 310 219 413 q 134 129 156 207 q 99 -9 113 51 q 76 -121 86 -69 m 633 -121 q 631 -99 632 -111 q 631 -71 631 -87 q 641 64 631 -19 q 676 265 651 147 q 709 413 690 332 q 751 578 728 493 q 797 744 774 664 q 840 890 819 824 q 878 1000 861 957 q 842 986 858 1000 q 817 956 826 972 q 801 928 807 939 q 773 856 792 907 q 731 735 754 804 q 685 588 708 665 q 638 435 661 510 q 598 297 615 360 q 571 197 581 235 q 546 78 554 133 q 538 -12 538 24 q 558 -90 538 -65 q 633 -121 579 -115 m 132 399 q 238 412 186 407 q 338 419 289 417 q 431 422 386 422 q 580 423 513 424 q 699 425 647 422 q 785 438 751 428 q 831 472 818 449 q 669 484 774 472 q 419 496 565 496 q 342 494 390 496 q 247 483 294 492 q 166 455 199 475 q 132 399 133 435 m 161 572 q 286 593 214 588 q 476 599 358 599 q 708 602 619 599 q 842 617 797 606 q 893 656 886 629 q 738 667 818 664 q 564 671 657 671 q 360 661 450 671 q 217 630 269 651 q 161 572 164 608 "},"Ĥ":{"ha":857,"x_min":76,"x_max":878,"o":"m 76 -121 q 128 -100 99 -121 q 172 -32 158 -79 q 190 28 176 -18 q 225 140 204 74 q 271 285 246 206 q 321 444 296 364 q 404 450 363 449 q 503 453 446 451 q 644 454 560 454 q 601 308 621 376 q 571 197 582 239 q 546 78 554 133 q 538 -12 538 24 q 558 -90 538 -65 q 633 -121 579 -115 q 631 -99 632 -111 q 631 -71 631 -87 q 641 64 631 -19 q 676 265 651 147 q 696 356 685 308 q 719 456 707 404 q 776 462 747 456 q 836 500 806 468 q 785 502 811 500 q 732 506 760 504 q 783 694 757 600 q 833 869 808 789 q 878 1000 858 949 q 842 986 858 1000 q 817 956 826 972 q 801 928 807 939 q 766 837 789 901 q 716 686 743 772 q 661 511 689 600 q 549 520 608 517 q 425 524 490 524 q 384 523 404 524 q 344 521 364 522 l 453 874 q 460 903 457 888 q 464 933 464 918 q 451 979 464 958 q 400 1000 438 1000 q 313 976 361 1000 q 222 913 265 953 q 150 826 178 874 q 122 732 122 779 q 141 676 122 699 q 206 653 160 653 q 201 675 203 663 q 199 700 199 688 q 213 779 199 735 q 251 865 226 824 q 306 934 275 907 q 371 961 338 961 q 387 957 383 961 q 390 942 390 953 q 383 898 390 921 q 371 860 376 875 q 344 781 357 819 q 318 706 331 742 q 294 637 306 671 q 273 572 283 603 q 253 511 263 540 q 170 481 201 501 q 138 426 139 461 q 184 432 161 429 q 229 436 207 435 q 167 239 192 322 q 124 92 142 156 q 96 -22 107 29 q 76 -121 85 -72 m 775 1033 q 793 1051 788 1040 q 799 1076 799 1063 q 785 1125 799 1099 q 753 1176 772 1151 q 712 1215 733 1200 q 674 1231 690 1231 q 633 1219 660 1231 q 580 1190 607 1208 q 534 1150 553 1171 q 515 1108 515 1129 q 518 1095 515 1103 q 529 1082 521 1088 q 595 1128 561 1110 q 672 1161 629 1146 q 731 1102 706 1131 q 775 1033 756 1074 "},"Ĳ":{"ha":1208,"x_min":-53,"x_max":1346,"o":"m -53 -122 q 48 -108 -3 -112 q 151 -101 99 -103 q 256 -99 203 -100 q 365 -99 310 -99 q 438 -89 394 -99 q 522 -39 482 -79 q 375 -27 457 -37 q 221 -12 293 -17 q 288 75 260 14 q 338 225 315 136 q 367 358 351 281 q 400 520 383 435 q 432 685 417 606 q 458 827 447 765 q 475 918 469 889 q 545 919 507 919 q 626 919 583 919 q 691 927 654 919 q 761 968 728 935 q 669 980 729 974 q 538 992 610 986 q 397 997 467 997 q 190 970 257 997 q 114 890 124 943 q 209 906 165 900 q 303 914 253 911 q 426 918 354 917 q 395 809 413 878 q 358 654 378 740 q 317 474 339 568 q 272 290 294 381 q 224 122 249 200 q 174 -11 199 43 q 65 -18 115 -11 q -16 -48 15 -25 q -53 -122 -47 -71 m 744 -119 q 824 -103 786 -119 q 899 -42 863 -86 q 972 85 936 1 q 1035 253 1006 158 q 1089 446 1064 347 q 1132 632 1114 544 q 1160 781 1150 719 q 1169 861 1169 843 q 1163 896 1169 876 q 1140 926 1156 915 q 1187 927 1163 926 q 1239 928 1211 928 q 1296 935 1261 928 q 1346 968 1331 942 q 1273 980 1321 974 q 1168 992 1225 986 q 1056 997 1111 997 q 890 972 943 997 q 829 899 836 946 q 911 915 874 910 q 995 924 949 921 q 1110 926 1042 926 q 1082 788 1100 871 q 1042 606 1064 704 q 995 409 1019 508 q 947 223 971 310 q 900 75 922 136 q 841 -40 869 -10 q 776 -71 813 -71 q 711 -36 733 -71 q 689 61 689 -1 q 701 164 689 108 q 739 283 714 219 q 700 294 717 294 q 644 258 668 294 q 607 169 619 222 q 594 61 594 115 q 618 -56 594 -17 q 677 -107 642 -94 q 744 -119 713 -119 "},"Í":{"ha":638,"x_min":-53,"x_max":761,"o":"m -53 -122 q 48 -108 -3 -112 q 151 -101 99 -103 q 256 -99 203 -100 q 365 -99 310 -99 q 438 -89 394 -99 q 522 -39 482 -79 q 375 -27 457 -37 q 221 -12 293 -17 q 288 75 260 14 q 338 225 315 136 q 367 358 351 281 q 400 520 383 435 q 432 685 417 606 q 458 827 447 765 q 475 918 469 889 q 545 919 507 919 q 626 919 583 919 q 691 927 654 919 q 761 968 728 935 q 669 980 729 974 q 538 992 610 986 q 397 997 467 997 q 190 970 257 997 q 114 890 124 943 q 209 906 165 900 q 303 914 253 911 q 426 918 354 917 q 395 809 413 878 q 358 654 378 740 q 317 474 339 568 q 272 290 294 381 q 224 122 249 200 q 174 -11 199 43 q 65 -18 115 -11 q -16 -48 15 -25 q -53 -122 -47 -71 m 483 1039 q 551 1118 514 1079 q 639 1200 589 1157 q 628 1234 638 1225 q 608 1243 619 1243 q 563 1222 588 1243 q 515 1172 538 1201 q 478 1115 493 1142 q 464 1075 464 1088 q 469 1057 464 1069 q 483 1039 474 1044 "},"Ĭ":{"ha":638,"x_min":-53,"x_max":761,"o":"m -53 -122 q 48 -108 -3 -112 q 151 -101 99 -103 q 256 -99 203 -100 q 365 -99 310 -99 q 438 -89 394 -99 q 522 -39 482 -79 q 375 -27 457 -37 q 221 -12 293 -17 q 288 75 260 14 q 338 225 315 136 q 367 358 351 281 q 400 520 383 435 q 432 685 417 606 q 458 827 447 765 q 475 918 469 889 q 545 919 507 919 q 626 919 583 919 q 691 927 654 919 q 761 968 728 935 q 669 980 729 974 q 538 992 610 986 q 397 997 467 997 q 190 970 257 997 q 114 890 124 943 q 209 906 165 900 q 303 914 253 911 q 426 918 354 917 q 395 809 413 878 q 358 654 378 740 q 317 474 339 568 q 272 290 294 381 q 224 122 249 200 q 174 -11 199 43 q 65 -18 115 -11 q -16 -48 15 -25 q -53 -122 -47 -71 m 525 1053 q 630 1085 585 1053 q 675 1164 675 1117 q 672 1185 675 1174 q 661 1206 669 1197 q 613 1149 644 1176 q 528 1122 581 1122 q 445 1162 471 1122 q 415 1249 419 1201 q 391 1222 400 1239 q 382 1181 382 1206 q 396 1126 382 1156 q 441 1074 410 1096 q 525 1053 472 1053 "},"Î":{"ha":638,"x_min":-53,"x_max":761,"o":"m -53 -122 q 48 -108 -3 -112 q 151 -101 99 -103 q 256 -99 203 -100 q 365 -99 310 -99 q 438 -89 394 -99 q 522 -39 482 -79 q 375 -27 457 -37 q 221 -12 293 -17 q 288 75 260 14 q 338 225 315 136 q 367 358 351 281 q 400 520 383 435 q 432 685 417 606 q 458 827 447 765 q 475 918 469 889 q 545 919 507 919 q 626 919 583 919 q 691 927 654 919 q 761 968 728 935 q 669 980 729 974 q 538 992 610 986 q 397 997 467 997 q 190 970 257 997 q 114 890 124 943 q 209 906 165 900 q 303 914 253 911 q 426 918 354 917 q 395 809 413 878 q 358 654 378 740 q 317 474 339 568 q 272 290 294 381 q 224 122 249 200 q 174 -11 199 43 q 65 -18 115 -11 q -16 -48 15 -25 q -53 -122 -47 -71 m 611 1033 q 629 1051 624 1040 q 635 1076 635 1063 q 622 1125 635 1099 q 589 1176 608 1151 q 548 1215 569 1200 q 510 1231 526 1231 q 469 1219 496 1231 q 416 1190 443 1208 q 370 1150 389 1171 q 351 1108 351 1129 q 354 1095 351 1103 q 365 1082 357 1088 q 431 1128 397 1110 q 508 1161 465 1146 q 567 1102 542 1131 q 611 1033 592 1074 "},"Ȉ":{"ha":638,"x_min":-53,"x_max":761,"o":"m -53 -122 q 48 -108 -3 -112 q 151 -101 99 -103 q 256 -99 203 -100 q 365 -99 310 -99 q 438 -89 394 -99 q 522 -39 482 -79 q 375 -27 457 -37 q 221 -12 293 -17 q 288 75 260 14 q 338 225 315 136 q 367 358 351 281 q 400 520 383 435 q 432 685 417 606 q 458 827 447 765 q 475 918 469 889 q 545 919 507 919 q 626 919 583 919 q 691 927 654 919 q 761 968 728 935 q 669 980 729 974 q 538 992 610 986 q 397 997 467 997 q 190 970 257 997 q 114 890 124 943 q 209 906 165 900 q 303 914 253 911 q 426 918 354 917 q 395 809 413 878 q 358 654 378 740 q 317 474 339 568 q 272 290 294 381 q 224 122 249 200 q 174 -11 199 43 q 65 -18 115 -11 q -16 -48 15 -25 q -53 -122 -47 -71 m 450 1038 q 465 1069 465 1049 q 455 1111 465 1085 q 428 1166 444 1138 q 394 1214 413 1194 q 357 1233 375 1233 q 335 1226 344 1233 q 317 1210 325 1219 q 389 1121 356 1164 q 450 1038 422 1078 m 542 1044 q 561 1056 553 1047 q 569 1086 569 1065 q 562 1126 569 1101 q 542 1176 554 1151 q 513 1219 529 1201 q 478 1236 496 1236 q 459 1229 468 1236 q 442 1201 450 1222 q 498 1122 472 1163 q 542 1044 524 1081 "},"Ï":{"ha":638,"x_min":-53,"x_max":761,"o":"m -53 -122 q 48 -108 -3 -112 q 151 -101 99 -103 q 256 -99 203 -100 q 365 -99 310 -99 q 438 -89 394 -99 q 522 -39 482 -79 q 375 -27 457 -37 q 221 -12 293 -17 q 288 75 260 14 q 338 225 315 136 q 367 358 351 281 q 400 520 383 435 q 432 685 417 606 q 458 827 447 765 q 475 918 469 889 q 545 919 507 919 q 626 919 583 919 q 691 927 654 919 q 761 968 728 935 q 669 980 729 974 q 538 992 610 986 q 397 997 467 997 q 190 970 257 997 q 114 890 124 943 q 209 906 165 900 q 303 914 253 911 q 426 918 354 917 q 395 809 413 878 q 358 654 378 740 q 317 474 339 568 q 272 290 294 381 q 224 122 249 200 q 174 -11 199 43 q 65 -18 115 -11 q -16 -48 15 -25 q -53 -122 -47 -71 m 586 1046 q 642 1068 617 1046 q 668 1114 668 1090 q 657 1144 668 1136 q 626 1153 646 1153 q 565 1133 596 1153 q 535 1088 535 1114 q 550 1056 535 1065 q 586 1046 565 1046 m 386 1075 q 442 1097 417 1075 q 468 1143 468 1119 q 457 1174 468 1165 q 426 1182 446 1182 q 365 1163 396 1182 q 335 1117 335 1143 q 350 1085 335 1094 q 386 1075 365 1075 "},"İ":{"ha":638,"x_min":-53,"x_max":761,"o":"m -53 -122 q 48 -108 -3 -112 q 151 -101 99 -103 q 256 -99 203 -100 q 365 -99 310 -99 q 438 -89 394 -99 q 522 -39 482 -79 q 375 -27 457 -37 q 221 -12 293 -17 q 288 75 260 14 q 338 225 315 136 q 367 358 351 281 q 400 520 383 435 q 432 685 417 606 q 458 827 447 765 q 475 918 469 889 q 545 919 507 919 q 626 919 583 919 q 691 927 654 919 q 761 968 728 935 q 669 980 729 974 q 538 992 610 986 q 397 997 467 997 q 190 970 257 997 q 114 890 124 943 q 209 906 165 900 q 303 914 253 911 q 426 918 354 917 q 395 809 413 878 q 358 654 378 740 q 317 474 339 568 q 272 290 294 381 q 224 122 249 200 q 174 -11 199 43 q 65 -18 115 -11 q -16 -48 15 -25 q -53 -122 -47 -71 m 490 1071 q 547 1092 521 1071 q 574 1139 574 1113 q 561 1173 574 1161 q 525 1185 549 1185 q 465 1166 494 1185 q 435 1117 435 1147 q 450 1083 435 1094 q 490 1071 465 1071 "},"Ị":{"ha":638,"x_min":-53,"x_max":761,"o":"m -53 -122 q 48 -108 -3 -112 q 151 -101 99 -103 q 256 -99 203 -100 q 365 -99 310 -99 q 438 -89 394 -99 q 522 -39 482 -79 q 375 -27 457 -37 q 221 -12 293 -17 q 288 75 260 14 q 338 225 315 136 q 367 358 351 281 q 400 520 383 435 q 432 685 417 606 q 458 827 447 765 q 475 918 469 889 q 545 919 507 919 q 626 919 583 919 q 691 927 654 919 q 761 968 728 935 q 669 980 729 974 q 538 992 610 986 q 397 997 467 997 q 190 970 257 997 q 114 890 124 943 q 209 906 165 900 q 303 914 253 911 q 426 918 354 917 q 395 809 413 878 q 358 654 378 740 q 317 474 339 568 q 272 290 294 381 q 224 122 249 200 q 174 -11 199 43 q 65 -18 115 -11 q -16 -48 15 -25 q -53 -122 -47 -71 m 121 -319 q 178 -299 151 -319 q 204 -251 204 -278 q 192 -217 204 -229 q 156 -206 179 -206 q 95 -224 125 -206 q 65 -274 65 -243 q 81 -308 65 -296 q 121 -319 96 -319 "},"Ì":{"ha":638,"x_min":-53,"x_max":761,"o":"m -53 -122 q 48 -108 -3 -112 q 151 -101 99 -103 q 256 -99 203 -100 q 365 -99 310 -99 q 438 -89 394 -99 q 522 -39 482 -79 q 375 -27 457 -37 q 221 -12 293 -17 q 288 75 260 14 q 338 225 315 136 q 367 358 351 281 q 400 520 383 435 q 432 685 417 606 q 458 827 447 765 q 475 918 469 889 q 545 919 507 919 q 626 919 583 919 q 691 927 654 919 q 761 968 728 935 q 669 980 729 974 q 538 992 610 986 q 397 997 467 997 q 190 970 257 997 q 114 890 124 943 q 209 906 165 900 q 303 914 253 911 q 426 918 354 917 q 395 809 413 878 q 358 654 378 740 q 317 474 339 568 q 272 290 294 381 q 224 122 249 200 q 174 -11 199 43 q 65 -18 115 -11 q -16 -48 15 -25 q -53 -122 -47 -71 m 481 1039 q 496 1057 492 1044 q 500 1075 500 1069 q 485 1115 500 1088 q 449 1172 471 1142 q 401 1222 426 1201 q 356 1243 376 1243 q 336 1234 344 1243 q 325 1200 328 1225 q 413 1118 375 1157 q 481 1039 450 1079 "},"Ỉ":{"ha":638,"x_min":-53,"x_max":761,"o":"m -53 -122 q 48 -108 -3 -112 q 151 -101 99 -103 q 256 -99 203 -100 q 365 -99 310 -99 q 438 -89 394 -99 q 522 -39 482 -79 q 375 -27 457 -37 q 221 -12 293 -17 q 288 75 260 14 q 338 225 315 136 q 367 358 351 281 q 400 520 383 435 q 432 685 417 606 q 458 827 447 765 q 475 918 469 889 q 545 919 507 919 q 626 919 583 919 q 691 927 654 919 q 761 968 728 935 q 669 980 729 974 q 538 992 610 986 q 397 997 467 997 q 190 970 257 997 q 114 890 124 943 q 209 906 165 900 q 303 914 253 911 q 426 918 354 917 q 395 809 413 878 q 358 654 378 740 q 317 474 339 568 q 272 290 294 381 q 224 122 249 200 q 174 -11 199 43 q 65 -18 115 -11 q -16 -48 15 -25 q -53 -122 -47 -71 m 522 1042 q 590 1069 564 1042 q 617 1140 617 1097 q 586 1216 617 1185 q 508 1247 556 1247 q 460 1228 478 1247 q 442 1183 442 1210 q 539 1169 507 1183 q 571 1124 571 1156 q 542 1074 571 1089 q 475 1057 513 1060 q 494 1047 482 1051 q 522 1042 506 1042 "},"Ȋ":{"ha":638,"x_min":-53,"x_max":761,"o":"m -53 -122 q 48 -108 -3 -112 q 151 -101 99 -103 q 256 -99 203 -100 q 365 -99 310 -99 q 438 -89 394 -99 q 522 -39 482 -79 q 375 -27 457 -37 q 221 -12 293 -17 q 288 75 260 14 q 338 225 315 136 q 367 358 351 281 q 400 520 383 435 q 432 685 417 606 q 458 827 447 765 q 475 918 469 889 q 545 919 507 919 q 626 919 583 919 q 691 927 654 919 q 761 968 728 935 q 669 980 729 974 q 538 992 610 986 q 397 997 467 997 q 190 970 257 997 q 114 890 124 943 q 209 906 165 900 q 303 914 253 911 q 426 918 354 917 q 395 809 413 878 q 358 654 378 740 q 317 474 339 568 q 272 290 294 381 q 224 122 249 200 q 174 -11 199 43 q 65 -18 115 -11 q -16 -48 15 -25 q -53 -122 -47 -71 m 624 1011 q 648 1041 639 1022 q 657 1086 657 1060 q 642 1138 657 1110 q 594 1187 626 1167 q 513 1207 563 1207 q 407 1175 450 1207 q 364 1096 364 1143 q 367 1074 364 1086 q 378 1054 371 1063 q 422 1110 393 1083 q 500 1138 451 1138 q 592 1098 565 1138 q 624 1011 619 1058 "},"Ī":{"ha":638,"x_min":-53,"x_max":761,"o":"m -53 -122 q 48 -108 -3 -112 q 151 -101 99 -103 q 256 -99 203 -100 q 365 -99 310 -99 q 438 -89 394 -99 q 522 -39 482 -79 q 375 -27 457 -37 q 221 -12 293 -17 q 288 75 260 14 q 338 225 315 136 q 367 358 351 281 q 400 520 383 435 q 432 685 417 606 q 458 827 447 765 q 475 918 469 889 q 545 919 507 919 q 626 919 583 919 q 691 927 654 919 q 761 968 728 935 q 669 980 729 974 q 538 992 610 986 q 397 997 467 997 q 190 970 257 997 q 114 890 124 943 q 209 906 165 900 q 303 914 253 911 q 426 918 354 917 q 395 809 413 878 q 358 654 378 740 q 317 474 339 568 q 272 290 294 381 q 224 122 249 200 q 174 -11 199 43 q 65 -18 115 -11 q -16 -48 15 -25 q -53 -122 -47 -71 m 633 1050 q 686 1078 667 1050 q 578 1108 638 1093 q 461 1133 519 1122 q 351 1143 403 1143 q 288 1107 301 1143 q 365 1095 319 1104 q 460 1076 410 1086 q 557 1058 511 1065 q 633 1050 603 1050 "},"Į":{"ha":638,"x_min":-53,"x_max":761,"o":"m -53 -122 q 48 -108 -3 -112 q 151 -101 99 -103 q 256 -99 203 -100 q 365 -99 310 -99 q 438 -89 394 -99 q 522 -39 482 -79 q 375 -27 457 -37 q 221 -12 293 -17 q 288 75 260 14 q 338 225 315 136 q 367 358 351 281 q 400 520 383 435 q 432 685 417 606 q 458 827 447 765 q 475 918 469 889 q 545 919 507 919 q 626 919 583 919 q 691 927 654 919 q 761 968 728 935 q 669 980 729 974 q 538 992 610 986 q 397 997 467 997 q 190 970 257 997 q 114 890 124 943 q 209 906 165 900 q 303 914 253 911 q 426 918 354 917 q 395 809 413 878 q 358 654 378 740 q 317 474 339 568 q 272 290 294 381 q 224 122 249 200 q 174 -11 199 43 q 65 -18 115 -11 q -16 -48 15 -25 q -53 -122 -47 -71 m 217 -281 q 282 -258 257 -281 q 308 -197 307 -236 q 275 -215 292 -210 q 239 -221 258 -221 q 188 -202 204 -221 q 171 -160 171 -183 q 185 -112 171 -132 q 221 -78 199 -93 q 151 -112 181 -83 q 121 -186 121 -140 q 147 -254 121 -228 q 217 -281 174 -281 "},"Ĩ":{"ha":638,"x_min":-53,"x_max":761,"o":"m -53 -122 q 48 -108 -3 -112 q 151 -101 99 -103 q 256 -99 203 -100 q 365 -99 310 -99 q 438 -89 394 -99 q 522 -39 482 -79 q 375 -27 457 -37 q 221 -12 293 -17 q 288 75 260 14 q 338 225 315 136 q 367 358 351 281 q 400 520 383 435 q 432 685 417 606 q 458 827 447 765 q 475 918 469 889 q 545 919 507 919 q 626 919 583 919 q 691 927 654 919 q 761 968 728 935 q 669 980 729 974 q 538 992 610 986 q 397 997 467 997 q 190 970 257 997 q 114 890 124 943 q 209 906 165 900 q 303 914 253 911 q 426 918 354 917 q 395 809 413 878 q 358 654 378 740 q 317 474 339 568 q 272 290 294 381 q 224 122 249 200 q 174 -11 199 43 q 65 -18 115 -11 q -16 -48 15 -25 q -53 -122 -47 -71 m 603 1057 q 662 1069 633 1057 q 717 1114 690 1082 q 669 1103 692 1103 q 574 1119 619 1103 q 486 1153 528 1136 q 406 1169 444 1169 q 343 1154 374 1169 q 285 1100 313 1139 q 322 1116 303 1111 q 360 1121 342 1121 q 444 1105 403 1121 q 525 1073 485 1089 q 603 1057 565 1057 "},"Ĵ":{"ha":571,"x_min":-43,"x_max":708,"o":"m 107 -119 q 187 -103 149 -119 q 262 -42 225 -86 q 335 85 299 1 q 397 253 368 158 q 451 446 426 347 q 494 632 476 544 q 522 781 513 719 q 532 861 532 843 q 525 896 532 876 q 503 926 518 915 q 549 927 525 926 q 601 928 574 928 q 658 935 624 928 q 708 968 693 942 q 635 980 683 974 q 531 992 588 986 q 418 997 474 997 q 252 972 306 997 q 192 899 199 946 q 274 915 236 910 q 358 924 311 921 q 472 926 404 926 q 444 788 463 871 q 404 606 426 704 q 358 409 382 508 q 309 223 333 310 q 263 75 285 136 q 203 -40 232 -10 q 139 -71 175 -71 q 74 -36 96 -71 q 51 61 51 -1 q 64 164 51 108 q 101 283 76 219 q 63 294 79 294 q 6 258 31 294 q -31 169 -18 222 q -43 61 -43 115 q -19 -56 -43 -17 q 40 -107 4 -94 q 107 -119 75 -119 m 640 1033 q 658 1051 653 1040 q 664 1076 664 1063 q 651 1125 664 1099 q 618 1176 638 1151 q 577 1215 599 1200 q 539 1231 556 1231 q 499 1219 525 1231 q 445 1190 472 1208 q 399 1150 418 1171 q 381 1108 381 1129 q 383 1095 381 1103 q 394 1082 386 1088 q 460 1128 426 1110 q 538 1161 494 1146 q 596 1102 571 1131 q 640 1033 621 1074 "},"Ķ":{"ha":819,"x_min":42,"x_max":840,"o":"m 688 -121 q 732 -107 711 -121 q 763 -75 753 -93 q 611 63 674 -1 q 502 188 549 126 q 416 313 456 249 q 335 447 376 376 q 453 529 388 482 q 588 630 519 576 q 713 738 656 683 q 805 844 769 793 q 840 939 840 896 q 838 971 840 950 q 828 1000 835 992 q 719 858 785 932 q 583 718 654 785 q 449 601 511 651 q 380 547 411 571 q 329 496 349 524 l 446 874 q 453 903 450 888 q 457 933 457 918 q 444 979 457 958 q 393 1000 431 1000 q 306 976 354 1000 q 215 913 258 953 q 143 826 171 874 q 115 732 115 779 q 134 676 115 699 q 199 653 153 653 q 192 700 192 674 q 206 779 192 735 q 244 865 219 824 q 299 934 268 907 q 364 961 331 961 q 390 952 383 961 q 397 928 397 943 q 390 891 397 911 q 379 860 383 871 q 266 528 314 669 q 183 286 218 388 q 123 114 149 185 q 78 -7 97 43 q 42 -96 60 -57 q 90 -93 65 -96 q 135 -77 114 -90 q 165 -32 156 -64 l 300 404 q 362 281 325 350 q 442 141 399 211 q 531 11 486 71 q 617 -85 576 -49 q 688 -121 657 -121 m 286 -356 q 324 -275 306 -315 q 382 -194 343 -235 q 372 -167 382 -179 q 347 -156 361 -156 q 307 -181 326 -156 q 275 -241 288 -206 q 263 -304 263 -276 q 268 -335 263 -321 q 286 -356 274 -349 "},"Ǉ":{"ha":1363,"x_min":-103,"x_max":1500,"o":"m 551 -121 q 638 -94 601 -121 q 697 -3 675 -67 q 651 -19 675 -14 q 599 -25 628 -25 q 486 -12 547 -25 q 360 22 425 1 q 231 61 294 42 q 306 201 271 122 q 372 367 340 279 q 431 539 403 454 q 451 539 446 539 q 457 539 456 539 q 604 572 542 540 q 707 652 667 603 q 767 756 747 701 q 786 858 786 811 q 764 944 786 914 q 710 988 742 975 q 651 1000 679 1000 q 556 967 599 1000 q 476 875 513 933 q 410 742 440 817 q 353 585 381 668 q 296 640 318 604 q 274 728 274 675 q 278 774 274 747 q 292 814 282 800 q 246 797 265 814 q 216 754 226 779 q 206 704 206 729 q 242 617 206 657 q 343 556 279 576 q 288 381 315 468 q 231 215 260 293 q 169 79 203 138 q 78 100 122 92 q -1 108 35 108 q -80 90 -57 108 q -103 47 -103 72 q -87 -3 -103 25 q -40 -53 -71 -32 q 36 -74 -8 -74 q 118 -52 81 -74 q 190 8 156 -31 q 317 -49 253 -19 q 441 -100 381 -79 q 551 -121 501 -121 m 31 -33 q -40 -6 -12 -33 q -67 46 -67 22 q -57 65 -67 58 q -21 72 -47 72 q 53 60 13 72 q 138 31 94 49 q 88 -17 115 0 q 31 -33 61 -33 m 439 565 q 509 763 475 672 q 581 910 543 854 q 661 965 618 965 q 696 951 681 965 q 711 896 711 936 q 692 799 711 854 q 638 690 674 743 q 552 601 603 636 q 439 565 501 565 m 899 -119 q 978 -103 940 -119 q 1053 -42 1017 -86 q 1126 85 1090 1 q 1189 253 1160 158 q 1243 446 1218 347 q 1286 632 1268 544 q 1314 781 1304 719 q 1324 861 1324 843 q 1317 896 1324 876 q 1294 926 1310 915 q 1341 927 1317 926 q 1393 928 1365 928 q 1450 935 1415 928 q 1500 968 1485 942 q 1427 980 1475 974 q 1322 992 1379 986 q 1210 997 1265 997 q 1044 972 1097 997 q 983 899 990 946 q 1065 915 1028 910 q 1149 924 1103 921 q 1264 926 1196 926 q 1236 788 1254 871 q 1196 606 1218 704 q 1149 409 1174 508 q 1101 223 1125 310 q 1054 75 1076 136 q 995 -40 1024 -10 q 931 -71 967 -71 q 865 -36 888 -71 q 843 61 843 -1 q 856 164 843 108 q 893 283 868 219 q 854 294 871 294 q 798 258 822 294 q 761 169 774 222 q 749 61 749 115 q 772 -56 749 -17 q 831 -107 796 -94 q 899 -119 867 -119 "},"Ĺ":{"ha":792,"x_min":-103,"x_max":853,"o":"m 551 -121 q 638 -94 601 -121 q 697 -3 675 -67 q 651 -19 675 -14 q 599 -25 628 -25 q 486 -12 547 -25 q 360 22 425 1 q 231 61 294 42 q 306 201 271 122 q 372 367 340 279 q 431 539 403 454 q 451 539 446 539 q 457 539 456 539 q 604 572 542 540 q 707 652 667 603 q 767 756 747 701 q 786 858 786 811 q 764 944 786 914 q 710 988 742 975 q 651 1000 679 1000 q 556 967 599 1000 q 476 875 513 933 q 410 742 440 817 q 353 585 381 668 q 296 640 318 604 q 274 728 274 675 q 278 774 274 747 q 292 814 282 800 q 246 797 265 814 q 216 754 226 779 q 206 704 206 729 q 242 617 206 657 q 343 556 279 576 q 288 381 315 468 q 231 215 260 293 q 169 79 203 138 q 78 100 122 92 q -1 108 35 108 q -80 90 -57 108 q -103 47 -103 72 q -87 -3 -103 25 q -40 -53 -71 -32 q 36 -74 -8 -74 q 118 -52 81 -74 q 190 8 156 -31 q 317 -49 253 -19 q 441 -100 381 -79 q 551 -121 501 -121 m 31 -33 q -40 -6 -12 -33 q -67 46 -67 22 q -57 65 -67 58 q -21 72 -47 72 q 53 60 13 72 q 138 31 94 49 q 88 -17 115 0 q 31 -33 61 -33 m 439 565 q 509 763 475 672 q 581 910 543 854 q 661 965 618 965 q 696 951 681 965 q 711 896 711 936 q 692 799 711 854 q 638 690 674 743 q 552 601 603 636 q 439 565 501 565 m 697 1039 q 765 1118 728 1079 q 853 1200 803 1157 q 842 1234 851 1225 q 822 1243 833 1243 q 776 1222 801 1243 q 729 1172 751 1201 q 692 1115 707 1142 q 678 1075 678 1088 q 683 1057 678 1069 q 697 1039 688 1044 "},"Ľ":{"ha":792,"x_min":-103,"x_max":974,"o":"m 551 -121 q 638 -94 601 -121 q 697 -3 675 -67 q 651 -19 675 -14 q 599 -25 628 -25 q 486 -12 547 -25 q 360 22 425 1 q 231 61 294 42 q 306 201 271 122 q 372 367 340 279 q 431 539 403 454 q 451 539 446 539 q 457 539 456 539 q 604 572 542 540 q 707 652 667 603 q 767 756 747 701 q 786 858 786 811 q 764 944 786 914 q 710 988 742 975 q 651 1000 679 1000 q 556 967 599 1000 q 476 875 513 933 q 410 742 440 817 q 353 585 381 668 q 296 640 318 604 q 274 728 274 675 q 278 774 274 747 q 292 814 282 800 q 246 797 265 814 q 216 754 226 779 q 206 704 206 729 q 242 617 206 657 q 343 556 279 576 q 288 381 315 468 q 231 215 260 293 q 169 79 203 138 q 78 100 122 92 q -1 108 35 108 q -80 90 -57 108 q -103 47 -103 72 q -87 -3 -103 25 q -40 -53 -71 -32 q 36 -74 -8 -74 q 118 -52 81 -74 q 190 8 156 -31 q 317 -49 253 -19 q 441 -100 381 -79 q 551 -121 501 -121 m 31 -33 q -40 -6 -12 -33 q -67 46 -67 22 q -57 65 -67 58 q -21 72 -47 72 q 53 60 13 72 q 138 31 94 49 q 88 -17 115 0 q 31 -33 61 -33 m 439 565 q 509 763 475 672 q 581 910 543 854 q 661 965 618 965 q 696 951 681 965 q 711 896 711 936 q 692 799 711 854 q 638 690 674 743 q 552 601 603 636 q 439 565 501 565 m 865 774 q 888 781 878 774 q 924 866 901 821 q 974 947 947 911 q 954 953 967 953 q 900 928 929 953 q 851 869 871 903 q 831 810 831 836 q 842 783 831 792 q 865 774 853 774 "},"Ļ":{"ha":792,"x_min":-103,"x_max":786,"o":"m 551 -121 q 638 -94 601 -121 q 697 -3 675 -67 q 651 -19 675 -14 q 599 -25 628 -25 q 486 -12 547 -25 q 360 22 425 1 q 231 61 294 42 q 306 201 271 122 q 372 367 340 279 q 431 539 403 454 q 451 539 446 539 q 457 539 456 539 q 604 572 542 540 q 707 652 667 603 q 767 756 747 701 q 786 858 786 811 q 764 944 786 914 q 710 988 742 975 q 651 1000 679 1000 q 556 967 599 1000 q 476 875 513 933 q 410 742 440 817 q 353 585 381 668 q 296 640 318 604 q 274 728 274 675 q 278 774 274 747 q 292 814 282 800 q 246 797 265 814 q 216 754 226 779 q 206 704 206 729 q 242 617 206 657 q 343 556 279 576 q 288 381 315 468 q 231 215 260 293 q 169 79 203 138 q 78 100 122 92 q -1 108 35 108 q -80 90 -57 108 q -103 47 -103 72 q -87 -3 -103 25 q -40 -53 -71 -32 q 36 -74 -8 -74 q 118 -52 81 -74 q 190 8 156 -31 q 317 -49 253 -19 q 441 -100 381 -79 q 551 -121 501 -121 m 31 -33 q -40 -6 -12 -33 q -67 46 -67 22 q -57 65 -67 58 q -21 72 -47 72 q 53 60 13 72 q 138 31 94 49 q 88 -17 115 0 q 31 -33 61 -33 m 439 565 q 509 763 475 672 q 581 910 543 854 q 661 965 618 965 q 696 951 681 965 q 711 896 711 936 q 692 799 711 854 q 638 690 674 743 q 552 601 603 636 q 439 565 501 565 m 179 -325 q 217 -244 199 -285 q 275 -164 236 -204 q 265 -137 275 -149 q 240 -125 254 -125 q 200 -150 219 -125 q 168 -210 181 -175 q 156 -274 156 -246 q 161 -304 156 -290 q 179 -325 167 -318 "},"Ŀ":{"ha":792,"x_min":-103,"x_max":786,"o":"m 551 -121 q 638 -94 601 -121 q 697 -3 675 -67 q 651 -19 675 -14 q 599 -25 628 -25 q 486 -12 547 -25 q 360 22 425 1 q 231 61 294 42 q 306 201 271 122 q 372 367 340 279 q 431 539 403 454 q 451 539 446 539 q 457 539 456 539 q 604 572 542 540 q 707 652 667 603 q 767 756 747 701 q 786 858 786 811 q 764 944 786 914 q 710 988 742 975 q 651 1000 679 1000 q 556 967 599 1000 q 476 875 513 933 q 410 742 440 817 q 353 585 381 668 q 296 640 318 604 q 274 728 274 675 q 278 774 274 747 q 292 814 282 800 q 246 797 265 814 q 216 754 226 779 q 206 704 206 729 q 242 617 206 657 q 343 556 279 576 q 288 381 315 468 q 231 215 260 293 q 169 79 203 138 q 78 100 122 92 q -1 108 35 108 q -80 90 -57 108 q -103 47 -103 72 q -87 -3 -103 25 q -40 -53 -71 -32 q 36 -74 -8 -74 q 118 -52 81 -74 q 190 8 156 -31 q 317 -49 253 -19 q 441 -100 381 -79 q 551 -121 501 -121 m 31 -33 q -40 -6 -12 -33 q -67 46 -67 22 q -57 65 -67 58 q -21 72 -47 72 q 53 60 13 72 q 138 31 94 49 q 88 -17 115 0 q 31 -33 61 -33 m 439 565 q 509 763 475 672 q 581 910 543 854 q 661 965 618 965 q 696 951 681 965 q 711 896 711 936 q 692 799 711 854 q 638 690 674 743 q 552 601 603 636 q 439 565 501 565 m 615 331 q 650 340 633 331 q 677 364 667 350 q 688 392 688 378 q 678 418 688 411 q 651 425 668 425 q 615 417 633 425 q 583 397 596 410 q 571 368 571 383 q 584 340 571 349 q 615 331 597 331 "},"ǈ":{"ha":1094,"x_min":-103,"x_max":1139,"o":"m 551 -121 q 638 -94 601 -121 q 697 -3 675 -67 q 651 -19 675 -14 q 599 -25 628 -25 q 486 -12 547 -25 q 360 22 425 1 q 231 61 294 42 q 306 201 271 122 q 372 367 340 279 q 431 539 403 454 q 451 539 446 539 q 457 539 456 539 q 604 572 542 540 q 707 652 667 603 q 767 756 747 701 q 786 858 786 811 q 764 944 786 914 q 710 988 742 975 q 651 1000 679 1000 q 556 967 599 1000 q 476 875 513 933 q 410 742 440 817 q 353 585 381 668 q 296 640 318 604 q 274 728 274 675 q 278 774 274 747 q 292 814 282 800 q 246 797 265 814 q 216 754 226 779 q 206 704 206 729 q 242 617 206 657 q 343 556 279 576 q 288 381 315 468 q 231 215 260 293 q 169 79 203 138 q 78 100 122 92 q -1 108 35 108 q -80 90 -57 108 q -103 47 -103 72 q -87 -3 -103 25 q -40 -53 -71 -32 q 36 -74 -8 -74 q 118 -52 81 -74 q 190 8 156 -31 q 317 -49 253 -19 q 441 -100 381 -79 q 551 -121 501 -121 m 31 -33 q -40 -6 -12 -33 q -67 46 -67 22 q -57 65 -67 58 q -21 72 -47 72 q 53 60 13 72 q 138 31 94 49 q 88 -17 115 0 q 31 -33 61 -33 m 439 565 q 509 763 475 672 q 581 910 543 854 q 661 965 618 965 q 696 951 681 965 q 711 896 711 936 q 692 799 711 854 q 638 690 674 743 q 552 601 603 636 q 439 565 501 565 m 597 -389 q 703 -340 654 -389 q 794 -214 753 -292 q 865 -50 835 -136 q 958 3 908 -25 q 1056 78 1008 31 q 1139 208 1104 126 l 1121 218 q 1041 104 1082 146 q 960 38 1000 63 q 879 -11 919 13 q 925 138 904 64 q 960 274 946 211 q 983 381 975 338 q 990 440 990 425 q 981 470 990 458 q 957 482 972 482 q 918 454 936 482 q 883 382 900 426 q 847 288 865 338 q 804 196 828 239 l 817 175 q 844 219 826 192 q 882 285 861 247 q 840 95 864 181 q 789 -57 817 10 q 741 -81 763 -71 q 700 -101 719 -90 q 574 -206 624 -144 q 525 -318 525 -267 q 544 -369 525 -349 q 597 -389 563 -389 m 585 -342 q 568 -334 575 -342 q 561 -308 561 -326 q 613 -208 561 -264 q 771 -101 665 -153 q 665 -281 717 -221 q 585 -342 613 -342 m 979 607 q 1042 631 1014 607 q 1071 686 1071 656 q 1058 715 1071 706 q 1025 725 1044 725 q 979 715 1003 725 q 940 689 956 706 q 924 651 924 672 q 940 618 924 629 q 979 607 957 607 "},"Ł":{"ha":793,"x_min":-103,"x_max":697,"o":"m 551 -121 q 638 -94 601 -121 q 697 -3 675 -67 q 651 -19 675 -14 q 599 -25 628 -25 q 486 -12 547 -25 q 360 22 425 1 q 231 61 294 42 q 276 138 254 97 q 320 235 297 179 q 372 369 343 290 q 436 556 400 447 q 549 833 490 719 q 651 1000 608 946 q 553 963 599 1000 q 471 861 508 925 q 401 717 433 797 q 339 549 368 636 q 281 369 308 458 q 226 204 253 279 q 169 79 199 129 q 78 100 122 92 q -1 108 35 108 q -80 90 -57 108 q -103 47 -103 72 q -87 -3 -103 25 q -40 -53 -71 -32 q 36 -74 -8 -74 q 118 -52 81 -74 q 190 8 156 -31 q 317 -49 253 -19 q 441 -100 381 -79 q 551 -121 501 -121 m 31 -33 q -40 -6 -12 -33 q -67 46 -67 22 q -57 65 -67 58 q -21 72 -47 72 q 53 60 13 72 q 138 31 94 49 q 88 -17 115 0 q 31 -33 61 -33 m 156 468 q 266 489 219 482 q 362 501 313 496 q 482 513 411 507 q 612 526 567 521 q 675 541 657 531 q 693 576 693 551 q 647 581 678 579 q 588 582 615 582 q 372 571 467 582 q 222 535 278 560 q 156 468 165 510 "},"Ǌ":{"ha":1453,"x_min":64,"x_max":1590,"o":"m 64 -121 q 111 -99 89 -121 q 158 -21 133 -78 q 216 141 183 36 q 296 412 249 246 q 410 818 343 578 q 426 706 417 774 q 448 558 436 639 q 472 394 460 478 q 497 232 485 310 q 519 91 508 154 q 536 -8 529 28 q 574 -96 547 -71 q 644 -121 601 -121 q 659 19 646 -67 q 695 208 672 104 q 747 424 718 313 q 807 644 776 536 q 867 844 838 751 q 921 1000 897 936 q 865 975 890 1000 q 833 932 840 950 q 812 872 828 919 q 774 752 796 824 q 728 595 753 681 q 680 420 703 510 q 638 248 657 331 q 610 100 619 165 q 597 185 604 133 q 582 298 590 236 q 565 428 574 360 q 549 567 557 497 q 528 728 539 650 q 500 867 517 806 q 456 965 483 929 q 388 1000 429 1000 q 299 976 347 1000 q 208 913 251 953 q 138 826 165 874 q 110 732 110 779 q 128 676 110 699 q 193 653 147 653 q 186 701 186 674 q 199 777 186 735 q 233 858 211 819 q 284 923 254 897 q 347 949 314 949 q 363 940 358 949 q 368 917 368 931 q 365 884 368 901 q 358 860 361 867 q 249 492 296 647 q 166 223 201 336 q 106 28 131 110 q 64 -121 81 -54 m 989 -119 q 1069 -103 1031 -119 q 1144 -42 1107 -86 q 1217 85 1181 1 q 1279 253 1250 158 q 1333 446 1308 347 q 1376 632 1358 544 q 1404 781 1394 719 q 1414 861 1414 843 q 1407 896 1414 876 q 1385 926 1400 915 q 1431 927 1407 926 q 1483 928 1456 928 q 1540 935 1506 928 q 1590 968 1575 942 q 1517 980 1565 974 q 1413 992 1469 986 q 1300 997 1356 997 q 1134 972 1188 997 q 1074 899 1081 946 q 1156 915 1118 910 q 1240 924 1193 921 q 1354 926 1286 926 q 1326 788 1344 871 q 1286 606 1308 704 q 1240 409 1264 508 q 1191 223 1215 310 q 1144 75 1167 136 q 1085 -40 1114 -10 q 1021 -71 1057 -71 q 956 -36 978 -71 q 933 61 933 -1 q 946 164 933 108 q 983 283 958 219 q 944 294 961 294 q 888 258 913 294 q 851 169 864 222 q 839 61 839 115 q 863 -56 839 -17 q 922 -107 886 -94 q 989 -119 957 -119 "},"Ń":{"ha":889,"x_min":64,"x_max":921,"o":"m 64 -121 q 111 -99 89 -121 q 158 -21 133 -78 q 216 141 183 36 q 296 412 249 246 q 410 818 343 578 q 426 706 417 774 q 448 558 436 639 q 472 394 460 478 q 497 232 485 310 q 519 91 508 154 q 536 -8 529 28 q 574 -96 547 -71 q 644 -121 601 -121 q 659 19 646 -67 q 695 208 672 104 q 747 424 718 313 q 807 644 776 536 q 867 844 838 751 q 921 1000 897 936 q 865 975 890 1000 q 833 932 840 950 q 812 872 828 919 q 774 752 796 824 q 728 595 753 681 q 680 420 703 510 q 638 248 657 331 q 610 100 619 165 q 597 185 604 133 q 582 298 590 236 q 565 428 574 360 q 549 567 557 497 q 528 728 539 650 q 500 867 517 806 q 456 965 483 929 q 388 1000 429 1000 q 299 976 347 1000 q 208 913 251 953 q 138 826 165 874 q 110 732 110 779 q 128 676 110 699 q 193 653 147 653 q 186 701 186 674 q 199 777 186 735 q 233 858 211 819 q 284 923 254 897 q 347 949 314 949 q 363 940 358 949 q 368 917 368 931 q 365 884 368 901 q 358 860 361 867 q 249 492 296 647 q 166 223 201 336 q 106 28 131 110 q 64 -121 81 -54 m 663 1039 q 731 1118 693 1079 q 818 1200 768 1157 q 808 1234 817 1225 q 788 1243 799 1243 q 742 1222 767 1243 q 694 1172 717 1201 q 658 1115 672 1142 q 643 1075 643 1088 q 648 1057 643 1069 q 663 1039 653 1044 "},"Ň":{"ha":889,"x_min":64,"x_max":921,"o":"m 64 -121 q 111 -99 89 -121 q 158 -21 133 -78 q 216 141 183 36 q 296 412 249 246 q 410 818 343 578 q 426 706 417 774 q 448 558 436 639 q 472 394 460 478 q 497 232 485 310 q 519 91 508 154 q 536 -8 529 28 q 574 -96 547 -71 q 644 -121 601 -121 q 659 19 646 -67 q 695 208 672 104 q 747 424 718 313 q 807 644 776 536 q 867 844 838 751 q 921 1000 897 936 q 865 975 890 1000 q 833 932 840 950 q 812 872 828 919 q 774 752 796 824 q 728 595 753 681 q 680 420 703 510 q 638 248 657 331 q 610 100 619 165 q 597 185 604 133 q 582 298 590 236 q 565 428 574 360 q 549 567 557 497 q 528 728 539 650 q 500 867 517 806 q 456 965 483 929 q 388 1000 429 1000 q 299 976 347 1000 q 208 913 251 953 q 138 826 165 874 q 110 732 110 779 q 128 676 110 699 q 193 653 147 653 q 186 701 186 674 q 199 777 186 735 q 233 858 211 819 q 284 923 254 897 q 347 949 314 949 q 363 940 358 949 q 368 917 368 931 q 365 884 368 901 q 358 860 361 867 q 249 492 296 647 q 166 223 201 336 q 106 28 131 110 q 64 -121 81 -54 m 658 1047 q 699 1058 672 1047 q 752 1088 725 1069 q 798 1128 779 1107 q 817 1169 817 1149 q 814 1183 817 1176 q 803 1196 811 1190 q 738 1150 772 1168 q 660 1117 703 1132 q 601 1177 626 1149 q 557 1244 576 1206 q 539 1227 544 1239 q 533 1201 533 1215 q 547 1153 533 1179 q 579 1102 560 1126 q 620 1063 599 1078 q 658 1047 642 1047 "},"Ņ":{"ha":889,"x_min":64,"x_max":921,"o":"m 64 -121 q 111 -99 89 -121 q 158 -21 133 -78 q 216 141 183 36 q 296 412 249 246 q 410 818 343 578 q 426 706 417 774 q 448 558 436 639 q 472 394 460 478 q 497 232 485 310 q 519 91 508 154 q 536 -8 529 28 q 574 -96 547 -71 q 644 -121 601 -121 q 659 19 646 -67 q 695 208 672 104 q 747 424 718 313 q 807 644 776 536 q 867 844 838 751 q 921 1000 897 936 q 865 975 890 1000 q 833 932 840 950 q 812 872 828 919 q 774 752 796 824 q 728 595 753 681 q 680 420 703 510 q 638 248 657 331 q 610 100 619 165 q 597 185 604 133 q 582 298 590 236 q 565 428 574 360 q 549 567 557 497 q 528 728 539 650 q 500 867 517 806 q 456 965 483 929 q 388 1000 429 1000 q 299 976 347 1000 q 208 913 251 953 q 138 826 165 874 q 110 732 110 779 q 128 676 110 699 q 193 653 147 653 q 186 701 186 674 q 199 777 186 735 q 233 858 211 819 q 284 923 254 897 q 347 949 314 949 q 363 940 358 949 q 368 917 368 931 q 365 884 368 901 q 358 860 361 867 q 249 492 296 647 q 166 223 201 336 q 106 28 131 110 q 64 -121 81 -54 m 293 -322 q 331 -242 313 -282 q 389 -161 350 -201 q 378 -134 389 -146 q 354 -122 368 -122 q 314 -147 333 -122 q 282 -208 294 -172 q 269 -271 269 -243 q 275 -301 269 -287 q 293 -322 281 -315 "},"Ŋ":{"ha":917,"x_min":111,"x_max":889,"o":"m 336 -328 q 489 -290 422 -328 q 606 -187 556 -253 q 694 -35 657 -121 q 761 149 732 51 q 801 298 779 211 q 844 478 824 385 q 876 655 864 571 q 889 794 889 739 q 844 929 889 875 q 708 983 799 983 q 544 921 615 983 q 418 747 472 858 q 442 858 435 811 q 450 933 450 904 q 435 980 450 960 q 381 1000 421 1000 q 290 976 338 1000 q 203 913 243 953 q 137 826 163 874 q 111 732 111 779 q 130 676 111 699 q 194 653 149 653 q 190 675 192 663 q 188 700 188 688 q 201 779 188 735 q 236 865 214 824 q 286 934 258 907 q 343 961 314 961 q 367 933 367 961 q 355 828 367 886 q 327 715 343 771 q 299 615 311 660 q 259 478 282 557 q 211 315 236 400 q 165 151 186 229 q 130 13 143 72 q 117 -72 117 -47 q 148 -122 117 -107 q 210 -137 179 -137 q 289 181 246 18 q 383 551 332 344 q 422 673 397 608 q 483 796 447 738 q 567 891 519 854 q 671 928 614 928 q 760 883 733 928 q 788 772 788 838 q 774 628 788 713 q 741 453 761 543 q 700 284 721 363 q 664 156 679 206 q 567 -85 621 15 q 441 -238 513 -185 q 274 -292 369 -292 q 249 -304 249 -292 q 273 -321 249 -314 q 336 -328 297 -328 "},"ǋ":{"ha":1169,"x_min":64,"x_max":1214,"o":"m 64 -121 q 111 -99 89 -121 q 158 -21 133 -78 q 216 141 183 36 q 296 412 249 246 q 410 818 343 578 q 426 706 417 774 q 448 558 436 639 q 472 394 460 478 q 497 232 485 310 q 519 91 508 154 q 536 -8 529 28 q 574 -96 547 -71 q 644 -121 601 -121 q 659 19 646 -67 q 695 208 672 104 q 747 424 718 313 q 807 644 776 536 q 867 844 838 751 q 921 1000 897 936 q 865 975 890 1000 q 833 932 840 950 q 812 872 828 919 q 774 752 796 824 q 728 595 753 681 q 680 420 703 510 q 638 248 657 331 q 610 100 619 165 q 597 185 604 133 q 582 298 590 236 q 565 428 574 360 q 549 567 557 497 q 528 728 539 650 q 500 867 517 806 q 456 965 483 929 q 388 1000 429 1000 q 299 976 347 1000 q 208 913 251 953 q 138 826 165 874 q 110 732 110 779 q 128 676 110 699 q 193 653 147 653 q 186 701 186 674 q 199 777 186 735 q 233 858 211 819 q 284 923 254 897 q 347 949 314 949 q 363 940 358 949 q 368 917 368 931 q 365 884 368 901 q 358 860 361 867 q 249 492 296 647 q 166 223 201 336 q 106 28 131 110 q 64 -121 81 -54 m 672 -389 q 778 -340 729 -389 q 869 -214 828 -292 q 940 -50 910 -136 q 1033 3 983 -25 q 1131 78 1083 31 q 1214 208 1179 126 l 1196 218 q 1116 104 1157 146 q 1035 38 1075 63 q 954 -11 994 13 q 1000 138 979 64 q 1035 274 1021 211 q 1058 381 1050 338 q 1065 440 1065 425 q 1056 470 1065 458 q 1032 482 1047 482 q 993 454 1011 482 q 958 382 975 426 q 922 288 940 338 q 879 196 903 239 l 892 175 q 919 219 901 192 q 957 285 936 247 q 915 95 939 181 q 864 -57 892 10 q 816 -81 838 -71 q 775 -101 794 -90 q 649 -206 699 -144 q 600 -318 600 -267 q 619 -369 600 -349 q 672 -389 638 -389 m 660 -342 q 643 -334 650 -342 q 636 -308 636 -326 q 688 -208 636 -264 q 846 -101 740 -153 q 740 -281 792 -221 q 660 -342 688 -342 m 1054 607 q 1117 631 1089 607 q 1146 686 1146 656 q 1133 715 1146 706 q 1100 725 1119 725 q 1054 715 1078 725 q 1015 689 1031 706 q 999 651 999 672 q 1015 618 999 629 q 1054 607 1032 607 "},"Ñ":{"ha":889,"x_min":64,"x_max":921,"o":"m 64 -121 q 111 -99 89 -121 q 158 -21 133 -78 q 216 141 183 36 q 296 412 249 246 q 410 818 343 578 q 426 706 417 774 q 448 558 436 639 q 472 394 460 478 q 497 232 485 310 q 519 91 508 154 q 536 -8 529 28 q 574 -96 547 -71 q 644 -121 601 -121 q 659 19 646 -67 q 695 208 672 104 q 747 424 718 313 q 807 644 776 536 q 867 844 838 751 q 921 1000 897 936 q 865 975 890 1000 q 833 932 840 950 q 812 872 828 919 q 774 752 796 824 q 728 595 753 681 q 680 420 703 510 q 638 248 657 331 q 610 100 619 165 q 597 185 604 133 q 582 298 590 236 q 565 428 574 360 q 549 567 557 497 q 528 728 539 650 q 500 867 517 806 q 456 965 483 929 q 388 1000 429 1000 q 299 976 347 1000 q 208 913 251 953 q 138 826 165 874 q 110 732 110 779 q 128 676 110 699 q 193 653 147 653 q 186 701 186 674 q 199 777 186 735 q 233 858 211 819 q 284 923 254 897 q 347 949 314 949 q 363 940 358 949 q 368 917 368 931 q 365 884 368 901 q 358 860 361 867 q 249 492 296 647 q 166 223 201 336 q 106 28 131 110 q 64 -121 81 -54 m 782 1057 q 841 1069 813 1057 q 896 1114 869 1082 q 849 1103 871 1103 q 753 1119 799 1103 q 665 1153 707 1136 q 585 1169 624 1169 q 522 1154 553 1169 q 464 1100 492 1139 q 501 1116 482 1111 q 539 1121 521 1121 q 623 1105 582 1121 q 704 1073 664 1089 q 782 1057 744 1057 "},"Ó":{"ha":865,"x_min":29,"x_max":869,"o":"m 296 -121 q 437 -88 363 -121 q 582 9 511 -56 q 710 168 653 74 q 802 387 768 263 q 836 663 836 511 q 831 749 836 703 q 813 837 826 796 q 777 904 800 878 q 718 931 754 931 q 640 903 683 931 q 558 834 597 876 q 492 747 518 792 q 467 664 467 701 q 483 623 467 642 q 533 596 499 604 q 563 685 542 635 q 610 783 583 736 q 667 862 638 831 q 721 893 696 893 q 758 861 744 893 q 778 785 772 829 q 783 701 783 740 q 762 495 783 603 q 701 287 740 388 q 606 104 661 186 q 483 -26 551 22 q 338 -74 415 -74 q 231 -35 272 -74 q 170 67 189 3 q 151 204 151 131 q 182 414 151 306 q 265 623 213 522 q 385 805 318 724 q 525 934 451 886 q 671 982 599 982 q 674 982 672 982 q 688 982 676 982 q 651 994 672 990 q 604 999 631 999 q 443 953 525 999 q 288 828 361 907 q 156 650 214 750 q 63 440 97 550 q 29 224 29 331 q 63 42 29 119 q 157 -78 97 -36 q 296 -121 217 -121 m 714 1039 q 782 1118 744 1079 q 869 1200 819 1157 q 859 1234 868 1225 q 839 1243 850 1243 q 793 1222 818 1243 q 746 1172 768 1201 q 709 1115 724 1142 q 694 1075 694 1088 q 699 1057 694 1069 q 714 1039 704 1044 "},"Ŏ":{"ha":865,"x_min":29,"x_max":906,"o":"m 296 -121 q 437 -88 363 -121 q 582 9 511 -56 q 710 168 653 74 q 802 387 768 263 q 836 663 836 511 q 831 749 836 703 q 813 837 826 796 q 777 904 800 878 q 718 931 754 931 q 640 903 683 931 q 558 834 597 876 q 492 747 518 792 q 467 664 467 701 q 483 623 467 642 q 533 596 499 604 q 563 685 542 635 q 610 783 583 736 q 667 862 638 831 q 721 893 696 893 q 758 861 744 893 q 778 785 772 829 q 783 701 783 740 q 762 495 783 603 q 701 287 740 388 q 606 104 661 186 q 483 -26 551 22 q 338 -74 415 -74 q 231 -35 272 -74 q 170 67 189 3 q 151 204 151 131 q 182 414 151 306 q 265 623 213 522 q 385 805 318 724 q 525 934 451 886 q 671 982 599 982 q 674 982 672 982 q 688 982 676 982 q 651 994 672 990 q 604 999 631 999 q 443 953 525 999 q 288 828 361 907 q 156 650 214 750 q 63 440 97 550 q 29 224 29 331 q 63 42 29 119 q 157 -78 97 -36 q 296 -121 217 -121 m 756 1053 q 860 1085 815 1053 q 906 1164 906 1117 q 903 1185 906 1174 q 892 1206 900 1197 q 843 1149 875 1176 q 758 1122 811 1122 q 676 1162 701 1122 q 646 1249 650 1201 q 622 1222 631 1239 q 613 1181 613 1206 q 626 1126 613 1156 q 672 1074 640 1096 q 756 1053 703 1053 "},"Ô":{"ha":865,"x_min":29,"x_max":865,"o":"m 296 -121 q 437 -88 363 -121 q 582 9 511 -56 q 710 168 653 74 q 802 387 768 263 q 836 663 836 511 q 831 749 836 703 q 813 837 826 796 q 777 904 800 878 q 718 931 754 931 q 640 903 683 931 q 558 834 597 876 q 492 747 518 792 q 467 664 467 701 q 483 623 467 642 q 533 596 499 604 q 563 685 542 635 q 610 783 583 736 q 667 862 638 831 q 721 893 696 893 q 758 861 744 893 q 778 785 772 829 q 783 701 783 740 q 762 495 783 603 q 701 287 740 388 q 606 104 661 186 q 483 -26 551 22 q 338 -74 415 -74 q 231 -35 272 -74 q 170 67 189 3 q 151 204 151 131 q 182 414 151 306 q 265 623 213 522 q 385 805 318 724 q 525 934 451 886 q 671 982 599 982 q 674 982 672 982 q 688 982 676 982 q 651 994 672 990 q 604 999 631 999 q 443 953 525 999 q 288 828 361 907 q 156 650 214 750 q 63 440 97 550 q 29 224 29 331 q 63 42 29 119 q 157 -78 97 -36 q 296 -121 217 -121 m 842 1033 q 860 1051 854 1040 q 865 1076 865 1063 q 852 1125 865 1099 q 819 1176 839 1151 q 778 1215 800 1200 q 740 1231 757 1231 q 700 1219 726 1231 q 647 1190 674 1208 q 601 1150 619 1171 q 582 1108 582 1129 q 585 1095 582 1103 q 596 1082 588 1088 q 662 1128 628 1110 q 739 1161 696 1146 q 797 1102 772 1131 q 842 1033 822 1074 "},"Ố":{"ha":865,"x_min":29,"x_max":1017,"o":"m 296 -121 q 437 -88 363 -121 q 582 9 511 -56 q 710 168 653 74 q 802 387 768 263 q 836 663 836 511 q 831 749 836 703 q 813 837 826 796 q 777 904 800 878 q 718 931 754 931 q 640 903 683 931 q 558 834 597 876 q 492 747 518 792 q 467 664 467 701 q 483 623 467 642 q 533 596 499 604 q 563 685 542 635 q 610 783 583 736 q 667 862 638 831 q 721 893 696 893 q 758 861 744 893 q 778 785 772 829 q 783 701 783 740 q 762 495 783 603 q 701 287 740 388 q 606 104 661 186 q 483 -26 551 22 q 338 -74 415 -74 q 231 -35 272 -74 q 170 67 189 3 q 151 204 151 131 q 182 414 151 306 q 265 623 213 522 q 385 805 318 724 q 525 934 451 886 q 671 982 599 982 q 674 982 672 982 q 688 982 676 982 q 651 994 672 990 q 604 999 631 999 q 443 953 525 999 q 288 828 361 907 q 156 650 214 750 q 63 440 97 550 q 29 224 29 331 q 63 42 29 119 q 157 -78 97 -36 q 296 -121 217 -121 m 889 1165 q 925 1209 906 1188 q 967 1253 944 1231 q 1017 1299 990 1275 q 1006 1333 1015 1324 q 986 1342 997 1342 q 947 1326 968 1342 q 906 1288 925 1311 q 874 1242 886 1265 q 861 1206 861 1219 q 868 1183 861 1194 q 889 1165 875 1172 m 842 1033 q 860 1051 854 1040 q 865 1076 865 1063 q 852 1125 865 1099 q 819 1176 839 1151 q 778 1215 800 1200 q 740 1231 757 1231 q 700 1219 726 1231 q 647 1190 674 1208 q 601 1150 619 1171 q 582 1108 582 1129 q 585 1095 582 1103 q 596 1082 588 1088 q 662 1128 628 1110 q 739 1161 696 1146 q 797 1102 772 1131 q 842 1033 822 1074 "},"Ộ":{"ha":865,"x_min":29,"x_max":865,"o":"m 296 -121 q 437 -88 363 -121 q 582 9 511 -56 q 710 168 653 74 q 802 387 768 263 q 836 663 836 511 q 831 749 836 703 q 813 837 826 796 q 777 904 800 878 q 718 931 754 931 q 640 903 683 931 q 558 834 597 876 q 492 747 518 792 q 467 664 467 701 q 483 623 467 642 q 533 596 499 604 q 563 685 542 635 q 610 783 583 736 q 667 862 638 831 q 721 893 696 893 q 758 861 744 893 q 778 785 772 829 q 783 701 783 740 q 762 495 783 603 q 701 287 740 388 q 606 104 661 186 q 483 -26 551 22 q 338 -74 415 -74 q 231 -35 272 -74 q 170 67 189 3 q 151 204 151 131 q 182 414 151 306 q 265 623 213 522 q 385 805 318 724 q 525 934 451 886 q 671 982 599 982 q 674 982 672 982 q 688 982 676 982 q 651 994 672 990 q 604 999 631 999 q 443 953 525 999 q 288 828 361 907 q 156 650 214 750 q 63 440 97 550 q 29 224 29 331 q 63 42 29 119 q 157 -78 97 -36 q 296 -121 217 -121 m 842 1033 q 860 1051 854 1040 q 865 1076 865 1063 q 852 1125 865 1099 q 819 1176 839 1151 q 778 1215 800 1200 q 740 1231 757 1231 q 700 1219 726 1231 q 647 1190 674 1208 q 601 1150 619 1171 q 582 1108 582 1129 q 585 1095 582 1103 q 596 1082 588 1088 q 662 1128 628 1110 q 739 1161 696 1146 q 797 1102 772 1131 q 842 1033 822 1074 m 233 -358 q 290 -337 264 -358 q 317 -290 317 -317 q 304 -256 317 -268 q 268 -244 292 -244 q 208 -263 238 -244 q 178 -312 178 -282 q 193 -347 178 -335 q 233 -358 208 -358 "},"Ồ":{"ha":865,"x_min":29,"x_max":942,"o":"m 296 -121 q 437 -88 363 -121 q 582 9 511 -56 q 710 168 653 74 q 802 387 768 263 q 836 663 836 511 q 831 749 836 703 q 813 837 826 796 q 777 904 800 878 q 718 931 754 931 q 640 903 683 931 q 558 834 597 876 q 492 747 518 792 q 467 664 467 701 q 483 623 467 642 q 533 596 499 604 q 563 685 542 635 q 610 783 583 736 q 667 862 638 831 q 721 893 696 893 q 758 861 744 893 q 778 785 772 829 q 783 701 783 740 q 762 495 783 603 q 701 287 740 388 q 606 104 661 186 q 483 -26 551 22 q 338 -74 415 -74 q 231 -35 272 -74 q 170 67 189 3 q 151 204 151 131 q 182 414 151 306 q 265 623 213 522 q 385 805 318 724 q 525 934 451 886 q 671 982 599 982 q 674 982 672 982 q 688 982 676 982 q 651 994 672 990 q 604 999 631 999 q 443 953 525 999 q 288 828 361 907 q 156 650 214 750 q 63 440 97 550 q 29 224 29 331 q 63 42 29 119 q 157 -78 97 -36 q 296 -121 217 -121 m 913 1163 q 942 1204 942 1174 q 932 1243 942 1219 q 907 1291 922 1267 q 873 1332 892 1315 q 838 1349 854 1349 q 815 1341 825 1349 q 803 1310 806 1333 q 847 1258 826 1283 q 883 1210 867 1233 q 913 1163 900 1186 m 842 1033 q 860 1051 854 1040 q 865 1076 865 1063 q 852 1125 865 1099 q 819 1176 839 1151 q 778 1215 800 1200 q 740 1231 757 1231 q 700 1219 726 1231 q 647 1190 674 1208 q 601 1150 619 1171 q 582 1108 582 1129 q 585 1095 582 1103 q 596 1082 588 1088 q 662 1128 628 1110 q 739 1161 696 1146 q 797 1102 772 1131 q 842 1033 822 1074 "},"Ổ":{"ha":865,"x_min":29,"x_max":1008,"o":"m 296 -121 q 437 -88 363 -121 q 582 9 511 -56 q 710 168 653 74 q 802 387 768 263 q 836 663 836 511 q 831 749 836 703 q 813 837 826 796 q 777 904 800 878 q 718 931 754 931 q 640 903 683 931 q 558 834 597 876 q 492 747 518 792 q 467 664 467 701 q 483 623 467 642 q 533 596 499 604 q 563 685 542 635 q 610 783 583 736 q 667 862 638 831 q 721 893 696 893 q 758 861 744 893 q 778 785 772 829 q 783 701 783 740 q 762 495 783 603 q 701 287 740 388 q 606 104 661 186 q 483 -26 551 22 q 338 -74 415 -74 q 231 -35 272 -74 q 170 67 189 3 q 151 204 151 131 q 182 414 151 306 q 265 623 213 522 q 385 805 318 724 q 525 934 451 886 q 671 982 599 982 q 674 982 672 982 q 688 982 676 982 q 651 994 672 990 q 604 999 631 999 q 443 953 525 999 q 288 828 361 907 q 156 650 214 750 q 63 440 97 550 q 29 224 29 331 q 63 42 29 119 q 157 -78 97 -36 q 296 -121 217 -121 m 926 1151 q 985 1175 963 1151 q 1008 1238 1008 1199 q 978 1320 1008 1286 q 900 1354 947 1354 q 851 1335 869 1354 q 833 1290 833 1317 q 931 1275 899 1290 q 963 1228 963 1260 q 938 1184 963 1199 q 883 1167 913 1169 q 901 1156 890 1161 q 926 1151 913 1151 m 842 1033 q 860 1051 854 1040 q 865 1076 865 1063 q 852 1125 865 1099 q 819 1176 839 1151 q 778 1215 800 1200 q 740 1231 757 1231 q 700 1219 726 1231 q 647 1190 674 1208 q 601 1150 619 1171 q 582 1108 582 1129 q 585 1095 582 1103 q 596 1082 588 1088 q 662 1128 628 1110 q 739 1161 696 1146 q 797 1102 772 1131 q 842 1033 822 1074 "},"Ỗ":{"ha":865,"x_min":29,"x_max":1014,"o":"m 296 -121 q 437 -88 363 -121 q 582 9 511 -56 q 710 168 653 74 q 802 387 768 263 q 836 663 836 511 q 831 749 836 703 q 813 837 826 796 q 777 904 800 878 q 718 931 754 931 q 640 903 683 931 q 558 834 597 876 q 492 747 518 792 q 467 664 467 701 q 483 623 467 642 q 533 596 499 604 q 563 685 542 635 q 610 783 583 736 q 667 862 638 831 q 721 893 696 893 q 758 861 744 893 q 778 785 772 829 q 783 701 783 740 q 762 495 783 603 q 701 287 740 388 q 606 104 661 186 q 483 -26 551 22 q 338 -74 415 -74 q 231 -35 272 -74 q 170 67 189 3 q 151 204 151 131 q 182 414 151 306 q 265 623 213 522 q 385 805 318 724 q 525 934 451 886 q 671 982 599 982 q 674 982 672 982 q 688 982 676 982 q 651 994 672 990 q 604 999 631 999 q 443 953 525 999 q 288 828 361 907 q 156 650 214 750 q 63 440 97 550 q 29 224 29 331 q 63 42 29 119 q 157 -78 97 -36 q 296 -121 217 -121 m 756 1053 q 860 1085 815 1053 q 906 1164 906 1117 q 903 1185 906 1174 q 892 1206 900 1197 q 843 1149 875 1176 q 758 1122 811 1122 q 676 1162 701 1122 q 646 1249 650 1201 q 622 1222 631 1239 q 613 1181 613 1206 q 626 1126 613 1156 q 672 1074 640 1096 q 756 1053 703 1053 m 900 1236 q 959 1249 931 1236 q 1014 1293 988 1261 q 967 1282 989 1282 q 871 1299 917 1282 q 783 1332 825 1315 q 703 1349 742 1349 q 640 1333 671 1349 q 582 1279 610 1318 q 619 1295 600 1290 q 657 1300 639 1300 q 741 1284 700 1300 q 822 1252 782 1268 q 900 1236 863 1236 "},"Ȍ":{"ha":865,"x_min":29,"x_max":836,"o":"m 296 -121 q 437 -88 363 -121 q 582 9 511 -56 q 710 168 653 74 q 802 387 768 263 q 836 663 836 511 q 831 749 836 703 q 813 837 826 796 q 777 904 800 878 q 718 931 754 931 q 640 903 683 931 q 558 834 597 876 q 492 747 518 792 q 467 664 467 701 q 483 623 467 642 q 533 596 499 604 q 563 685 542 635 q 610 783 583 736 q 667 862 638 831 q 721 893 696 893 q 758 861 744 893 q 778 785 772 829 q 783 701 783 740 q 762 495 783 603 q 701 287 740 388 q 606 104 661 186 q 483 -26 551 22 q 338 -74 415 -74 q 231 -35 272 -74 q 170 67 189 3 q 151 204 151 131 q 182 414 151 306 q 265 623 213 522 q 385 805 318 724 q 525 934 451 886 q 671 982 599 982 q 674 982 672 982 q 688 982 676 982 q 651 994 672 990 q 604 999 631 999 q 443 953 525 999 q 288 828 361 907 q 156 650 214 750 q 63 440 97 550 q 29 224 29 331 q 63 42 29 119 q 157 -78 97 -36 q 296 -121 217 -121 m 681 1038 q 696 1069 696 1049 q 685 1111 696 1085 q 659 1166 675 1138 q 624 1214 643 1194 q 588 1233 606 1233 q 565 1226 575 1233 q 547 1210 556 1219 q 619 1121 586 1164 q 681 1038 653 1078 m 772 1044 q 792 1056 783 1047 q 800 1086 800 1065 q 792 1126 800 1101 q 772 1176 785 1151 q 743 1219 760 1201 q 708 1236 726 1236 q 690 1229 699 1236 q 672 1201 681 1222 q 728 1122 703 1163 q 772 1044 754 1081 "},"Ö":{"ha":865,"x_min":29,"x_max":899,"o":"m 296 -121 q 437 -88 363 -121 q 582 9 511 -56 q 710 168 653 74 q 802 387 768 263 q 836 663 836 511 q 831 749 836 703 q 813 837 826 796 q 777 904 800 878 q 718 931 754 931 q 640 903 683 931 q 558 834 597 876 q 492 747 518 792 q 467 664 467 701 q 483 623 467 642 q 533 596 499 604 q 563 685 542 635 q 610 783 583 736 q 667 862 638 831 q 721 893 696 893 q 758 861 744 893 q 778 785 772 829 q 783 701 783 740 q 762 495 783 603 q 701 287 740 388 q 606 104 661 186 q 483 -26 551 22 q 338 -74 415 -74 q 231 -35 272 -74 q 170 67 189 3 q 151 204 151 131 q 182 414 151 306 q 265 623 213 522 q 385 805 318 724 q 525 934 451 886 q 671 982 599 982 q 674 982 672 982 q 688 982 676 982 q 651 994 672 990 q 604 999 631 999 q 443 953 525 999 q 288 828 361 907 q 156 650 214 750 q 63 440 97 550 q 29 224 29 331 q 63 42 29 119 q 157 -78 97 -36 q 296 -121 217 -121 m 817 1046 q 873 1068 847 1046 q 899 1114 899 1090 q 888 1144 899 1136 q 857 1153 876 1153 q 796 1133 826 1153 q 765 1088 765 1114 q 781 1056 765 1065 q 817 1046 796 1046 m 617 1075 q 673 1097 647 1075 q 699 1143 699 1119 q 688 1174 699 1165 q 657 1182 676 1182 q 596 1163 626 1182 q 565 1117 565 1143 q 581 1085 565 1094 q 617 1075 596 1075 "},"Ȫ":{"ha":865,"x_min":29,"x_max":1011,"o":"m 296 -121 q 437 -88 363 -121 q 582 9 511 -56 q 710 168 653 74 q 802 387 768 263 q 836 663 836 511 q 831 749 836 703 q 813 837 826 796 q 777 904 800 878 q 718 931 754 931 q 640 903 683 931 q 558 834 597 876 q 492 747 518 792 q 467 664 467 701 q 483 623 467 642 q 533 596 499 604 q 563 685 542 635 q 610 783 583 736 q 667 862 638 831 q 721 893 696 893 q 758 861 744 893 q 778 785 772 829 q 783 701 783 740 q 762 495 783 603 q 701 287 740 388 q 606 104 661 186 q 483 -26 551 22 q 338 -74 415 -74 q 231 -35 272 -74 q 170 67 189 3 q 151 204 151 131 q 182 414 151 306 q 265 623 213 522 q 385 805 318 724 q 525 934 451 886 q 671 982 599 982 q 674 982 672 982 q 688 982 676 982 q 651 994 672 990 q 604 999 631 999 q 443 953 525 999 q 288 828 361 907 q 156 650 214 750 q 63 440 97 550 q 29 224 29 331 q 63 42 29 119 q 157 -78 97 -36 q 296 -121 217 -121 m 817 1046 q 873 1068 847 1046 q 899 1114 899 1090 q 888 1144 899 1136 q 857 1153 876 1153 q 796 1133 826 1153 q 765 1088 765 1114 q 781 1056 765 1065 q 817 1046 796 1046 m 617 1075 q 673 1097 647 1075 q 699 1143 699 1119 q 688 1174 699 1165 q 657 1182 676 1182 q 596 1163 626 1182 q 565 1117 565 1143 q 581 1085 565 1094 q 617 1075 596 1075 m 958 1242 q 1011 1269 992 1242 q 903 1299 963 1285 q 786 1324 844 1314 q 676 1335 728 1335 q 613 1299 626 1335 q 690 1287 644 1296 q 785 1267 735 1278 q 882 1249 836 1257 q 958 1242 928 1242 "},"Ȱ":{"ha":865,"x_min":29,"x_max":1003,"o":"m 296 -121 q 437 -88 363 -121 q 582 9 511 -56 q 710 168 653 74 q 802 387 768 263 q 836 663 836 511 q 831 749 836 703 q 813 837 826 796 q 777 904 800 878 q 718 931 754 931 q 640 903 683 931 q 558 834 597 876 q 492 747 518 792 q 467 664 467 701 q 483 623 467 642 q 533 596 499 604 q 563 685 542 635 q 610 783 583 736 q 667 862 638 831 q 721 893 696 893 q 758 861 744 893 q 778 785 772 829 q 783 701 783 740 q 762 495 783 603 q 701 287 740 388 q 606 104 661 186 q 483 -26 551 22 q 338 -74 415 -74 q 231 -35 272 -74 q 170 67 189 3 q 151 204 151 131 q 182 414 151 306 q 265 623 213 522 q 385 805 318 724 q 525 934 451 886 q 671 982 599 982 q 674 982 672 982 q 688 982 676 982 q 651 994 672 990 q 604 999 631 999 q 443 953 525 999 q 288 828 361 907 q 156 650 214 750 q 63 440 97 550 q 29 224 29 331 q 63 42 29 119 q 157 -78 97 -36 q 296 -121 217 -121 m 721 1071 q 778 1092 751 1071 q 804 1139 804 1113 q 792 1173 804 1161 q 756 1185 779 1185 q 695 1166 725 1185 q 665 1117 665 1147 q 681 1083 665 1094 q 721 1071 696 1071 m 950 1232 q 1003 1260 983 1232 q 895 1290 954 1275 q 778 1315 836 1304 q 668 1325 719 1325 q 604 1289 618 1325 q 681 1277 636 1286 q 777 1258 726 1268 q 874 1240 828 1247 q 950 1232 919 1232 "},"Ọ":{"ha":865,"x_min":29,"x_max":836,"o":"m 296 -121 q 437 -88 363 -121 q 582 9 511 -56 q 710 168 653 74 q 802 387 768 263 q 836 663 836 511 q 831 749 836 703 q 813 837 826 796 q 777 904 800 878 q 718 931 754 931 q 640 903 683 931 q 558 834 597 876 q 492 747 518 792 q 467 664 467 701 q 483 623 467 642 q 533 596 499 604 q 563 685 542 635 q 610 783 583 736 q 667 862 638 831 q 721 893 696 893 q 758 861 744 893 q 778 785 772 829 q 783 701 783 740 q 762 495 783 603 q 701 287 740 388 q 606 104 661 186 q 483 -26 551 22 q 338 -74 415 -74 q 231 -35 272 -74 q 170 67 189 3 q 151 204 151 131 q 182 414 151 306 q 265 623 213 522 q 385 805 318 724 q 525 934 451 886 q 671 982 599 982 q 674 982 672 982 q 688 982 676 982 q 651 994 672 990 q 604 999 631 999 q 443 953 525 999 q 288 828 361 907 q 156 650 214 750 q 63 440 97 550 q 29 224 29 331 q 63 42 29 119 q 157 -78 97 -36 q 296 -121 217 -121 m 233 -358 q 290 -337 264 -358 q 317 -290 317 -317 q 304 -256 317 -268 q 268 -244 292 -244 q 208 -263 238 -244 q 178 -312 178 -282 q 193 -347 178 -335 q 233 -358 208 -358 "},"Ò":{"ha":865,"x_min":29,"x_max":836,"o":"m 296 -121 q 437 -88 363 -121 q 582 9 511 -56 q 710 168 653 74 q 802 387 768 263 q 836 663 836 511 q 831 749 836 703 q 813 837 826 796 q 777 904 800 878 q 718 931 754 931 q 640 903 683 931 q 558 834 597 876 q 492 747 518 792 q 467 664 467 701 q 483 623 467 642 q 533 596 499 604 q 563 685 542 635 q 610 783 583 736 q 667 862 638 831 q 721 893 696 893 q 758 861 744 893 q 778 785 772 829 q 783 701 783 740 q 762 495 783 603 q 701 287 740 388 q 606 104 661 186 q 483 -26 551 22 q 338 -74 415 -74 q 231 -35 272 -74 q 170 67 189 3 q 151 204 151 131 q 182 414 151 306 q 265 623 213 522 q 385 805 318 724 q 525 934 451 886 q 671 982 599 982 q 674 982 672 982 q 688 982 676 982 q 651 994 672 990 q 604 999 631 999 q 443 953 525 999 q 288 828 361 907 q 156 650 214 750 q 63 440 97 550 q 29 224 29 331 q 63 42 29 119 q 157 -78 97 -36 q 296 -121 217 -121 m 711 1039 q 726 1057 722 1044 q 731 1075 731 1069 q 716 1115 731 1088 q 679 1172 701 1142 q 632 1222 657 1201 q 586 1243 607 1243 q 567 1234 575 1243 q 556 1200 558 1225 q 643 1118 606 1157 q 711 1039 681 1079 "}}}
